<svg width="18px" height="18px" viewBox="0 0 11 12" fill="none" xmlns="http://www.w3.org/2000/svg">
<path d="M10.7996 10.5505C10.7996 10.8031 10.5948 11.0078 10.3423 11.0078H9.88497V11.4651C9.88497 11.7177 9.68023 11.9224 9.42767 11.9224C9.1751 11.9224 8.97037 11.7177 8.97037 11.4651V11.0078H8.51307C8.2605 11.0078 8.05577 10.8031 8.05577 10.5505C8.05577 10.298 8.2605 10.0932 8.51307 10.0932H8.97037V9.63594C8.97037 9.38337 9.1751 9.17864 9.42767 9.17864C9.68023 9.17864 9.88497 9.38337 9.88497 9.63594V10.0932H10.3423C10.5948 10.0932 10.7996 10.298 10.7996 10.5505ZM10.7996 3.41665V7.80674C10.7996 8.0593 10.5948 8.26404 10.3423 8.26404C10.0897 8.26404 9.88497 8.0593 9.88497 7.80674V3.87395H8.97037V5.24585C8.97037 5.49842 8.76563 5.70315 8.51307 5.70315C8.2605 5.70315 8.05577 5.49842 8.05577 5.24585V3.87395H3.66568V5.24585C3.66568 5.49842 3.46095 5.70315 3.20838 5.70315C2.95581 5.70315 2.75108 5.49842 2.75108 5.24585V3.87395H1.83648V11.0078H6.68386C6.93643 11.0078 7.14116 11.2126 7.14116 11.4651C7.14116 11.7177 6.93643 11.9224 6.68386 11.9224H1.37918C1.12661 11.9224 0.921875 11.7177 0.921875 11.4651V3.41665C0.921875 3.16408 1.12661 2.95935 1.37918 2.95935H2.77271C2.95437 1.41649 4.26984 0.215546 5.86072 0.215546C7.4516 0.215546 8.76707 1.41649 8.94874 2.95935H10.3423C10.5948 2.95935 10.7996 3.16408 10.7996 3.41665ZM8.0251 2.95935C7.85041 1.92253 6.94642 1.13015 5.86072 1.13015C4.77502 1.13015 3.87103 1.92253 3.69634 2.95935H8.0251Z" fill="white"/>
</svg>
