<svg width="25" height="25" viewBox="0 0 25 25" fill="none" xmlns="http://www.w3.org/2000/svg">
<g clip-path="url(#clip0_243_713)">
<path d="M17.8092 10.2941C17.8092 9.97206 17.8092 0.321369 17.8092 -3.8147e-06C17.3836 -3.8147e-06 1.60672 -3.8147e-06 0.162109 -3.8147e-06V10.2941H17.8092ZM16.3386 8.82353H14.994C15.2158 8.19764 15.7127 7.70083 16.3386 7.47892V8.82353ZM16.3386 2.81519C15.7127 2.59333 15.2159 2.09647 14.994 1.47058H16.3386V2.81519ZM13.4714 1.47058C13.7645 2.90902 14.9002 4.04465 16.3386 4.33774V5.95637C14.9002 6.24951 13.7645 7.38514 13.4714 8.82353H4.49986C4.20672 7.3851 3.07113 6.24951 1.6327 5.95637V4.33774C3.07113 4.04465 4.20672 2.90902 4.49986 1.47058H13.4714ZM1.6327 1.47058L2.97731 1.47063C2.75539 2.09647 2.25853 2.59328 1.6327 2.81519V1.47058ZM1.6327 8.82353V7.47892C2.25853 7.70078 2.75539 8.19764 2.97731 8.82353H1.6327Z" fill="black"/>
<path d="M8.98616 7.35294C10.2025 7.35294 11.192 6.36343 11.192 5.14706C11.192 3.93069 10.2025 2.94118 8.98616 2.94118C7.76983 2.94118 6.78027 3.93074 6.78027 5.14706C6.78027 6.36338 7.76978 7.35294 8.98616 7.35294ZM8.98616 4.41177C9.3916 4.41177 9.72145 4.74162 9.72145 5.14706C9.72145 5.5525 9.3916 5.88235 8.98616 5.88235C8.58071 5.88235 8.25086 5.5525 8.25086 5.14706C8.25086 4.74162 8.58067 4.41177 8.98616 4.41177Z" fill="black"/>
<path d="M3.83823 16.1765V14.6092L4.90097 15.3176L5.71671 14.0941L3.10298 12.3516L0.489258 14.0941L1.3049 15.3176L2.36764 14.6092V16.1765C2.36764 18.2037 4.01691 19.8529 6.04411 19.8529V18.3824C4.82774 18.3824 3.83823 17.3928 3.83823 16.1765Z" fill="black"/>
<path d="M24.0195 8.94705L22.9567 9.65554V8.08823C22.9567 6.06103 21.3075 4.41176 19.2803 4.41176V5.88235C20.4966 5.88235 21.4862 6.87186 21.4862 8.08823V9.65554L20.4234 8.94705L19.6077 10.1706L22.2214 11.9131L24.8351 10.1706L24.0195 8.94705Z" fill="black"/>
<path d="M7.51562 13.2353V25H20.7509V13.2353C20.2797 13.2353 8.02974 13.2353 7.51562 13.2353ZM14.8686 14.7059V16.1765H13.398V14.7059H14.8686ZM19.2803 14.7059V23.5294H8.98621V14.7059H11.9274V17.6471H16.3392V14.7059H19.2803Z" fill="black"/>
<path d="M10.457 20.5882H13.3982V22.0588H10.457V20.5882Z" fill="black"/>
</g>
<defs>
<clipPath id="clip0_243_713">
<rect width="25" height="25" fill="white"/>
</clipPath>
</defs>
</svg>
