<svg width="19" height="19" viewBox="0 0 19 19" fill="none" xmlns="http://www.w3.org/2000/svg">
<g clip-path="url(#clip0_1_2929)">
<path d="M18.3508 13.226H18.2998V3.64465C18.2998 3.18442 17.9253 2.80998 17.4651 2.80998H16.4615C15.7071 1.48117 14.2791 0.582642 12.6449 0.582642C11.0108 0.582642 9.58275 1.48117 8.82836 2.80998H7.82206C7.36183 2.80998 6.9874 3.18442 6.9874 3.64465V4.90518H4.33252C3.87648 4.90518 3.44312 5.10242 3.14357 5.44638L1.22513 7.64934C0.916342 8.00396 0.746307 8.45818 0.746307 8.92832V13.226H0.649191C0.291234 13.226 0 13.5172 0 13.8752V15.5773C0 15.9352 0.291234 16.2265 0.649191 16.2265H2.03901C2.17773 17.4574 3.22466 18.4174 4.49209 18.4174C5.75952 18.4174 6.80645 17.4574 6.94517 16.2265H11.803C11.9418 17.4574 12.9887 18.4174 14.2561 18.4174C14.6856 18.4174 15.1086 18.3054 15.4795 18.0935C15.6129 18.0173 15.6593 17.8473 15.583 17.7139C15.5068 17.5804 15.3369 17.5341 15.2035 17.6104C14.9164 17.7743 14.5889 17.861 14.2561 17.861C13.2014 17.861 12.3433 17.0029 12.3433 15.9482C12.3433 14.8935 13.2014 14.0355 14.2561 14.0355C15.3108 14.0355 16.1689 14.8935 16.1689 15.9482C16.1689 16.2186 16.1137 16.4797 16.0049 16.7245C15.9424 16.8649 16.0056 17.0293 16.146 17.0918C16.2864 17.1542 16.4508 17.091 16.5133 16.9506C16.6162 16.7192 16.6816 16.4765 16.7095 16.2265H18.3508C18.7088 16.2265 19 15.9352 19 15.5773V13.8752C19 13.5172 18.7088 13.226 18.3508 13.226ZM7.54385 3.64465C7.54385 3.49124 7.66865 3.36644 7.82206 3.36644H8.56225C8.36679 3.86289 8.25932 4.40324 8.25932 4.96826C8.25932 5.64295 8.58536 6.54367 9.22836 7.64537C9.30584 7.77815 9.47621 7.82283 9.60888 7.74542C9.74162 7.66797 9.78637 7.4976 9.70893 7.3649C9.11625 6.34944 8.81578 5.54309 8.81578 4.96826C8.81578 2.85685 10.5335 1.1391 12.6449 1.1391C14.7564 1.1391 16.4741 2.85685 16.4741 4.96823C16.4741 6.43627 14.5008 9.20237 12.6449 11.3126C12.2398 10.8516 11.2619 9.70658 10.3956 8.44241C10.3088 8.31564 10.1356 8.28336 10.0088 8.37016C9.88208 8.45699 9.84976 8.63018 9.93659 8.75691C10.838 10.0724 11.8559 11.259 12.2517 11.7081C12.3513 11.821 12.4945 11.8857 12.6449 11.8857C12.7953 11.8857 12.9386 11.821 13.0381 11.7081C13.9746 10.6455 17.0305 7.01885 17.0305 4.96823C17.0305 4.4032 16.9231 3.86285 16.7276 3.3664H17.4651C17.6185 3.3664 17.7433 3.4912 17.7433 3.64461V13.226H16.6995C16.0272 12.6221 15.1598 12.2896 14.2561 12.2896C13.3523 12.2896 12.4849 12.6221 11.8127 13.226H7.54385V3.64465ZM1.6448 8.01476L3.56324 5.8118C3.75706 5.58925 4.03746 5.4616 4.33256 5.4616H5.52844V9.43345H1.30272V8.92832C1.30272 8.59251 1.42422 8.26803 1.6448 8.01476ZM1.30272 11.1408H2.22779C2.37463 11.1408 2.49408 11.2603 2.49408 11.4071V11.5235C2.49408 11.6703 2.37459 11.7898 2.22779 11.7898H1.30272V11.1408ZM1.30272 12.3462H2.22779C2.68145 12.3462 3.05054 11.9771 3.05054 11.5235V11.4071C3.05054 10.9534 2.68145 10.5844 2.22779 10.5844H1.30272V9.9899H5.62114C5.87683 9.9899 6.08482 9.78191 6.08482 9.52622V5.46163H6.98736V13.226H6.93545C6.26317 12.6221 5.39578 12.2897 4.49202 12.2897C3.58825 12.2897 2.72086 12.6222 2.04859 13.226H1.30269L1.30272 12.3462ZM18.4435 15.5772C18.4435 15.6284 18.4019 15.67 18.3508 15.67H16.7092C16.5705 14.439 15.5236 13.479 14.2561 13.479C12.9887 13.479 11.9418 14.439 11.803 15.67H6.94517C6.80645 14.439 5.75952 13.479 4.49209 13.479C4.16879 13.479 3.85433 13.5406 3.55734 13.6621C3.41514 13.7203 3.34704 13.8828 3.40523 14.025C3.46342 14.1672 3.62581 14.2354 3.76812 14.1771C3.99787 14.0831 4.24145 14.0355 4.49209 14.0355C5.54678 14.0355 6.40486 14.8935 6.40486 15.9482C6.40486 17.0029 5.54681 17.861 4.49209 17.861C3.43737 17.861 2.57932 17.0029 2.57932 15.9482C2.57932 15.593 2.67733 15.2463 2.86273 14.9458C2.94337 14.815 2.90277 14.6436 2.772 14.5629C2.64122 14.4823 2.46978 14.5229 2.3891 14.6537C2.19832 14.963 2.07942 15.31 2.03879 15.67H0.649191C0.598055 15.67 0.556455 15.6284 0.556455 15.5773V13.8752C0.556455 13.824 0.598055 13.7824 0.649191 13.7824H2.0559C2.18923 13.7824 2.31648 13.7339 2.41415 13.6457C2.98504 13.1301 3.723 12.8461 4.49209 12.8461C5.26118 12.8461 5.99914 13.1301 6.57003 13.6457C6.6677 13.7339 6.79491 13.7824 6.92828 13.7824H11.82C11.9533 13.7824 12.0805 13.7339 12.1782 13.6457C12.7491 13.1301 13.4871 12.8461 14.2562 12.8461C15.0253 12.8461 15.7632 13.1301 16.3341 13.6457C16.4318 13.7339 16.559 13.7824 16.6924 13.7824H18.3509C18.402 13.7824 18.4436 13.824 18.4436 13.8752V15.5772H18.4435Z" fill="white"/>
<path d="M4.49234 17.0089C5.07722 17.0089 5.55304 16.5331 5.55304 15.9482C5.55304 15.3633 5.07722 14.8875 4.49234 14.8875C3.90746 14.8875 3.43164 15.3633 3.43164 15.9482C3.43164 16.5331 3.90749 17.0089 4.49234 17.0089ZM4.49234 15.4439C4.7704 15.4439 4.99662 15.6701 4.99662 15.9482C4.99662 16.2263 4.77044 16.4525 4.49234 16.4525C4.21428 16.4525 3.98806 16.2263 3.98806 15.9482C3.98806 15.6701 4.21428 15.4439 4.49234 15.4439Z" fill="white"/>
<path d="M13.1953 15.9482C13.1953 16.5331 13.6711 17.0089 14.256 17.0089C14.8409 17.0089 15.3167 16.5331 15.3167 15.9482C15.3167 15.3633 14.8409 14.8875 14.256 14.8875C13.6711 14.8875 13.1953 15.3633 13.1953 15.9482ZM14.7603 15.9482C14.7603 16.2263 14.5341 16.4525 14.256 16.4525C13.9779 16.4525 13.7517 16.2263 13.7517 15.9482C13.7517 15.6701 13.9779 15.4439 14.256 15.4439C14.5341 15.4439 14.7603 15.6701 14.7603 15.9482Z" fill="white"/>
<path d="M3.95399 11.164H4.67387C4.82754 11.164 4.95208 11.0394 4.95208 10.8858C4.95208 10.7321 4.82754 10.6075 4.67387 10.6075H3.95399C3.80032 10.6075 3.67578 10.7321 3.67578 10.8858C3.67578 11.0394 3.80032 11.164 3.95399 11.164Z" fill="white"/>
<path d="M12.6444 6.72366C13.746 6.72366 14.6423 5.82743 14.6423 4.72576C14.6423 3.62413 13.746 2.72791 12.6444 2.72791C11.5427 2.72791 10.6465 3.62413 10.6465 4.72576C10.6465 5.82743 11.5427 6.72366 12.6444 6.72366ZM12.6444 3.28432C13.4392 3.28432 14.0858 3.93095 14.0858 4.72576C14.0858 5.52057 13.4392 6.1672 12.6444 6.1672C11.8496 6.1672 11.2029 5.52057 11.2029 4.72576C11.2029 3.93095 11.8496 3.28432 12.6444 3.28432Z" fill="white"/>
</g>
<defs>
<clipPath id="clip0_1_2929">
<rect width="19" height="19" fill="white"/>
</clipPath>
</defs>
</svg>
