<?xml version="1.0" standalone="no"?>
<!DOCTYPE svg PUBLIC "-//W3C//DTD SVG 20010904//EN"
 "http://www.w3.org/TR/2001/REC-SVG-20010904/DTD/svg10.dtd">
<svg version="1.0" xmlns="http://www.w3.org/2000/svg"
 width="35px" height="35px" viewBox="0 0 226.000000 223.000000"
 preserveAspectRatio="xMidYMid meet">

<g transform="translate(0.000000,223.000000) scale(0.100000,-0.100000)"
fill="#000000" stroke="none">
<path d="M1070 1821 c-41 -12 -102 -41 -117 -57 -8 -8 -18 -14 -23 -14 -11 0
-130 -120 -130 -131 0 -4 -6 -14 -13 -21 -40 -41 -63 -184 -44 -268 7 -31 6
-36 -15 -45 -29 -12 -34 -44 -18 -115 13 -56 52 -145 68 -152 4 -1 18 -33 30
-70 24 -74 74 -163 97 -172 11 -4 15 -22 15 -68 l0 -63 -58 -23 c-158 -65
-266 -105 -349 -128 -51 -15 -93 -31 -93 -35 0 -5 -5 -8 -11 -6 -54 11 72
-116 187 -189 96 -61 252 -123 322 -127 21 -1 40 -5 43 -9 11 -16 214 -21 304
-8 165 23 375 109 467 192 18 15 34 28 37 28 15 0 89 83 85 95 -3 7 -1 16 5
20 7 4 8 -1 4 -12 -6 -16 -4 -16 16 2 l23 20 -109 33 c-59 18 -116 37 -125 42
-15 9 -127 53 -235 94 -46 17 -47 20 -44 82 2 45 10 67 42 117 22 36 44 86 51
118 9 44 15 55 28 52 33 -9 77 82 87 182 4 42 2 59 -10 73 -13 14 -14 26 -5
72 6 30 8 98 6 151 -4 81 -9 102 -28 130 -29 41 -59 69 -74 69 -6 0 -36 24
-67 53 -36 33 -76 59 -110 71 -57 20 -195 30 -239 17z"/>
</g>
</svg>
