<svg width="13" height="13" viewBox="0 0 13 13" fill="none" xmlns="http://www.w3.org/2000/svg">
<g clip-path="url(#clip0_406_236)">
<path d="M12.9624 0.734615C12.8974 0.596661 12.7585 0.508667 12.606 0.508667H0.394026C0.24152 0.508667 0.102726 0.596661 0.037637 0.734615C-0.0273998 0.872568 -0.00701672 1.03563 0.0900131 1.15331L4.78448 6.84713V12.0973C4.78448 12.2337 4.85493 12.3603 4.97071 12.4321C5.03417 12.4715 5.1062 12.4914 5.17848 12.4914C5.23821 12.4914 5.29816 12.4777 5.35342 12.4504L7.99103 11.1431C8.12505 11.0767 8.20984 10.9401 8.21005 10.7906L8.2152 6.84728L12.9099 1.15326C13.007 1.03563 13.0274 0.872516 12.9624 0.734615ZM7.51744 6.45496C7.45939 6.52536 7.42756 6.61377 7.42745 6.70507L7.42241 10.5454L5.57254 11.4623V6.7056C5.57254 6.61414 5.54076 6.52551 5.48255 6.45496L1.22952 1.29662H11.7705L7.51744 6.45496Z" fill="white"/>
</g>
<defs>
<clipPath id="clip0_406_236">
<rect width="13" height="13" fill="white"/>
</clipPath>
</defs>
</svg>
