<svg width="23" height="25" viewBox="0 0 23 25" fill="none" xmlns="http://www.w3.org/2000/svg">
<path d="M11.5 0C5.5627 0 0.757812 4.80488 0.757812 10.7422V16.2109C0.757812 17.8264 2.07207 19.1406 3.6875 19.1406C5.30293 19.1406 6.61719 17.8264 6.61719 16.2109V12.6953C6.61719 11.0799 5.30293 9.76562 3.6875 9.76562C3.35952 9.76562 3.04434 9.82061 2.74966 9.92046C3.16538 5.45806 6.93081 1.95312 11.5 1.95312C16.0692 1.95312 19.8346 5.45806 20.2503 9.92046C19.9557 9.82061 19.6405 9.76562 19.3125 9.76562C17.6971 9.76562 16.3828 11.0799 16.3828 12.6953V16.2109C16.3828 17.8264 17.6971 19.1406 19.3125 19.1406C19.6082 19.1406 19.8936 19.0962 20.1628 19.0144C19.7975 20.2164 18.6791 21.0938 17.3594 21.0938H14.2617C13.8586 19.9571 12.7731 19.1406 11.5 19.1406C9.88457 19.1406 8.57031 20.4549 8.57031 22.0703C8.57031 23.6857 9.88457 25 11.5 25C12.7731 25 13.8585 24.1835 14.2617 23.0469H17.3594C20.0518 23.0469 22.2422 20.8564 22.2422 18.1641V10.7422C22.2422 4.80488 17.4373 0 11.5 0ZM3.6875 11.7188C4.22598 11.7188 4.66406 12.1568 4.66406 12.6953V16.2109C4.66406 16.7494 4.22598 17.1875 3.6875 17.1875C3.14902 17.1875 2.71094 16.7494 2.71094 16.2109V12.6953C2.71094 12.1568 3.14902 11.7188 3.6875 11.7188ZM11.5 23.0469C10.9615 23.0469 10.5234 22.6088 10.5234 22.0703C10.5234 21.5318 10.9615 21.0938 11.5 21.0938C12.0385 21.0938 12.4766 21.5318 12.4766 22.0703C12.4766 22.6088 12.0385 23.0469 11.5 23.0469ZM19.3125 17.1875C18.774 17.1875 18.3359 16.7494 18.3359 16.2109V12.6953C18.3359 12.1568 18.774 11.7188 19.3125 11.7188C19.851 11.7188 20.2891 12.1568 20.2891 12.6953V16.2109C20.2891 16.7494 19.851 17.1875 19.3125 17.1875Z" fill="white"/>
</svg>
