<svg width="25" height="25" viewBox="0 0 25 25" fill="none" xmlns="http://www.w3.org/2000/svg">
<g clip-path="url(#clip0_740_832)">
<path d="M24.9684 8.07178C24.7972 6.26996 23.9303 4.57045 22.5275 3.28619C21.1249 2.00214 19.3479 1.2731 17.5236 1.2334C15.6939 1.19375 13.964 1.8422 12.4806 3.116C10.9099 1.81143 9.13626 1.15482 7.31451 1.20986C5.51669 1.26436 3.77391 2.01693 2.40732 3.32888C1.03037 4.65078 0.185061 6.38643 0.0270751 8.21604C-0.149664 10.2635 0.541421 12.2422 2.02571 13.9385C2.03284 13.9466 2.04012 13.9546 2.04759 13.9624C2.11171 14.0294 4.65014 16.6827 7.14216 19.2875L10.7348 23.0427C11.1979 23.5267 11.8214 23.7933 12.4904 23.7933C13.1595 23.7933 13.7829 23.5268 14.2459 23.0428L19.1028 17.9666C21.0845 15.8953 22.8134 14.0882 22.9337 13.9626C22.952 13.9435 22.9691 13.9236 22.9849 13.903C24.4746 12.1075 25.1604 10.0916 24.9684 8.07178ZM21.8527 12.9733C21.6136 13.2231 19.9452 14.9669 18.0443 16.9538L13.1875 22.0299C13.0034 22.2223 12.756 22.3282 12.4905 22.3282C12.2251 22.3282 11.9776 22.2223 11.7936 22.0299L8.20094 18.2747C5.78002 15.7444 3.31543 13.1683 3.11789 12.9617C0.416888 9.8632 1.38077 6.34536 3.42199 4.3858C6.2738 1.64807 9.77812 2.53865 11.986 4.63565C12.2736 4.90879 12.7264 4.90351 13.0075 4.62348C15.9068 1.73564 19.4619 2.46599 21.5382 4.3668C23.6502 6.30034 24.5644 9.70991 21.8527 12.9733Z" fill="black"/>
</g>
<defs>
<clipPath id="clip0_740_832">
<rect width="25" height="25" fill="white"/>
</clipPath>
</defs>
</svg>
