<svg width="28" height="28" viewBox="0 0 28 28" fill="none" xmlns="http://www.w3.org/2000/svg">
<g clip-path="url(#clip0_1_142)">
<path d="M16.2808 13.6649C16.2808 15.1095 15.1098 16.2805 13.6652 16.2805C12.2206 16.2805 11.0496 15.1095 11.0496 13.6649C11.0496 12.2203 12.2206 11.0493 13.6652 11.0493C15.1098 11.0493 16.2808 12.2203 16.2808 13.6649Z" fill="white"/>
<path d="M19.7822 9.03729C19.6564 8.69657 19.4559 8.38818 19.1952 8.13504C18.9421 7.8744 18.6339 7.67381 18.293 7.54808C18.0165 7.44069 17.6011 7.31287 16.8361 7.27805C16.0085 7.24031 15.7604 7.23218 13.6652 7.23218C11.5698 7.23218 11.3217 7.2401 10.4943 7.27784C9.72929 7.31287 9.31372 7.44069 9.03743 7.54808C8.69651 7.67381 8.38812 7.8744 8.13519 8.13504C7.87455 8.38818 7.67396 8.69637 7.54802 9.03729C7.44063 9.31378 7.31281 9.72935 7.27799 10.4944C7.24025 11.3218 7.23212 11.5699 7.23212 13.6653C7.23212 15.7604 7.24025 16.0085 7.27799 16.8361C7.31281 17.6012 7.44063 18.0165 7.54802 18.293C7.67396 18.634 7.87434 18.9421 8.13498 19.1953C8.38812 19.4559 8.6963 19.6565 9.03723 19.7822C9.31372 19.8898 9.72929 20.0177 10.4943 20.0525C11.3217 20.0902 11.5696 20.0981 13.665 20.0981C15.7606 20.0981 16.0087 20.0902 16.8359 20.0525C17.6009 20.0177 18.0165 19.8898 18.293 19.7822C18.9773 19.5183 19.5182 18.9774 19.7822 18.293C19.8896 18.0165 20.0174 17.6012 20.0524 16.8361C20.0902 16.0085 20.0981 15.7604 20.0981 13.6653C20.0981 11.5699 20.0902 11.3218 20.0524 10.4944C20.0176 9.72935 19.8898 9.31378 19.7822 9.03729ZM13.6652 17.6944C11.4397 17.6944 9.63566 15.8905 9.63566 13.6651C9.63566 11.4396 11.4397 9.63572 13.6652 9.63572C15.8905 9.63572 17.6945 11.4396 17.6945 13.6651C17.6945 15.8905 15.8905 17.6944 13.6652 17.6944ZM17.8538 10.4181C17.3338 10.4181 16.9122 9.99645 16.9122 9.47642C16.9122 8.95638 17.3338 8.53477 17.8538 8.53477C18.3739 8.53477 18.7955 8.95638 18.7955 9.47642C18.7953 9.99645 18.3739 10.4181 17.8538 10.4181Z" fill="white"/>
<path d="M13.6652 0C6.11927 0 0 6.11927 0 13.6652C0 21.2111 6.11927 27.3304 13.6652 27.3304C21.2111 27.3304 27.3304 21.2111 27.3304 13.6652C27.3304 6.11927 21.2111 0 13.6652 0ZM21.4647 16.9003C21.4267 17.7356 21.2939 18.3059 21.1 18.8051C20.6923 19.8591 19.8591 20.6923 18.8051 21.1C18.3061 21.2939 17.7356 21.4265 16.9005 21.4647C16.0637 21.5028 15.7964 21.512 13.6654 21.512C11.5342 21.512 11.2671 21.5028 10.4301 21.4647C9.595 21.4265 9.0245 21.2939 8.52553 21.1C8.00174 20.9029 7.52758 20.5941 7.13557 20.1948C6.73647 19.803 6.42766 19.3287 6.23062 18.8051C6.0367 18.3061 5.90388 17.7356 5.86593 16.9005C5.82735 16.0635 5.81839 15.7962 5.81839 13.6652C5.81839 11.5342 5.82735 11.2669 5.86572 10.4301C5.90367 9.59479 6.03628 9.0245 6.2302 8.52532C6.42725 8.00174 6.73627 7.52737 7.13557 7.13557C7.52737 6.73627 8.00174 6.42746 8.52532 6.23041C9.0245 6.03649 9.59479 5.90388 10.4301 5.86572C11.2669 5.82756 11.5342 5.81839 13.6652 5.81839C15.7962 5.81839 16.0635 5.82756 16.9003 5.86593C17.7356 5.90388 18.3059 6.03649 18.8051 6.2302C19.3287 6.42725 19.803 6.73627 20.195 7.13557C20.5941 7.52758 20.9031 8.00174 21.1 8.52532C21.2941 9.0245 21.4267 9.59479 21.4649 10.4301C21.503 11.2669 21.512 11.5342 21.512 13.6652C21.512 15.7962 21.503 16.0635 21.4647 16.9003Z" fill="white"/>
</g>
<defs>
<clipPath id="clip0_1_142">
<rect width="27.3304" height="27.3304" fill="white"/>
</clipPath>
</defs>
</svg>
