<svg width="28" height="28" viewBox="0 0 28 28" fill="none" xmlns="http://www.w3.org/2000/svg">
<g clip-path="url(#clip0_10_218)">
<path d="M16.28 13.6649C16.28 15.1095 15.109 16.2805 13.6644 16.2805C12.2198 16.2805 11.0488 15.1095 11.0488 13.6649C11.0488 12.2203 12.2198 11.0493 13.6644 11.0493C15.109 11.0493 16.28 12.2203 16.28 13.6649Z" fill="#EF8F21"/>
<path d="M19.7825 9.03704C19.6568 8.69633 19.4562 8.38794 19.1955 8.1348C18.9424 7.87416 18.6342 7.67357 18.2933 7.54783C18.0168 7.44045 17.6014 7.31263 16.8364 7.27781C16.0088 7.24007 15.7607 7.23193 13.6655 7.23193C11.5701 7.23193 11.322 7.23986 10.4946 7.2776C9.72959 7.31263 9.31402 7.44045 9.03774 7.54783C8.69682 7.67357 8.38843 7.87416 8.1355 8.1348C7.87485 8.38794 7.67426 8.69612 7.54832 9.03704C7.44094 9.31353 7.31312 9.7291 7.2783 10.4941C7.24055 11.3215 7.23242 11.5697 7.23242 13.665C7.23242 15.7602 7.24055 16.0083 7.2783 16.8359C7.31312 17.6009 7.44094 18.0163 7.54832 18.2928C7.67426 18.6337 7.87465 18.9419 8.13529 19.195C8.38843 19.4557 8.69661 19.6563 9.03753 19.782C9.31402 19.8896 9.72959 20.0174 10.4946 20.0522C11.322 20.09 11.5699 20.0979 13.6653 20.0979C15.7609 20.0979 16.009 20.09 16.8362 20.0522C17.6012 20.0174 18.0168 19.8896 18.2933 19.782C18.9776 19.518 19.5185 18.9771 19.7825 18.2928C19.8899 18.0163 20.0177 17.6009 20.0527 16.8359C20.0905 16.0083 20.0984 15.7602 20.0984 13.665C20.0984 11.5697 20.0905 11.3215 20.0527 10.4941C20.0179 9.7291 19.8901 9.31353 19.7825 9.03704ZM13.6655 17.6941C11.44 17.6941 9.63597 15.8903 9.63597 13.6648C9.63597 11.4393 11.44 9.63548 13.6655 9.63548C15.8908 9.63548 17.6948 11.4393 17.6948 13.6648C17.6948 15.8903 15.8908 17.6941 13.6655 17.6941ZM17.8541 10.4178C17.3341 10.4178 16.9125 9.99621 16.9125 9.47617C16.9125 8.95614 17.3341 8.53452 17.8541 8.53452C18.3742 8.53452 18.7958 8.95614 18.7958 9.47617C18.7956 9.99621 18.3742 10.4178 17.8541 10.4178Z" fill="#EF8F21"/>
<path d="M13.6652 0C6.11927 0 0 6.11927 0 13.6652C0 21.2111 6.11927 27.3304 13.6652 27.3304C21.2111 27.3304 27.3304 21.2111 27.3304 13.6652C27.3304 6.11927 21.2111 0 13.6652 0ZM21.4647 16.9003C21.4267 17.7356 21.2939 18.3059 21.1 18.8051C20.6923 19.8591 19.8591 20.6923 18.8051 21.1C18.3061 21.2939 17.7356 21.4265 16.9005 21.4647C16.0637 21.5028 15.7964 21.512 13.6654 21.512C11.5342 21.512 11.2671 21.5028 10.4301 21.4647C9.595 21.4265 9.0245 21.2939 8.52553 21.1C8.00174 20.9029 7.52758 20.5941 7.13557 20.1948C6.73647 19.803 6.42766 19.3287 6.23062 18.8051C6.0367 18.3061 5.90388 17.7356 5.86593 16.9005C5.82735 16.0635 5.81839 15.7962 5.81839 13.6652C5.81839 11.5342 5.82735 11.2669 5.86572 10.4301C5.90367 9.59479 6.03628 9.0245 6.2302 8.52532C6.42725 8.00174 6.73627 7.52737 7.13557 7.13557C7.52737 6.73627 8.00174 6.42746 8.52532 6.23041C9.0245 6.03649 9.59479 5.90388 10.4301 5.86572C11.2669 5.82756 11.5342 5.81839 13.6652 5.81839C15.7962 5.81839 16.0635 5.82756 16.9003 5.86593C17.7356 5.90388 18.3059 6.03649 18.8051 6.2302C19.3287 6.42725 19.803 6.73627 20.195 7.13557C20.5941 7.52758 20.9031 8.00174 21.1 8.52532C21.2941 9.0245 21.4267 9.59479 21.4649 10.4301C21.503 11.2669 21.512 11.5342 21.512 13.6652C21.512 15.7962 21.503 16.0635 21.4647 16.9003Z" fill="#EF8F21"/>
</g>
<defs>
<clipPath id="clip0_10_218">
<rect width="27.3304" height="27.3304" fill="white"/>
</clipPath>
</defs>
</svg>
