<svg version="1.1" id="Layer_1" xmlns="http://www.w3.org/2000/svg" xmlns:xlink="http://www.w3.org/1999/xlink" x="0px" y="0px"
	 width="100%" viewBox="0 0 1000 500" enable-background="new 0 0 1000 500" xml:space="preserve">
<path fill="#FFFFFF" opacity="1.000000" stroke="none" 
	d="
M606.000000,501.000000 
	C404.033569,501.000000 202.567108,501.000000 1.050335,501.000000 
	C1.050335,334.394653 1.050335,167.789291 1.050335,1.091969 
	C334.216492,1.091969 667.432983,1.091969 1000.824768,1.091969 
	C1000.824768,167.666519 1000.824768,334.333252 1000.824768,501.000000 
	C869.455872,501.000000 737.977966,501.000000 606.000000,501.000000 
M405.723724,319.870148 
	C406.770477,319.843811 407.817200,319.817474 409.805176,319.958374 
	C475.115387,319.983643 540.425598,319.995575 605.735718,320.066772 
	C609.709595,320.071106 613.682983,320.545319 618.519165,320.909271 
	C620.308411,320.909271 622.097717,320.909271 623.851624,320.909271 
	C625.336426,313.721344 625.337708,313.716003 618.613098,312.085907 
	C618.143311,311.972015 617.633301,312.023773 616.997314,311.149780 
	C614.597107,301.971100 616.289795,292.385345 613.893799,283.093842 
	C612.584106,278.015076 613.962036,272.299774 613.472778,266.931244 
	C613.189270,263.820374 611.434631,260.872101 610.636108,257.774872 
	C606.953674,243.491486 608.571533,228.534973 605.050537,214.170319 
	C603.696106,208.644958 604.543884,202.825500 603.149475,196.963867 
	C600.571411,186.126221 600.013733,174.799408 598.774231,163.658554 
	C598.503235,161.222397 598.895020,158.711273 598.999023,156.235382 
	C599.031860,155.454788 599.481140,154.269531 599.130188,153.959351 
	C595.011475,150.319183 596.907043,145.842590 597.233215,141.580353 
	C597.320557,140.439774 597.669495,139.198471 597.352295,138.172134 
	C596.630249,135.835327 595.136108,133.672958 594.755432,131.310822 
	C594.269958,128.298721 593.224060,127.014572 589.987244,127.110466 
	C582.841980,127.322121 575.678406,126.973808 568.537476,127.248825 
	C565.276672,127.374397 562.849915,126.624550 561.092834,123.056747 
	C560.383240,120.333221 560.009521,117.465256 558.910278,114.909294 
	C550.856628,96.182518 536.555115,85.421432 516.557129,81.925522 
	C485.737000,76.537750 455.030396,95.732254 450.298340,126.265877 
	C442.031067,126.532555 433.765411,126.889153 425.496033,127.038605 
	C418.364441,127.167488 418.362549,127.063210 417.064575,134.168518 
	C415.437805,134.786316 413.785980,135.346741 412.193512,136.042984 
	C411.205658,136.474854 409.623016,136.978149 409.484863,137.680878 
	C408.779083,141.271301 408.026123,144.946838 408.108429,148.574036 
	C408.212463,153.159241 409.579651,157.729477 409.551270,162.300888 
	C409.505249,169.720551 408.767883,177.135910 408.212646,184.503235 
	C408.212646,184.503235 408.321930,184.452469 408.153534,185.352631 
	C408.095154,186.504135 408.388245,187.846436 407.892120,188.760315 
	C407.225525,189.988297 406.095215,191.343414 404.873871,191.731857 
	C404.261292,191.926697 402.212555,190.142426 402.164734,189.185654 
	C401.670227,179.291748 393.437256,188.446777 390.503235,184.474594 
	C390.319733,184.226151 387.446198,185.125793 387.091522,186.003464 
	C386.114685,188.420761 385.811554,191.110306 384.734467,194.060883 
	C380.568024,197.630600 377.606842,206.347717 379.557861,209.299835 
	C384.021698,216.054169 389.847290,218.046265 398.045563,216.401123 
	C400.481323,222.816544 401.433624,229.159119 400.512207,236.246872 
	C400.010986,240.102158 398.679138,245.313965 402.251984,249.971069 
	C401.234589,258.657806 400.217194,267.344574 399.045959,276.875092 
	C398.359650,282.919952 397.673309,288.964813 396.953918,295.744598 
	C396.621460,298.278931 396.289001,300.813263 395.367401,303.366547 
	C394.961884,303.947052 394.556366,304.527557 394.081329,305.122040 
	C394.081329,305.122040 394.053528,305.187225 393.155457,305.077637 
	C386.765259,306.260681 380.375031,307.443726 373.984833,308.626770 
	C379.364899,310.572723 384.676392,311.069824 389.828247,312.258606 
	C391.645569,312.677979 394.034546,314.516693 394.504059,316.176544 
	C396.155884,322.016113 397.061066,328.065002 398.310638,334.021637 
	C398.611816,335.457397 399.148163,336.843781 399.576355,338.252869 
	C399.948486,338.170654 400.320618,338.088470 400.692749,338.006256 
	C401.043060,335.015106 401.393402,332.023987 401.963013,328.301422 
	C401.985382,327.541626 402.007751,326.781860 402.570129,325.588257 
	C403.366638,323.617859 404.163147,321.647491 405.723724,319.870148 
M430.000000,374.594666 
	C430.000000,379.589417 430.056213,384.585052 429.975708,389.578491 
	C429.936859,391.988068 431.094238,395.167480 426.759338,395.392120 
	C426.486267,395.406250 426.320129,397.483490 426.078674,398.733429 
	C431.054077,398.733429 435.324646,398.733429 439.595215,398.733429 
	C439.863678,398.256012 440.132172,397.778564 440.400665,397.301147 
	C438.717957,396.153870 437.035278,395.006592 435.131348,393.708466 
	C435.131348,391.309784 435.131348,388.502655 435.131348,385.089661 
	C442.056030,389.496674 448.330780,389.108612 453.453217,382.898529 
	C456.486023,379.221802 456.174713,371.436737 453.157837,367.730103 
	C449.571533,363.323914 444.823547,360.828430 435.505737,365.431885 
	C433.406464,360.848419 429.582550,363.917053 426.105103,362.892334 
	C426.292847,364.456299 426.301361,366.381134 426.560974,366.415588 
	C431.532013,367.075745 429.646301,370.875732 430.000000,374.594666 
M767.930786,387.989014 
	C771.436157,387.415100 774.941467,386.841217 778.446838,386.267303 
	C778.347595,386.513824 778.248291,386.760345 778.149048,387.006866 
	C781.251038,387.436676 784.353027,387.866486 787.455017,388.296265 
	C787.790100,387.715179 788.125122,387.134094 788.460144,386.552979 
	C787.143982,385.284790 785.827759,384.016571 783.783264,382.046600 
	C783.783264,372.863831 783.783264,362.620392 783.783264,352.217529 
	C780.420959,352.217529 777.490601,352.217529 774.560242,352.217529 
	C774.262146,352.689575 773.964050,353.161652 773.665894,353.633698 
	C775.262085,354.791504 776.858337,355.949310 778.566284,357.188141 
	C778.566284,359.750336 778.566284,362.753967 778.566284,365.963440 
	C771.629272,362.083679 766.822144,362.081635 762.788696,365.714386 
	C754.440002,373.233734 756.302979,382.825470 767.930786,387.989014 
M515.696411,364.856628 
	C514.981995,365.552979 514.253906,366.235870 513.555481,366.947876 
	C509.417145,371.166534 508.652893,376.524658 511.414337,381.889648 
	C513.694763,386.319977 519.020630,388.951263 524.337646,387.903229 
	C526.513428,387.474396 528.540405,386.290466 530.435425,385.530182 
	C532.819519,390.127441 536.536743,387.139954 539.466125,387.851868 
	C539.787231,387.435028 540.108337,387.018158 540.429504,386.601318 
	C539.144714,385.326630 537.859924,384.051971 535.816650,382.024750 
	C535.816650,372.911591 535.816650,362.663940 535.816650,352.214783 
	C532.458618,352.214783 529.529785,352.214783 526.603821,352.214783 
	C524.414917,357.191589 529.301941,355.278442 530.586060,356.484772 
	C530.586060,359.720337 530.586060,362.729462 530.586060,366.944916 
	C525.887207,361.742981 521.125061,362.580963 515.696411,364.856628 
M207.943665,372.456665 
	C209.954865,374.331360 212.511246,375.924591 213.698700,378.224579 
	C214.149597,379.097900 211.803101,382.142365 210.110611,383.238007 
	C206.974747,385.268127 204.061783,383.616272 201.769867,381.196289 
	C200.665421,380.030212 200.096268,378.368805 199.042389,377.139404 
	C198.203430,376.160767 196.996689,375.497375 195.224533,374.132996 
	C195.224533,379.718994 195.224533,383.666077 195.224533,388.703796 
	C197.249313,387.525787 198.631973,386.721344 200.316422,385.741333 
	C200.671463,385.911743 201.557327,386.345856 202.450592,386.764160 
	C209.087082,389.872223 215.891556,387.471558 218.373962,381.149170 
	C220.690338,375.249603 217.457718,369.560425 210.416458,367.205902 
	C207.633087,366.275177 204.752640,365.593689 202.048035,364.479218 
	C198.951874,363.203430 198.534973,360.895844 200.421844,358.205658 
	C203.109558,354.373688 210.150681,355.720428 212.775940,360.387146 
	C213.439438,361.566589 214.846909,362.327515 216.783768,364.060211 
	C216.783768,358.948151 216.783768,355.663788 216.783768,352.748749 
	C213.057800,352.487457 209.598831,352.209839 206.135376,352.010010 
	C200.623398,351.691895 196.038925,354.303894 195.053421,358.264954 
	C193.544708,364.329010 195.242523,367.475281 201.676010,370.238953 
	C203.469711,371.009460 205.387253,371.491730 207.943665,372.456665 
M313.778656,367.061432 
	C312.503204,371.906891 311.227722,376.752350 309.952271,381.597839 
	C308.642059,375.452881 302.112579,370.347839 307.334869,363.288513 
	C302.818756,363.288513 299.062531,363.288513 294.443329,363.288513 
	C295.237213,364.871704 295.576080,366.026642 296.287994,366.864624 
	C297.649658,368.467407 299.741089,369.641724 300.602448,371.438446 
	C302.436127,375.263214 303.651520,379.381958 305.166016,383.362854 
	C307.727905,390.096771 305.942474,393.848450 298.825104,395.913727 
	C300.246033,401.659943 304.661804,397.768494 307.056000,398.885040 
	C313.239441,387.232758 314.445099,373.882202 323.737549,363.231262 
	C318.647064,363.231262 315.032654,363.231262 309.897614,363.231262 
	C311.411682,365.064453 312.208557,366.029327 313.778656,367.061432 
M377.000000,379.294495 
	C377.000000,377.963348 377.000000,376.632233 377.000000,375.301086 
	C377.000000,362.162598 374.875610,360.712952 362.564056,365.463959 
	C360.951263,361.325104 357.415161,363.429291 354.668091,363.149231 
	C354.199280,363.101471 353.595886,364.374054 353.054688,365.036652 
	C354.620605,366.064178 356.186523,367.091675 357.808167,368.155792 
	C357.808167,373.101868 357.808167,378.228638 357.808167,383.433685 
	C357.223907,383.641541 356.729126,383.716278 356.355316,383.969543 
	C355.232422,384.730286 354.156708,385.560669 353.062592,386.363922 
	C354.234680,386.908844 355.380859,387.843842 356.583832,387.923737 
	C359.865936,388.141693 363.171997,387.998688 366.468567,387.998688 
	C366.765930,387.456604 367.063324,386.914520 367.360687,386.372437 
	C365.745056,385.213593 364.129425,384.054749 362.002319,382.529022 
	C362.002319,379.759949 362.041840,376.283478 361.992615,372.808228 
	C361.925934,368.098175 365.924225,367.674866 368.821381,367.196503 
	C372.746155,366.548462 371.942047,370.097809 371.976685,372.435272 
	C372.052124,377.527435 371.999969,382.621460 371.999969,387.753784 
	C375.322876,387.753784 377.927979,387.753784 381.559662,387.753784 
	C380.608856,386.108246 380.032532,385.065338 379.412445,384.049103 
	C378.626984,382.761902 377.805969,381.496368 377.000000,379.294495 
M729.586060,383.996490 
	C728.653870,384.973907 727.721741,385.951324 726.051819,387.702362 
	C732.152649,387.702362 736.421631,387.702362 740.690674,387.702362 
	C740.937134,387.217224 741.183594,386.732117 741.430054,386.246979 
	C739.716248,385.092499 738.002502,383.937988 736.004761,382.592194 
	C736.004761,379.523376 735.932373,376.029175 736.022644,372.539154 
	C736.141785,367.931396 740.157471,367.617767 743.088318,367.198853 
	C746.654175,366.689117 745.951355,370.011932 745.979309,372.208435 
	C746.044312,377.318604 746.000000,382.430145 746.000000,387.666992 
	C749.293457,387.666992 752.015320,387.666992 755.306091,387.666992 
	C754.807434,386.200378 754.491516,384.330322 754.118713,384.318939 
	C749.999878,384.192932 751.119629,381.214050 751.013123,378.935852 
	C750.943298,377.441315 751.000000,375.940857 751.000000,374.443054 
	C751.000000,362.422241 748.506775,360.772614 737.178223,365.284821 
	C736.914429,365.389893 736.593567,365.351593 736.522217,365.358521 
	C734.148438,360.900085 730.457886,363.835358 727.518250,363.164124 
	C727.221191,363.674866 726.924072,364.185638 726.626953,364.696411 
	C728.287720,365.840363 729.948486,366.984344 732.000000,368.397491 
	C732.000000,371.679962 732.144409,375.504272 731.930481,379.308441 
	C731.842285,380.876984 730.983948,382.402222 729.586060,383.996490 
M546.801208,383.422455 
	C548.794922,388.870453 550.876587,389.184357 560.554443,385.552673 
	C562.619263,390.352631 566.496399,386.974915 569.360352,387.935272 
	C569.688782,387.499664 570.017151,387.064087 570.345581,386.628479 
	C568.970703,385.307678 567.595764,383.986847 566.000000,382.453827 
	C566.000000,379.654907 566.000000,376.498444 566.000000,373.342010 
	C566.000000,370.059662 566.000000,366.777344 566.000000,363.305908 
	C562.741455,363.305908 560.016418,363.305908 556.129211,363.305908 
	C557.376709,365.030273 558.051941,366.032349 558.799744,366.977081 
	C559.489075,367.847931 560.814636,368.611023 560.888306,369.501923 
	C561.147644,372.638733 561.257263,375.839050 560.920715,378.961029 
	C560.501587,382.849335 557.433411,383.864655 554.102722,383.947052 
	C550.479370,384.036713 551.021545,381.232605 551.009094,378.959900 
	C550.980347,373.708160 551.000000,368.456146 551.000000,363.268250 
	C547.952576,363.268250 545.674561,363.268250 543.144897,363.268250 
	C543.144897,364.332306 542.869324,365.685852 543.186462,365.843018 
	C547.565552,368.012634 545.665161,371.979401 545.974487,375.266205 
	C546.206787,377.735229 546.205566,380.226257 546.801208,383.422455 
M706.000000,368.628174 
	C706.000000,366.863708 706.000000,365.099213 706.000000,363.226013 
	C703.059021,363.226013 700.790405,363.226013 698.236206,363.226013 
	C698.236206,364.372955 697.981079,366.040192 698.274658,366.143219 
	C702.321472,367.562927 700.787598,370.927795 700.966125,373.613159 
	C701.131104,376.094269 700.806335,378.615204 701.057495,381.081879 
	C701.673279,387.129028 705.881653,389.513275 711.493896,387.159546 
	C712.857300,386.587738 714.214600,386.001282 715.480957,385.461548 
	C717.593445,390.251953 721.447021,387.025238 725.299561,388.252045 
	C724.717773,386.336487 724.421692,384.328033 724.055908,384.315247 
	C719.867676,384.169037 721.074646,381.106873 721.032104,378.886292 
	C720.931946,373.652069 721.000000,368.414612 721.000000,363.284821 
	C717.563477,363.284821 714.956848,363.284821 712.350159,363.284821 
	C712.070129,363.686615 711.790100,364.088440 711.510071,364.490234 
	C712.858398,365.747620 714.206665,367.005035 715.996155,368.673859 
	C715.996155,371.419250 716.082153,374.903931 715.974426,378.382599 
	C715.839722,382.730164 712.669922,383.785858 709.194397,383.930603 
	C705.194763,384.097168 706.083923,380.902283 706.019775,378.558746 
	C705.938049,375.570862 706.000000,372.579010 706.000000,368.628174 
M631.076538,374.085266 
	C629.146667,373.721802 627.063782,373.692078 625.331543,372.897644 
	C623.713684,372.155670 622.468140,370.601898 621.058655,369.405487 
	C622.953064,368.623566 624.838013,367.288422 626.745117,367.255951 
	C627.997253,367.234619 629.234680,369.161621 630.565491,370.091919 
	C631.723145,370.901123 633.002563,371.536041 634.739624,372.545044 
	C634.739624,368.581543 634.739624,365.969849 634.739624,363.013428 
	C630.966614,363.013428 627.424255,362.776947 623.927551,363.075256 
	C619.859741,363.422272 616.179016,365.226807 616.178223,369.789032 
	C616.177551,373.614685 618.374390,376.605469 622.792419,377.089905 
	C624.242920,377.248962 625.818176,377.469299 627.043518,378.172241 
	C628.504028,379.010132 629.649719,380.396942 630.931824,381.545990 
	C629.145630,382.353912 627.314026,383.872894 625.586304,383.762634 
	C623.972534,383.659668 622.513123,381.754700 620.903381,380.778656 
	C619.589661,379.982086 618.154358,379.385956 616.181274,378.407623 
	C616.181274,382.222504 616.181274,384.842926 616.181274,387.366272 
	C620.465881,387.581665 624.714478,388.536957 628.601868,387.736938 
	C631.315186,387.178589 634.500488,384.694244 635.730408,382.207367 
	C637.294922,379.043671 635.666809,375.753601 631.076538,374.085266 
M233.058197,387.930542 
	C234.554047,387.951935 236.058273,388.085968 237.544296,387.975372 
	C244.178192,387.481720 250.220978,379.823273 248.841949,373.729919 
	C247.285233,366.851593 242.298035,362.850250 235.469345,363.000763 
	C229.380630,363.134949 223.751694,367.566467 223.020035,372.801819 
	C222.019470,379.961121 225.216354,385.102722 233.058197,387.930542 
M388.582886,385.067871 
	C394.623322,389.617981 402.730927,388.860962 407.129089,383.336212 
	C411.106537,378.339966 410.521393,370.596161 405.845795,366.353058 
	C400.837708,361.808197 391.860138,361.863678 387.346680,366.467346 
	C382.453064,371.458862 382.741669,379.072388 388.582886,385.067871 
M669.912109,368.616119 
	C666.157410,375.418365 667.702637,382.254822 673.920105,386.348694 
	C679.091187,389.753540 688.244263,387.866180 691.673096,382.688049 
	C695.201294,377.359863 694.071289,369.531738 689.230896,365.769592 
	C683.293518,361.154846 675.414185,362.100494 669.912109,368.616119 
M493.543091,363.000610 
	C484.677338,363.854980 480.498901,368.589539 481.001770,377.211212 
	C481.347107,383.132660 487.320007,388.044586 494.140900,387.997528 
	C501.700958,387.945374 506.486328,382.516418 506.922150,375.618378 
	C507.346466,368.903259 501.890991,363.674805 493.543091,363.000610 
M658.505615,388.000000 
	C660.477600,388.000000 662.449524,388.000000 664.421509,388.000000 
	C664.723938,387.552704 665.026306,387.105438 665.328735,386.658142 
	C663.968323,385.327148 662.607910,383.996124 661.114441,382.534943 
	C661.114441,377.843048 661.114441,372.857422 661.114441,367.871765 
	C661.579773,367.996155 662.045166,368.120544 662.510498,368.244904 
	C663.064758,366.561310 663.618958,364.877716 664.173218,363.194122 
	C658.566711,362.588623 661.680969,358.862091 661.286011,356.135040 
	C663.891541,356.764679 666.091858,357.296387 668.926086,357.981262 
	C667.686401,352.926880 664.984009,351.574402 661.552551,352.093536 
	C655.457031,353.015747 656.063538,358.129700 655.876770,361.447235 
	C654.150940,363.048584 653.103882,364.020081 652.056885,364.991577 
	C653.242371,366.050293 654.427856,367.109009 656.000000,368.513092 
	C656.000000,371.101593 656.106384,374.265717 655.968201,377.419128 
	C655.845398,380.223419 657.455139,383.967255 652.523132,384.622803 
	C652.292419,384.653473 652.311646,386.564575 652.176941,388.000000 
	C654.291870,388.000000 655.934387,388.000000 658.505615,388.000000 
M594.686890,371.929352 
	C595.271362,369.116089 595.855774,366.302856 596.510742,363.150055 
	C593.411133,363.413025 591.217529,364.165710 589.373047,363.655670 
	C582.114868,361.648682 576.410706,364.070770 573.707947,370.751770 
	C571.299744,376.704376 574.023499,384.127441 579.588501,386.778076 
	C586.016235,389.839630 592.877502,387.539948 596.438171,381.130646 
	C593.702637,377.851044 592.095642,380.483765 590.208191,382.242737 
	C587.216675,385.030548 582.478027,384.515900 579.758606,381.214874 
	C577.020081,377.890686 577.402588,371.818451 580.528442,368.994354 
	C583.803101,366.035797 588.036926,366.399261 590.963135,369.759888 
	C591.745117,370.657959 592.885254,371.244171 594.686890,371.929352 
M462.996613,381.178070 
	C462.204163,382.116821 461.441467,383.082947 460.611237,383.987000 
	C459.700623,384.978546 458.727783,385.912994 456.940552,387.725891 
	C463.434357,387.725891 468.026672,387.725891 472.618988,387.725891 
	C472.881073,387.247375 473.143188,386.768829 473.405304,386.290314 
	C471.725586,385.146118 470.045837,384.001923 468.176941,382.728882 
	C467.318970,368.850952 467.464874,368.593414 478.119751,366.246155 
	C477.804047,365.218506 477.340668,363.300842 477.203644,363.323883 
	C473.823090,363.892487 470.477112,364.666718 467.190247,365.389893 
	C465.952576,360.382446 461.571991,363.924530 458.567993,363.156250 
	C458.251312,363.664734 457.934662,364.173248 457.617981,364.681732 
	C459.273926,365.826202 460.929871,366.970642 462.999634,368.401123 
	C462.999634,371.972076 462.999634,376.110016 462.996613,381.178070 
M265.936890,386.523834 
	C264.467010,385.250183 262.997131,383.976562 261.148102,382.374420 
	C260.347015,368.817047 260.431610,368.668182 271.144623,366.222534 
	C270.805817,365.186615 270.325775,363.291565 270.173981,363.317535 
	C266.790894,363.895630 263.443970,364.685486 260.209717,365.408478 
	C258.860809,360.525238 254.567657,363.839661 251.530228,363.188568 
	C251.224625,363.694214 250.919022,364.199860 250.613419,364.705536 
	C252.282639,365.847961 253.951859,366.990387 255.705383,368.190521 
	C255.705383,373.137848 255.705383,378.392395 255.705383,382.338867 
	C253.481125,384.166107 252.065674,385.328949 250.650208,386.491760 
	C250.951172,387.064758 251.252136,387.637756 251.553101,388.210754 
	C256.278046,387.935699 261.002991,387.660645 265.936890,386.523834 
M282.247345,366.362427 
	C281.103485,359.756958 276.420135,364.275940 273.538177,363.133209 
	C273.225464,363.657867 272.912781,364.182495 272.600067,364.707153 
	C274.280457,365.854462 275.960846,367.001801 277.690125,368.182526 
	C277.690125,373.168854 277.690125,378.432312 277.690125,382.300629 
	C275.445923,384.193481 274.059631,385.362732 272.673309,386.532013 
	C272.975891,386.951385 273.278442,387.370789 273.581024,387.790161 
	C278.180817,387.790161 282.780640,387.790161 287.363892,387.790161 
	C287.676605,384.388031 287.676605,384.388031 283.000000,383.225464 
	C283.000000,380.850891 282.994202,378.377289 283.001099,375.903778 
	C283.020416,368.985382 283.695435,368.322388 290.665466,366.884674 
	C291.713959,366.668396 292.480865,365.087189 293.378021,364.137360 
	C292.837341,363.462463 292.296692,362.787537 291.756042,362.112610 
	C288.832855,363.518066 285.909668,364.923492 282.247345,366.362427 
M605.416321,357.072113 
	C603.656494,359.363037 601.762939,361.570221 600.236755,364.007385 
	C599.882202,364.573517 600.706726,365.954681 601.117798,366.905029 
	C601.680542,368.205994 602.799988,369.416290 602.913208,370.731537 
	C603.182312,373.856689 602.991882,377.020752 603.001648,380.169037 
	C603.023315,387.146851 604.677979,388.558472 613.098145,387.234741 
	C611.147339,385.316284 609.862183,384.052460 608.126221,382.345337 
	C608.126221,378.055267 608.126221,372.945160 608.126221,367.382294 
	C610.138855,366.864014 614.679749,365.659027 610.941284,363.610016 
	C607.482117,361.714111 608.436707,359.792664 607.914978,357.543152 
	C607.809387,357.087830 606.636169,356.880066 605.416321,357.072113 
M617.553894,264.012024 
	C620.115662,268.088470 624.408691,268.123901 627.668213,266.519897 
	C630.353271,265.198547 632.858704,261.868134 633.748047,258.917053 
	C635.173584,254.186737 632.502319,250.425354 627.717651,248.214462 
	C624.419922,246.690643 618.805542,248.187012 616.347046,252.005905 
	C613.960571,255.713196 613.867249,259.827057 617.553894,264.012024 
M807.596375,352.049072 
	C807.107971,352.408295 806.182678,352.783569 806.195190,353.124390 
	C806.490356,361.153015 806.865845,369.179199 807.348450,377.198486 
	C807.365784,377.487030 808.620789,377.701080 810.014587,378.212311 
	C810.354858,370.035217 810.757812,362.366760 810.878723,354.693878 
	C810.892639,353.814087 809.331299,352.909485 807.596375,352.049072 
M330.865662,390.439178 
	C329.857697,391.666656 328.849731,392.894135 327.024933,395.116333 
	C334.832825,393.579498 336.413269,389.955536 334.205658,382.281158 
	C332.260864,382.281158 330.341644,382.281158 328.332489,382.281158 
	C327.853638,385.302917 327.050903,388.166718 331.443695,388.302063 
	C331.315399,388.773285 331.187103,389.244507 330.865662,390.439178 
M809.381714,382.005981 
	C807.977417,382.109314 806.573059,382.212616 804.963379,382.331055 
	C805.067932,384.401703 805.147888,385.986206 805.232666,387.666382 
	C807.600464,387.666382 809.630127,387.666382 812.809082,387.666382 
	C811.762451,385.342743 811.017578,383.689056 809.381714,382.005981 
M405.483154,322.495880 
	C405.483154,322.495880 405.515839,322.475555 405.483154,322.495880 
z"/>
<path fill="#979392" opacity="1.000000" stroke="none" 
	d="
M451.150208,126.173996 
	C455.030396,95.732254 485.737000,76.537750 516.557129,81.925522 
	C536.555115,85.421432 550.856628,96.182518 558.910278,114.909294 
	C560.009521,117.465256 560.383240,120.333221 561.047729,123.883209 
	C561.012512,126.091026 561.022339,127.472397 560.562439,128.870178 
	C555.081787,128.822464 550.070740,128.758347 545.029785,128.476349 
	C544.999878,128.258499 544.861084,127.839676 544.874634,127.453674 
	C544.743835,126.093971 544.728577,125.079506 544.435913,124.152626 
	C539.171448,107.478180 518.852905,95.962990 500.569824,99.360023 
	C484.569611,102.332886 473.467072,111.002335 468.637634,127.196548 
	C468.269012,127.815346 468.114532,128.294174 467.497711,128.821808 
	C461.722656,128.868988 456.409943,128.867386 451.089355,128.528381 
	C451.104401,127.518639 451.127289,126.846321 451.150208,126.173996 
z"/>
<path fill="#FEFEFE" opacity="1.000000" stroke="none" 
	d="
M617.142029,311.998535 
	C617.633301,312.023773 618.143311,311.972015 618.613098,312.085907 
	C625.337708,313.716003 625.336426,313.721344 623.851624,320.909271 
	C622.097717,320.909271 620.308411,320.909271 618.185791,320.476807 
	C617.699829,318.731781 617.547180,317.419159 617.455688,316.632629 
	C614.220032,317.183105 611.749207,317.967987 609.277527,317.970734 
	C544.753357,318.042053 480.229126,318.027863 415.704895,318.054138 
	C413.391388,318.055054 411.078003,318.317444 408.385712,318.390442 
	C406.994568,318.461060 405.982269,318.599243 404.868286,318.300842 
	C405.104797,315.896698 405.442932,313.929138 406.088715,311.963470 
	C412.464752,311.259521 418.533173,310.553711 424.601562,309.847900 
	C424.608490,309.521149 424.615417,309.194366 424.622345,308.867615 
	C421.413086,307.950989 418.203827,307.034363 415.047943,305.746277 
	C416.767487,304.759705 418.396515,303.798462 420.108948,303.614899 
	C422.375732,303.371887 424.737061,304.019592 427.005890,303.784363 
	C432.231812,303.242523 433.579132,304.200134 434.012939,309.321564 
	C434.106262,310.423096 434.356079,311.511414 434.561981,312.779205 
	C436.315186,312.861633 437.786469,312.990967 439.257721,312.991241 
	C493.499542,313.001587 547.741333,313.000519 601.983154,312.996460 
	C603.146606,312.996368 604.611511,313.375580 605.407166,312.820374 
	C606.817139,311.836487 608.144043,310.428284 608.892761,308.897797 
	C609.501587,307.653107 609.213501,305.969696 609.707764,304.534912 
	C611.784912,307.841736 613.477478,311.094513 615.463989,314.912292 
	C616.138733,313.740692 616.640381,312.869629 617.142029,311.998535 
z"/>
<path fill="#FEFEFE" opacity="1.000000" stroke="none" 
	d="
M385.241943,193.692169 
	C385.811554,191.110306 386.114685,188.420761 387.091522,186.003464 
	C387.446198,185.125793 390.319733,184.226151 390.503235,184.474594 
	C393.437256,188.446777 401.670227,179.291748 402.164734,189.185654 
	C402.212555,190.142426 404.261292,191.926697 404.873871,191.731857 
	C406.095215,191.343414 407.225525,189.988297 407.892120,188.760315 
	C408.388245,187.846436 408.095154,186.504135 408.277069,184.921539 
	C408.400604,184.490433 408.322357,184.553085 408.322357,184.553085 
	C408.767883,177.135910 409.505249,169.720551 409.551270,162.300888 
	C409.579651,157.729477 408.212463,153.159241 408.108429,148.574036 
	C408.026123,144.946838 408.779083,141.271301 409.484863,137.680878 
	C409.623016,136.978149 411.205658,136.474854 412.193512,136.042984 
	C413.785980,135.346741 415.437805,134.786316 417.446960,134.495514 
	C416.511475,143.901474 415.193604,152.980438 413.632629,162.292114 
	C411.495392,167.709335 416.698395,164.043671 417.500427,165.623947 
	C417.321930,167.785660 416.975739,169.740311 417.031647,171.683365 
	C417.292236,180.733063 418.026794,189.787018 417.840515,198.823975 
	C417.749573,203.235779 415.440765,207.579971 415.180786,212.015991 
	C414.890686,216.966019 412.633240,218.415955 408.256287,217.603149 
	C409.927856,205.166046 411.583374,193.128342 413.238861,181.090622 
	C412.720581,181.026932 412.202271,180.963242 411.683990,180.899551 
	C411.500244,181.344223 411.207916,181.774887 411.148590,182.235596 
	C409.459991,195.345001 407.766968,208.454117 406.210144,221.579346 
	C406.134369,222.217957 407.286316,223.002182 408.074890,224.049698 
	C408.783936,226.329315 409.775665,228.301620 409.682678,230.221405 
	C409.492065,234.156769 408.205780,238.076721 408.302826,241.979858 
	C408.463348,248.439011 409.371155,254.878967 409.926727,261.330231 
	C409.966827,261.795990 409.600861,262.287445 409.598785,262.767761 
	C409.590393,264.703003 410.124054,266.797119 409.544617,268.526764 
	C409.027252,270.071289 407.534637,271.735626 406.052582,272.376770 
	C404.738983,272.945007 402.848022,272.178497 401.228424,271.604614 
	C402.520721,261.491028 403.796478,251.774017 405.072235,242.057022 
	C404.578766,242.004257 404.085327,241.951492 403.591858,241.898712 
	C403.189880,244.297836 402.787903,246.696945 402.385925,249.096069 
	C398.679138,245.313965 400.010986,240.102158 400.512207,236.246872 
	C401.433624,229.159119 400.481323,222.816544 398.273804,215.830414 
	C405.128571,209.732300 406.463104,204.153442 402.649994,197.919281 
	C398.922119,191.824417 393.155304,190.424088 385.241943,193.692169 
z"/>
<path fill="#9FB1BA" opacity="1.000000" stroke="none" 
	d="
M617.069702,311.574158 
	C616.640381,312.869629 616.138733,313.740692 615.463989,314.912292 
	C613.477478,311.094513 611.784912,307.841736 609.742798,304.246521 
	C609.301392,303.103088 609.209534,302.302155 609.385864,301.319580 
	C609.800964,300.746796 609.947815,300.355652 610.093628,299.636505 
	C609.838074,298.494385 609.583557,297.680237 609.250244,296.478943 
	C601.789795,270.363281 594.385925,244.641083 587.065796,218.895050 
	C586.440247,216.694733 586.372131,214.335907 586.252258,212.337433 
	C586.994263,213.593994 587.732605,214.505371 588.030579,215.543213 
	C589.944946,222.210571 591.634277,228.944550 593.642639,235.582489 
	C596.622681,245.431595 599.956787,255.174911 602.857483,265.046326 
	C605.373291,273.608124 607.453125,282.297333 609.842957,290.897644 
	C610.170959,292.078125 611.176880,293.070221 611.965820,294.297546 
	C612.188232,294.480377 612.313721,294.515228 612.439209,294.550049 
	C612.342041,294.323547 612.244873,294.097046 612.144531,293.427490 
	C612.067322,287.914703 612.458191,282.785767 611.821777,277.787628 
	C610.518250,267.549469 608.488098,257.405548 607.085754,247.177750 
	C605.738586,237.351944 604.927124,227.453674 603.659607,217.615677 
	C602.266724,206.804855 600.448181,196.047699 599.128296,185.228958 
	C597.226807,169.642975 595.632080,154.019745 593.847778,138.419128 
	C593.497375,135.355545 592.880615,132.322418 592.408875,129.412262 
	C582.528870,129.412262 573.005310,129.412262 563.011292,129.412262 
	C565.992615,138.821091 568.925415,147.684845 571.607056,156.623962 
	C576.719849,173.667160 581.725586,190.742889 586.642822,207.843338 
	C586.999390,209.083252 586.280945,210.632309 585.921448,211.706635 
	C583.306824,204.186050 580.833069,196.996445 578.311218,189.442902 
	C578.092896,188.365356 577.922729,187.651779 577.774048,186.575989 
	C576.493408,181.970917 575.292664,177.693451 573.860474,173.494919 
	C572.413452,169.252975 570.736938,165.089279 569.194031,160.873230 
	C569.227112,160.855148 569.227783,160.779770 569.305176,160.378510 
	C566.661682,150.511490 563.940735,141.045731 561.253540,131.237946 
	C561.202148,130.215210 561.117188,129.534485 561.032166,128.853760 
	C561.022339,127.472397 561.012512,126.091026 561.050476,124.296310 
	C562.849915,126.624550 565.276672,127.374397 568.537476,127.248825 
	C575.678406,126.973808 582.841980,127.322121 589.987244,127.110466 
	C593.224060,127.014572 594.269958,128.298721 594.755432,131.310822 
	C595.136108,133.672958 596.630249,135.835327 597.352295,138.172134 
	C597.669495,139.198471 597.320557,140.439774 597.233215,141.580353 
	C596.907043,145.842590 595.011475,150.319183 599.130188,153.959351 
	C599.481140,154.269531 599.031860,155.454788 598.999023,156.235382 
	C598.895020,158.711273 598.503235,161.222397 598.774231,163.658554 
	C600.013733,174.799408 600.571411,186.126221 603.149475,196.963867 
	C604.543884,202.825500 603.696106,208.644958 605.050537,214.170319 
	C608.571533,228.534973 606.953674,243.491486 610.636108,257.774872 
	C611.434631,260.872101 613.189270,263.820374 613.472778,266.931244 
	C613.962036,272.299774 612.584106,278.015076 613.893799,283.093842 
	C616.289795,292.385345 614.597107,301.971100 617.069702,311.574158 
M612.483215,300.103546 
	C612.791077,301.126068 613.098999,302.148590 613.406860,303.171112 
	C613.653076,303.120422 613.899292,303.069763 614.145569,303.019073 
	C613.858521,301.200226 613.571533,299.381378 613.284485,297.562531 
	C612.932373,297.601654 612.580261,297.640778 612.228149,297.679901 
	C612.228149,298.270386 612.228149,298.860901 612.483215,300.103546 
M611.299866,263.560394 
	C611.636475,263.985870 611.973083,264.411316 612.309692,264.836792 
	C612.511963,264.612152 612.915466,264.224640 612.885681,264.187805 
	C612.544983,263.766785 612.138245,263.399170 611.299866,263.560394 
z"/>
<path fill="#959190" opacity="1.000000" stroke="none" 
	d="
M430.000000,374.110016 
	C429.646301,370.875732 431.532013,367.075745 426.560974,366.415588 
	C426.301361,366.381134 426.292847,364.456299 426.105103,362.892334 
	C429.582550,363.917053 433.406464,360.848419 435.505737,365.431885 
	C444.823547,360.828430 449.571533,363.323914 453.157837,367.730103 
	C456.174713,371.436737 456.486023,379.221802 453.453217,382.898529 
	C448.330780,389.108612 442.056030,389.496674 435.131348,385.089661 
	C435.131348,388.502655 435.131348,391.309784 435.131348,393.708466 
	C437.035278,395.006592 438.717957,396.153870 440.400665,397.301147 
	C440.132172,397.778564 439.863678,398.256012 439.595215,398.733429 
	C435.324646,398.733429 431.054077,398.733429 426.078674,398.733429 
	C426.320129,397.483490 426.486267,395.406250 426.759338,395.392120 
	C431.094238,395.167480 429.936859,391.988068 429.975708,389.578491 
	C430.056213,384.585052 430.000000,379.589417 430.000000,374.110016 
M449.571869,379.898376 
	C449.860413,378.622711 450.197906,377.355835 450.428162,376.069733 
	C451.077789,372.441223 447.597809,367.409332 444.067169,367.033600 
	C439.724579,366.571381 436.454163,368.484619 435.320251,372.614258 
	C434.223816,376.607178 434.708374,380.722870 438.954468,382.921387 
	C442.835693,384.931000 446.539978,384.784882 449.571869,379.898376 
z"/>
<path fill="#959190" opacity="1.000000" stroke="none" 
	d="
M767.517944,387.963379 
	C756.302979,382.825470 754.440002,373.233734 762.788696,365.714386 
	C766.822144,362.081635 771.629272,362.083679 778.566284,365.963440 
	C778.566284,362.753967 778.566284,359.750336 778.566284,357.188141 
	C776.858337,355.949310 775.262085,354.791504 773.665894,353.633698 
	C773.964050,353.161652 774.262146,352.689575 774.560242,352.217529 
	C777.490601,352.217529 780.420959,352.217529 783.783264,352.217529 
	C783.783264,362.620392 783.783264,372.863831 783.783264,382.046600 
	C785.827759,384.016571 787.143982,385.284790 788.460144,386.552979 
	C788.125122,387.134094 787.790100,387.715179 787.455017,388.296265 
	C784.353027,387.866486 781.251038,387.436676 778.149048,387.006866 
	C778.248291,386.760345 778.347595,386.513824 778.446838,386.267303 
	C774.941467,386.841217 771.436157,387.415100 767.517944,387.963379 
M768.993469,367.075806 
	C762.324951,370.487671 760.596985,379.058167 766.230835,382.382385 
	C768.354065,383.635223 772.179749,383.873016 774.326355,382.787598 
	C777.741394,381.060791 779.866943,377.381927 778.543701,373.245941 
	C777.264038,369.246063 774.547607,366.501373 768.993469,367.075806 
z"/>
<path fill="#959190" opacity="1.000000" stroke="none" 
	d="
M515.984619,364.591614 
	C521.125061,362.580963 525.887207,361.742981 530.586060,366.944916 
	C530.586060,362.729462 530.586060,359.720337 530.586060,356.484772 
	C529.301941,355.278442 524.414917,357.191589 526.603821,352.214783 
	C529.529785,352.214783 532.458618,352.214783 535.816650,352.214783 
	C535.816650,362.663940 535.816650,372.911591 535.816650,382.024750 
	C537.859924,384.051971 539.144714,385.326630 540.429504,386.601318 
	C540.108337,387.018158 539.787231,387.435028 539.466125,387.851868 
	C536.536743,387.139954 532.819519,390.127441 530.435425,385.530182 
	C528.540405,386.290466 526.513428,387.474396 524.337646,387.903229 
	C519.020630,388.951263 513.694763,386.319977 511.414337,381.889648 
	C508.652893,376.524658 509.417145,371.166534 513.555481,366.947876 
	C514.253906,366.235870 514.981995,365.552979 515.984619,364.591614 
M515.306396,378.718384 
	C517.945740,383.191132 521.878479,385.180725 525.352966,383.800964 
	C528.471008,382.562744 531.621887,376.617981 530.779663,373.562469 
	C529.601990,369.290039 525.635559,366.441803 521.672363,367.022736 
	C517.306030,367.662750 515.025513,370.882446 515.006653,376.445099 
	C515.004944,376.941772 515.046204,377.438568 515.306396,378.718384 
z"/>
<path fill="#959190" opacity="1.000000" stroke="none" 
	d="
M207.595825,372.281433 
	C205.387253,371.491730 203.469711,371.009460 201.676010,370.238953 
	C195.242523,367.475281 193.544708,364.329010 195.053421,358.264954 
	C196.038925,354.303894 200.623398,351.691895 206.135376,352.010010 
	C209.598831,352.209839 213.057800,352.487457 216.783768,352.748749 
	C216.783768,355.663788 216.783768,358.948151 216.783768,364.060211 
	C214.846909,362.327515 213.439438,361.566589 212.775940,360.387146 
	C210.150681,355.720428 203.109558,354.373688 200.421844,358.205658 
	C198.534973,360.895844 198.951874,363.203430 202.048035,364.479218 
	C204.752640,365.593689 207.633087,366.275177 210.416458,367.205902 
	C217.457718,369.560425 220.690338,375.249603 218.373962,381.149170 
	C215.891556,387.471558 209.087082,389.872223 202.450592,386.764160 
	C201.557327,386.345856 200.671463,385.911743 200.316422,385.741333 
	C198.631973,386.721344 197.249313,387.525787 195.224533,388.703796 
	C195.224533,383.666077 195.224533,379.718994 195.224533,374.132996 
	C196.996689,375.497375 198.203430,376.160767 199.042389,377.139404 
	C200.096268,378.368805 200.665421,380.030212 201.769867,381.196289 
	C204.061783,383.616272 206.974747,385.268127 210.110611,383.238007 
	C211.803101,382.142365 214.149597,379.097900 213.698700,378.224579 
	C212.511246,375.924591 209.954865,374.331360 207.595825,372.281433 
z"/>
<path fill="#C7C7C7" opacity="1.000000" stroke="none" 
	d="
M408.764557,318.458008 
	C411.078003,318.317444 413.391388,318.055054 415.704895,318.054138 
	C480.229126,318.027863 544.753357,318.042053 609.277527,317.970734 
	C611.749207,317.967987 614.220032,317.183105 617.455688,316.632629 
	C617.547180,317.419159 617.699829,318.731781 617.754517,320.422607 
	C613.682983,320.545319 609.709595,320.071106 605.735718,320.066772 
	C540.425598,319.995575 475.115387,319.983643 409.335999,319.651123 
	C408.838654,319.047943 408.804565,318.752625 408.764557,318.458008 
z"/>
<path fill="#959190" opacity="1.000000" stroke="none" 
	d="
M313.392059,367.027832 
	C312.208557,366.029327 311.411682,365.064453 309.897614,363.231262 
	C315.032654,363.231262 318.647064,363.231262 323.737549,363.231262 
	C314.445099,373.882202 313.239441,387.232758 307.056000,398.885040 
	C304.661804,397.768494 300.246033,401.659943 298.825104,395.913727 
	C305.942474,393.848450 307.727905,390.096771 305.166016,383.362854 
	C303.651520,379.381958 302.436127,375.263214 300.602448,371.438446 
	C299.741089,369.641724 297.649658,368.467407 296.287994,366.864624 
	C295.576080,366.026642 295.237213,364.871704 294.443329,363.288513 
	C299.062531,363.288513 302.818756,363.288513 307.334869,363.288513 
	C302.112579,370.347839 308.642059,375.452881 309.952271,381.597839 
	C311.227722,376.752350 312.503204,371.906891 313.392059,367.027832 
z"/>
<path fill="#959190" opacity="1.000000" stroke="none" 
	d="
M377.000122,379.757996 
	C377.805969,381.496368 378.626984,382.761902 379.412445,384.049103 
	C380.032532,385.065338 380.608856,386.108246 381.559662,387.753784 
	C377.927979,387.753784 375.322876,387.753784 371.999969,387.753784 
	C371.999969,382.621460 372.052124,377.527435 371.976685,372.435272 
	C371.942047,370.097809 372.746155,366.548462 368.821381,367.196503 
	C365.924225,367.674866 361.925934,368.098175 361.992615,372.808228 
	C362.041840,376.283478 362.002319,379.759949 362.002319,382.529022 
	C364.129425,384.054749 365.745056,385.213593 367.360687,386.372437 
	C367.063324,386.914520 366.765930,387.456604 366.468567,387.998688 
	C363.171997,387.998688 359.865936,388.141693 356.583832,387.923737 
	C355.380859,387.843842 354.234680,386.908844 353.062592,386.363922 
	C354.156708,385.560669 355.232422,384.730286 356.355316,383.969543 
	C356.729126,383.716278 357.223907,383.641541 357.808167,383.433685 
	C357.808167,378.228638 357.808167,373.101868 357.808167,368.155792 
	C356.186523,367.091675 354.620605,366.064178 353.054688,365.036652 
	C353.595886,364.374054 354.199280,363.101471 354.668091,363.149231 
	C357.415161,363.429291 360.951263,361.325104 362.565796,365.458282 
	C374.875610,360.712952 377.000000,362.162598 377.000000,375.301086 
	C377.000000,376.632233 377.000000,377.963348 377.000122,379.757996 
z"/>
<path fill="#959190" opacity="1.000000" stroke="none" 
	d="
M730.031006,383.971802 
	C730.983948,382.402222 731.842285,380.876984 731.930481,379.308441 
	C732.144409,375.504272 732.000000,371.679962 732.000000,368.397491 
	C729.948486,366.984344 728.287720,365.840363 726.626953,364.696411 
	C726.924072,364.185638 727.221191,363.674866 727.518250,363.164124 
	C730.457886,363.835358 734.148438,360.900085 736.522217,365.358521 
	C736.593567,365.351593 736.914429,365.389893 737.178223,365.284821 
	C748.506775,360.772614 751.000000,362.422241 751.000000,374.443054 
	C751.000000,375.940857 750.943298,377.441315 751.013123,378.935852 
	C751.119629,381.214050 749.999878,384.192932 754.118713,384.318939 
	C754.491516,384.330322 754.807434,386.200378 755.306091,387.666992 
	C752.015320,387.666992 749.293457,387.666992 746.000000,387.666992 
	C746.000000,382.430145 746.044312,377.318604 745.979309,372.208435 
	C745.951355,370.011932 746.654175,366.689117 743.088318,367.198853 
	C740.157471,367.617767 736.141785,367.931396 736.022644,372.539154 
	C735.932373,376.029175 736.004761,379.523376 736.004761,382.592194 
	C738.002502,383.937988 739.716248,385.092499 741.430054,386.246979 
	C741.183594,386.732117 740.937134,387.217224 740.690674,387.702362 
	C736.421631,387.702362 732.152649,387.702362 726.051819,387.702362 
	C727.721741,385.951324 728.653870,384.973907 730.031006,383.971802 
z"/>
<path fill="#959190" opacity="1.000000" stroke="none" 
	d="
M546.554810,383.064972 
	C546.205566,380.226257 546.206787,377.735229 545.974487,375.266205 
	C545.665161,371.979401 547.565552,368.012634 543.186462,365.843018 
	C542.869324,365.685852 543.144897,364.332306 543.144897,363.268250 
	C545.674561,363.268250 547.952576,363.268250 551.000000,363.268250 
	C551.000000,368.456146 550.980347,373.708160 551.009094,378.959900 
	C551.021545,381.232605 550.479370,384.036713 554.102722,383.947052 
	C557.433411,383.864655 560.501587,382.849335 560.920715,378.961029 
	C561.257263,375.839050 561.147644,372.638733 560.888306,369.501923 
	C560.814636,368.611023 559.489075,367.847931 558.799744,366.977081 
	C558.051941,366.032349 557.376709,365.030273 556.129211,363.305908 
	C560.016418,363.305908 562.741455,363.305908 566.000000,363.305908 
	C566.000000,366.777344 566.000000,370.059662 566.000000,373.342010 
	C566.000000,376.498444 566.000000,379.654907 566.000000,382.453827 
	C567.595764,383.986847 568.970703,385.307678 570.345581,386.628479 
	C570.017151,387.064087 569.688782,387.499664 569.360352,387.935272 
	C566.496399,386.974915 562.619263,390.352631 560.554443,385.552673 
	C550.876587,389.184357 548.794922,388.870453 546.554810,383.064972 
z"/>
<path fill="#959190" opacity="1.000000" stroke="none" 
	d="
M706.000000,369.108521 
	C706.000000,372.579010 705.938049,375.570862 706.019775,378.558746 
	C706.083923,380.902283 705.194763,384.097168 709.194397,383.930603 
	C712.669922,383.785858 715.839722,382.730164 715.974426,378.382599 
	C716.082153,374.903931 715.996155,371.419250 715.996155,368.673859 
	C714.206665,367.005035 712.858398,365.747620 711.510071,364.490234 
	C711.790100,364.088440 712.070129,363.686615 712.350159,363.284821 
	C714.956848,363.284821 717.563477,363.284821 721.000000,363.284821 
	C721.000000,368.414612 720.931946,373.652069 721.032104,378.886292 
	C721.074646,381.106873 719.867676,384.169037 724.055908,384.315247 
	C724.421692,384.328033 724.717773,386.336487 725.299561,388.252045 
	C721.447021,387.025238 717.593445,390.251953 715.480957,385.461548 
	C714.214600,386.001282 712.857300,386.587738 711.493896,387.159546 
	C705.881653,389.513275 701.673279,387.129028 701.057495,381.081879 
	C700.806335,378.615204 701.131104,376.094269 700.966125,373.613159 
	C700.787598,370.927795 702.321472,367.562927 698.274658,366.143219 
	C697.981079,366.040192 698.236206,364.372955 698.236206,363.226013 
	C700.790405,363.226013 703.059021,363.226013 706.000000,363.226013 
	C706.000000,365.099213 706.000000,366.863708 706.000000,369.108521 
z"/>
<path fill="#959190" opacity="1.000000" stroke="none" 
	d="
M631.454956,374.235046 
	C635.666809,375.753601 637.294922,379.043671 635.730408,382.207367 
	C634.500488,384.694244 631.315186,387.178589 628.601868,387.736938 
	C624.714478,388.536957 620.465881,387.581665 616.181274,387.366272 
	C616.181274,384.842926 616.181274,382.222504 616.181274,378.407623 
	C618.154358,379.385956 619.589661,379.982086 620.903381,380.778656 
	C622.513123,381.754700 623.972534,383.659668 625.586304,383.762634 
	C627.314026,383.872894 629.145630,382.353912 630.931824,381.545959 
	C629.649719,380.396942 628.504028,379.010132 627.043518,378.172241 
	C625.818176,377.469299 624.242920,377.248962 622.792419,377.089905 
	C618.374390,376.605469 616.177551,373.614685 616.178223,369.789032 
	C616.179016,365.226807 619.859741,363.422272 623.927551,363.075256 
	C627.424255,362.776947 630.966614,363.013428 634.739624,363.013428 
	C634.739624,365.969849 634.739624,368.581543 634.739624,372.545044 
	C633.002563,371.536041 631.723145,370.901123 630.565491,370.091919 
	C629.234680,369.161621 627.997253,367.234619 626.745117,367.255951 
	C624.838013,367.288422 622.953064,368.623566 621.058655,369.405457 
	C622.468140,370.601898 623.713684,372.155670 625.331543,372.897644 
	C627.063782,373.692078 629.146667,373.721802 631.454956,374.235046 
z"/>
<path fill="#959190" opacity="1.000000" stroke="none" 
	d="
M232.666229,387.808044 
	C225.216354,385.102722 222.019470,379.961121 223.020035,372.801819 
	C223.751694,367.566467 229.380630,363.134949 235.469345,363.000763 
	C242.298035,362.850250 247.285233,366.851593 248.841949,373.729919 
	C250.220978,379.823273 244.178192,387.481720 237.544296,387.975372 
	C236.058273,388.085968 234.554047,387.951935 232.666229,387.808044 
M233.925461,367.084595 
	C232.787247,367.726959 230.957916,368.129822 230.637100,369.055481 
	C229.563919,372.151947 228.014175,375.648407 228.628052,378.576294 
	C229.077011,380.717651 232.528442,383.428314 234.850616,383.645050 
	C237.230804,383.867157 240.646957,381.973450 242.237259,379.935089 
	C246.459610,374.523071 242.420303,367.935852 233.925461,367.084595 
z"/>
<path fill="#959190" opacity="1.000000" stroke="none" 
	d="
M388.307281,384.803040 
	C382.741669,379.072388 382.453064,371.458862 387.346680,366.467346 
	C391.860138,361.863678 400.837708,361.808197 405.845795,366.353058 
	C410.521393,370.596161 411.106537,378.339966 407.129089,383.336212 
	C402.730927,388.860962 394.623322,389.617981 388.307281,384.803040 
M397.267120,367.015289 
	C395.853790,367.343079 394.318146,367.422211 393.050293,368.045807 
	C389.404755,369.838898 388.060822,373.389343 389.221283,376.762085 
	C390.157990,379.484558 392.622253,382.856812 395.074249,383.535004 
	C397.297577,384.149933 401.228027,382.210846 402.981049,380.172455 
	C406.922302,375.589630 404.227966,369.183929 397.267120,367.015289 
z"/>
<path fill="#959190" opacity="1.000000" stroke="none" 
	d="
M670.169189,368.321289 
	C675.414185,362.100494 683.293518,361.154846 689.230896,365.769592 
	C694.071289,369.531738 695.201294,377.359863 691.673096,382.688049 
	C688.244263,387.866180 679.091187,389.753540 673.920105,386.348694 
	C667.702637,382.254822 666.157410,375.418365 670.169189,368.321289 
M679.713318,383.983643 
	C680.968628,383.707703 682.322571,383.645142 683.462036,383.118530 
	C688.115417,380.968109 689.803711,376.766205 687.966736,372.282104 
	C686.508728,368.723083 682.148560,366.259247 678.831238,367.119843 
	C674.609009,368.215179 671.572571,373.133759 673.246704,377.718109 
	C674.135193,380.151031 676.970459,381.872986 679.713318,383.983643 
z"/>
<path fill="#959190" opacity="1.000000" stroke="none" 
	d="
M493.964783,363.000549 
	C501.890991,363.674805 507.346466,368.903259 506.922150,375.618378 
	C506.486328,382.516418 501.700958,387.945374 494.140900,387.997528 
	C487.320007,388.044586 481.347107,383.132660 481.001770,377.211212 
	C480.498901,368.589539 484.677338,363.854980 493.964783,363.000549 
M487.960205,381.430084 
	C488.602386,381.940125 489.193329,382.538574 489.895294,382.945404 
	C493.709839,385.156464 496.874420,383.855438 499.561859,380.905121 
	C502.315308,377.882324 502.853302,374.005463 500.268280,371.171387 
	C498.325958,369.041870 494.674133,367.187225 491.935272,367.379059 
	C488.121979,367.646149 485.748962,370.983887 486.057068,375.206696 
	C486.195953,377.109833 486.942047,378.968597 487.960205,381.430084 
z"/>
<path fill="#72CAF1" opacity="1.000000" stroke="none" 
	d="
M395.956543,303.347595 
	C396.289001,300.813263 396.621460,298.278931 397.248535,295.168335 
	C398.298340,292.888672 399.053558,291.185272 399.808777,289.481873 
	C400.856079,290.627106 400.866180,291.548309 401.045532,292.435242 
	C404.069305,307.389282 399.749329,304.745850 415.566406,308.109161 
	C415.725586,308.143005 415.819580,308.483276 416.226013,309.127533 
	C413.013123,309.431885 409.982666,309.346130 407.194214,310.125854 
	C405.577728,310.577850 403.814697,312.167877 403.086151,313.704834 
	C402.212769,315.547485 402.371185,317.879303 401.904175,320.343353 
	C401.527008,322.470184 401.328430,324.252930 401.092224,326.397766 
	C401.062653,327.485626 401.070740,328.211426 400.851013,329.107483 
	C399.172607,324.670959 397.151642,320.150421 396.437653,315.432098 
	C395.773010,311.039825 393.425262,310.182495 389.813232,310.011627 
	C387.796326,309.916199 385.794739,309.497284 382.998016,309.116943 
	C387.344177,307.572113 390.698853,306.379669 394.053528,305.187225 
	C394.053528,305.187225 394.081329,305.122040 394.401886,305.062195 
	C395.133820,304.450775 395.545197,303.899200 395.956543,303.347595 
z"/>
<path fill="#959190" opacity="1.000000" stroke="none" 
	d="
M658.041260,388.000000 
	C655.934387,388.000000 654.291870,388.000000 652.176941,388.000000 
	C652.311646,386.564575 652.292419,384.653473 652.523132,384.622803 
	C657.455139,383.967255 655.845398,380.223419 655.968201,377.419128 
	C656.106384,374.265717 656.000000,371.101593 656.000000,368.513092 
	C654.427856,367.109009 653.242371,366.050293 652.056885,364.991577 
	C653.103882,364.020081 654.150940,363.048584 655.876770,361.447235 
	C656.063538,358.129700 655.457031,353.015747 661.552551,352.093536 
	C664.984009,351.574402 667.686401,352.926880 668.926086,357.981262 
	C666.091858,357.296387 663.891541,356.764679 661.286011,356.135040 
	C661.680969,358.862091 658.566711,362.588623 664.173218,363.194122 
	C663.618958,364.877716 663.064758,366.561310 662.510498,368.244904 
	C662.045166,368.120544 661.579773,367.996155 661.114441,367.871765 
	C661.114441,372.857422 661.114441,377.843048 661.114441,382.534943 
	C662.607910,383.996124 663.968323,385.327148 665.328735,386.658142 
	C665.026306,387.105438 664.723938,387.552704 664.421509,388.000000 
	C662.449524,388.000000 660.477600,388.000000 658.041260,388.000000 
z"/>
<path fill="#959190" opacity="1.000000" stroke="none" 
	d="
M594.273926,371.951477 
	C592.885254,371.244171 591.745117,370.657959 590.963135,369.759888 
	C588.036926,366.399261 583.803101,366.035797 580.528442,368.994354 
	C577.402588,371.818451 577.020081,377.890686 579.758606,381.214874 
	C582.478027,384.515900 587.216675,385.030548 590.208191,382.242737 
	C592.095642,380.483765 593.702637,377.851044 596.438171,381.130615 
	C592.877502,387.539948 586.016235,389.839630 579.588501,386.778076 
	C574.023499,384.127441 571.299744,376.704376 573.707947,370.751770 
	C576.410706,364.070770 582.114868,361.648682 589.373047,363.655670 
	C591.217529,364.165710 593.411133,363.413025 596.510742,363.150055 
	C595.855774,366.302856 595.271362,369.116089 594.273926,371.951477 
z"/>
<path fill="#959190" opacity="1.000000" stroke="none" 
	d="
M462.998108,380.713013 
	C462.999634,376.110016 462.999634,371.972076 462.999634,368.401123 
	C460.929871,366.970642 459.273926,365.826202 457.617981,364.681732 
	C457.934662,364.173248 458.251312,363.664734 458.567993,363.156250 
	C461.571991,363.924530 465.952576,360.382446 467.190247,365.389893 
	C470.477112,364.666718 473.823090,363.892487 477.203644,363.323883 
	C477.340668,363.300842 477.804047,365.218506 478.119751,366.246155 
	C467.464874,368.593414 467.318970,368.850952 468.176941,382.728882 
	C470.045837,384.001923 471.725586,385.146118 473.405304,386.290314 
	C473.143188,386.768829 472.881073,387.247375 472.618988,387.725891 
	C468.026672,387.725891 463.434357,387.725891 456.940552,387.725891 
	C458.727783,385.912994 459.700623,384.978546 460.611237,383.987000 
	C461.441467,383.082947 462.204163,382.116821 462.998108,380.713013 
z"/>
<path fill="#959190" opacity="1.000000" stroke="none" 
	d="
M265.832397,386.954712 
	C261.002991,387.660645 256.278046,387.935699 251.553101,388.210754 
	C251.252136,387.637756 250.951172,387.064758 250.650208,386.491760 
	C252.065674,385.328949 253.481125,384.166107 255.705383,382.338867 
	C255.705383,378.392395 255.705383,373.137848 255.705383,368.190521 
	C253.951859,366.990387 252.282639,365.847961 250.613419,364.705536 
	C250.919022,364.199860 251.224625,363.694214 251.530228,363.188568 
	C254.567657,363.839661 258.860809,360.525238 260.209717,365.408478 
	C263.443970,364.685486 266.790894,363.895630 270.173981,363.317535 
	C270.325775,363.291565 270.805817,365.186615 271.144623,366.222534 
	C260.431610,368.668182 260.347015,368.817047 261.148102,382.374420 
	C262.997131,383.976562 264.467010,385.250183 265.832397,386.954712 
z"/>
<path fill="#9B9998" opacity="1.000000" stroke="none" 
	d="
M384.988220,193.876526 
	C393.155304,190.424088 398.922119,191.824417 402.649994,197.919281 
	C406.463104,204.153442 405.128571,209.732300 398.244446,215.430725 
	C389.847290,218.046265 384.021698,216.054169 379.557861,209.299835 
	C377.606842,206.347717 380.568024,197.630600 384.988220,193.876526 
M383.916870,198.544205 
	C380.779663,202.772018 381.264130,207.107300 384.406769,210.834412 
	C387.454620,214.449112 391.582214,215.252899 396.097839,213.271194 
	C400.686188,211.257584 402.978485,207.533554 401.759766,202.942596 
	C401.012146,200.126068 398.621399,197.012115 396.091583,195.570160 
	C392.059174,193.271713 387.749329,194.357666 383.916870,198.544205 
z"/>
<path fill="#959190" opacity="1.000000" stroke="none" 
	d="
M282.616913,366.345703 
	C285.909668,364.923492 288.832855,363.518066 291.756042,362.112610 
	C292.296692,362.787537 292.837341,363.462463 293.378021,364.137360 
	C292.480865,365.087189 291.713959,366.668396 290.665466,366.884674 
	C283.695435,368.322388 283.020416,368.985382 283.001099,375.903778 
	C282.994202,378.377289 283.000000,380.850891 283.000000,383.225464 
	C287.676605,384.388031 287.676605,384.388031 287.363892,387.790161 
	C282.780640,387.790161 278.180817,387.790161 273.581024,387.790161 
	C273.278442,387.370789 272.975891,386.951385 272.673309,386.532013 
	C274.059631,385.362732 275.445923,384.193481 277.690125,382.300629 
	C277.690125,378.432312 277.690125,373.168854 277.690125,368.182526 
	C275.960846,367.001801 274.280457,365.854462 272.600067,364.707153 
	C272.912781,364.182495 273.225464,363.657867 273.538177,363.133209 
	C276.420135,364.275940 281.103485,359.756958 282.616913,366.345703 
z"/>
<path fill="#959190" opacity="1.000000" stroke="none" 
	d="
M605.685791,356.815125 
	C606.636169,356.880066 607.809387,357.087830 607.914978,357.543152 
	C608.436707,359.792664 607.482117,361.714111 610.941284,363.610016 
	C614.679749,365.659027 610.138855,366.864014 608.126221,367.382294 
	C608.126221,372.945160 608.126221,378.055267 608.126221,382.345337 
	C609.862183,384.052460 611.147339,385.316284 613.098145,387.234741 
	C604.677979,388.558472 603.023315,387.146851 603.001648,380.169037 
	C602.991882,377.020752 603.182312,373.856689 602.913208,370.731537 
	C602.799988,369.416290 601.680542,368.205994 601.117798,366.905029 
	C600.706726,365.954681 599.882202,364.573517 600.236755,364.007385 
	C601.762939,361.570221 603.656494,359.363037 605.685791,356.815125 
z"/>
<path fill="#9FB1BA" opacity="1.000000" stroke="none" 
	d="
M617.312256,263.733826 
	C613.867249,259.827057 613.960571,255.713196 616.347046,252.005905 
	C618.805542,248.187012 624.419922,246.690643 627.717651,248.214462 
	C632.502319,250.425354 635.173584,254.186737 633.748047,258.917053 
	C632.858704,261.868134 630.353271,265.198547 627.668213,266.519897 
	C624.408691,268.123901 620.115662,268.088470 617.312256,263.733826 
M630.614746,260.696411 
	C631.697815,254.945114 630.150024,251.122116 625.969299,251.170776 
	C623.485840,251.199661 620.278870,252.861511 618.749146,254.836426 
	C616.849609,257.288727 617.402466,260.679626 620.420410,262.674927 
	C623.947754,265.007050 627.310364,264.791504 630.614746,260.696411 
z"/>
<path fill="#9B9998" opacity="1.000000" stroke="none" 
	d="
M402.082825,319.999268 
	C402.371185,317.879303 402.212769,315.547485 403.086151,313.704834 
	C403.814697,312.167877 405.577728,310.577850 407.194214,310.125854 
	C409.982666,309.346130 413.013123,309.431885 416.226013,309.127533 
	C415.819580,308.483276 415.725586,308.143005 415.566406,308.109161 
	C399.749329,304.745850 404.069305,307.389282 401.045532,292.435242 
	C400.866180,291.548309 400.856079,290.627106 399.808777,289.481873 
	C399.053558,291.185272 398.298340,292.888672 397.265045,294.800873 
	C397.673309,288.964813 398.359650,282.919952 399.325928,276.445892 
	C399.605927,276.016693 400.012115,275.986877 400.043396,276.363739 
	C400.110443,277.493896 400.146149,278.247223 400.125122,279.390686 
	C401.409363,286.531799 402.702118,293.292908 404.115784,300.028625 
	C404.661926,302.630859 405.274811,305.386017 409.361328,305.023621 
	C411.476837,305.482941 413.235687,305.800323 414.994568,306.117737 
	C418.203827,307.034363 421.413086,307.950989 424.622345,308.867615 
	C424.615417,309.194366 424.608490,309.521149 424.601562,309.847900 
	C418.533173,310.553711 412.464752,311.259521 405.725220,312.054016 
	C404.674896,313.638855 404.410339,315.177155 403.880737,316.618011 
	C403.444427,317.804993 402.694031,318.876556 402.082825,319.999268 
z"/>
<path fill="#9FB1BA" opacity="1.000000" stroke="none" 
	d="
M393.604492,305.132446 
	C390.698853,306.379669 387.344177,307.572113 382.998016,309.116943 
	C385.794739,309.497284 387.796326,309.916199 389.813232,310.011627 
	C393.425262,310.182495 395.773010,311.039825 396.437653,315.432098 
	C397.151642,320.150421 399.172607,324.670959 401.017761,329.124939 
	C401.412292,328.972107 401.743744,329.032837 401.743744,329.032837 
	C401.393402,332.023987 401.043060,335.015106 400.692749,338.006256 
	C400.320618,338.088470 399.948486,338.170654 399.576355,338.252869 
	C399.148163,336.843781 398.611816,335.457397 398.310638,334.021637 
	C397.061066,328.065002 396.155884,322.016113 394.504059,316.176544 
	C394.034546,314.516693 391.645569,312.677979 389.828247,312.258606 
	C384.676392,311.069824 379.364899,310.572723 373.984833,308.626770 
	C380.375031,307.443726 386.765259,306.260681 393.604492,305.132446 
z"/>
<path fill="#C7C7C7" opacity="1.000000" stroke="none" 
	d="
M413.875732,162.059387 
	C415.193604,152.980438 416.511475,143.901474 417.792206,134.409729 
	C418.362549,127.063210 418.364441,127.167488 425.496033,127.038605 
	C433.765411,126.889153 442.031067,126.532555 450.724243,126.219940 
	C451.127289,126.846321 451.104401,127.518639 450.615967,128.588104 
	C442.101654,129.055771 434.052887,129.126282 425.575592,129.148041 
	C423.566101,129.176941 421.985199,129.254608 420.366608,129.334137 
	C419.248413,137.882507 418.194092,145.942673 417.085144,154.412964 
	C416.670990,157.265396 416.335724,159.712387 415.865906,162.133270 
	C415.846405,162.233612 414.567749,162.089569 413.875732,162.059387 
z"/>
<path fill="#959190" opacity="1.000000" stroke="none" 
	d="
M808.048340,352.032715 
	C809.331299,352.909485 810.892639,353.814087 810.878723,354.693878 
	C810.757812,362.366760 810.354858,370.035217 810.014587,378.212311 
	C808.620789,377.701080 807.365784,377.487030 807.348450,377.198486 
	C806.865845,369.179199 806.490356,361.153015 806.195190,353.124390 
	C806.182678,352.783569 807.107971,352.408295 808.048340,352.032715 
z"/>
<path fill="#959190" opacity="1.000000" stroke="none" 
	d="
M330.962250,390.077454 
	C331.187103,389.244507 331.315399,388.773285 331.443695,388.302063 
	C327.050903,388.166718 327.853638,385.302917 328.332489,382.281158 
	C330.341644,382.281158 332.260864,382.281158 334.205658,382.281158 
	C336.413269,389.955536 334.832825,393.579498 327.024933,395.116333 
	C328.849731,392.894135 329.857697,391.666656 330.962250,390.077454 
z"/>
<path fill="#9FB1BA" opacity="1.000000" stroke="none" 
	d="
M400.012115,275.986877 
	C400.012115,275.986877 399.605927,276.016693 399.402863,276.023987 
	C400.217194,267.344574 401.234589,258.657806 402.318970,249.533569 
	C402.787903,246.696945 403.189880,244.297836 403.591858,241.898712 
	C404.085327,241.951492 404.578766,242.004257 405.072235,242.057022 
	C403.796478,251.774017 402.520721,261.491028 401.157379,271.960266 
	C400.717255,273.803955 400.364685,274.895416 400.012115,275.986877 
z"/>
<path fill="#959190" opacity="1.000000" stroke="none" 
	d="
M809.827271,382.020660 
	C811.017578,383.689056 811.762451,385.342743 812.809082,387.666382 
	C809.630127,387.666382 807.600464,387.666382 805.232666,387.666382 
	C805.147888,385.986206 805.067932,384.401703 804.963379,382.331055 
	C806.573059,382.212616 807.977417,382.109314 809.827271,382.020660 
z"/>
<path fill="#9FB1BA" opacity="1.000000" stroke="none" 
	d="
M401.904175,320.343353 
	C402.694031,318.876556 403.444427,317.804993 403.880737,316.618011 
	C404.410339,315.177155 404.674896,313.638855 405.417603,312.052185 
	C405.442932,313.929138 405.104797,315.896698 404.908630,318.450653 
	C405.051086,319.254761 405.020752,319.468109 404.959656,319.677094 
	C404.163147,321.647491 403.366638,323.617859 402.074951,325.804871 
	C401.579773,326.021484 401.129883,326.035675 401.129883,326.035675 
	C401.328430,324.252930 401.527008,322.470184 401.904175,320.343353 
z"/>
<path fill="#9B9998" opacity="1.000000" stroke="none" 
	d="
M405.341675,319.773621 
	C405.020752,319.468109 405.051086,319.254761 405.010315,318.887268 
	C405.982269,318.599243 406.994568,318.461060 408.385712,318.390442 
	C408.804565,318.752625 408.838654,319.047943 408.865356,319.567535 
	C407.817200,319.817474 406.770477,319.843811 405.341675,319.773621 
z"/>
<path fill="#9FB1BA" opacity="1.000000" stroke="none" 
	d="
M395.661987,303.357056 
	C395.545197,303.899200 395.133820,304.450775 394.436646,305.055237 
	C394.556366,304.527557 394.961884,303.947052 395.661987,303.357056 
z"/>
<path fill="#9B9998" opacity="1.000000" stroke="none" 
	d="
M401.092224,326.397766 
	C401.129883,326.035675 401.579773,326.021484 401.804932,326.021790 
	C402.007751,326.781860 401.985382,327.541626 401.853394,328.667114 
	C401.743744,329.032837 401.412292,328.972107 401.245544,328.954651 
	C401.070740,328.211426 401.062653,327.485626 401.092224,326.397766 
z"/>
<path fill="#9FB1BA" opacity="1.000000" stroke="none" 
	d="
M408.267517,184.528168 
	C408.322357,184.553085 408.400604,184.490433 408.361267,184.471451 
	C408.321930,184.452469 408.212646,184.503235 408.267517,184.528168 
z"/>
<path fill="#9FB1BA" opacity="1.000000" stroke="none" 
	d="
M405.499512,322.485718 
	C405.515839,322.475555 405.483154,322.495880 405.499512,322.485718 
z"/>
<path fill="#FFFFFF" opacity="1.000000" stroke="none" 
	d="
M400.043396,276.363739 
	C400.364685,274.895416 400.717255,273.803955 401.140869,272.356842 
	C402.848022,272.178497 404.738983,272.945007 406.052582,272.376770 
	C407.534637,271.735626 409.027252,270.071289 409.544617,268.526764 
	C410.124054,266.797119 409.590393,264.703003 409.598785,262.767761 
	C409.600861,262.287445 409.966827,261.795990 409.926727,261.330231 
	C409.371155,254.878967 408.463348,248.439011 408.302826,241.979858 
	C408.205780,238.076721 409.492065,234.156769 409.682678,230.221405 
	C409.775665,228.301620 408.783936,226.329315 408.059204,223.650452 
	C407.970184,221.280930 408.105225,219.641739 408.240234,218.002548 
	C412.633240,218.415955 414.890686,216.966019 415.180786,212.015991 
	C415.440765,207.579971 417.749573,203.235779 417.840515,198.823975 
	C418.026794,189.787018 417.292236,180.733063 417.031647,171.683365 
	C416.975739,169.740311 417.321930,167.785660 417.500427,165.623947 
	C416.698395,164.043671 411.495392,167.709335 413.632629,162.292114 
	C414.567749,162.089569 415.846405,162.233612 415.865906,162.133270 
	C416.335724,159.712387 416.670990,157.265396 417.494049,154.411926 
	C422.783020,154.905304 424.745117,152.176575 424.892548,147.994003 
	C425.019379,144.395966 424.437439,140.776199 424.259399,137.161575 
	C424.221649,136.395599 424.577179,135.610458 424.750122,134.833862 
	C425.168518,132.954910 425.586182,131.075821 426.004150,129.196793 
	C434.052887,129.126282 442.101654,129.055771 450.623810,128.925522 
	C456.409943,128.867386 461.722656,128.868988 467.962646,128.902588 
	C475.529541,128.943451 482.169312,128.981522 488.808777,128.955643 
	C507.559143,128.882538 526.309448,128.783203 545.059753,128.694214 
	C550.070740,128.758347 555.081787,128.822464 560.562500,128.870178 
	C561.117188,129.534485 561.202148,130.215210 561.071228,131.650574 
	C560.611877,134.842163 560.128418,137.284103 560.178955,139.714951 
	C560.264465,143.831467 561.202209,147.983780 560.864685,152.044830 
	C560.083374,161.446564 560.281860,161.872787 569.227783,160.779770 
	C569.227783,160.779770 569.227112,160.855148 569.138977,161.330902 
	C568.748657,164.590195 568.587280,167.397629 568.119568,170.153046 
	C566.263550,181.088669 567.694458,183.643692 577.752502,186.938202 
	C577.922729,187.651779 578.092896,188.365356 577.963684,189.697144 
	C577.109802,197.958130 576.578552,205.602707 575.989990,213.242889 
	C575.732483,216.585312 577.003784,218.344208 580.541992,218.001282 
	C584.156921,217.650909 585.271912,219.583054 585.008240,222.842911 
	C584.821655,225.150467 584.979614,227.516891 584.530457,229.766541 
	C583.018005,237.342224 585.226196,241.095810 592.370483,242.617065 
	C592.375549,250.187103 592.848145,257.796478 592.224182,265.314880 
	C591.735779,271.199005 591.912231,272.138458 597.538757,274.230469 
	C599.004517,274.775452 600.571899,276.864502 600.825500,278.447418 
	C601.260742,281.163300 600.945129,284.078094 600.507935,286.840240 
	C599.257141,294.741913 601.252441,297.104950 609.328979,296.866119 
	C609.583557,297.680237 609.838074,298.494385 609.823730,299.811707 
	C609.409180,300.710327 609.263428,301.105774 609.117676,301.501221 
	C609.209534,302.302155 609.301392,303.103088 609.358276,304.192444 
	C609.213501,305.969696 609.501587,307.653107 608.892761,308.897797 
	C608.144043,310.428284 606.817139,311.836487 605.407166,312.820374 
	C604.611511,313.375580 603.146606,312.996368 601.983154,312.996460 
	C547.741333,313.000519 493.499542,313.001587 439.257721,312.991241 
	C437.786469,312.990967 436.315186,312.861633 434.561981,312.779205 
	C434.356079,311.511414 434.106262,310.423096 434.012939,309.321564 
	C433.579132,304.200134 432.231812,303.242523 427.005890,303.784363 
	C424.737061,304.019592 422.375732,303.371887 420.108948,303.614899 
	C418.396515,303.798462 416.767487,304.759705 415.047943,305.746277 
	C413.235687,305.800323 411.476837,305.482941 409.411377,304.645508 
	C409.287781,302.208466 409.221680,300.226318 409.702576,298.387207 
	C410.925568,293.710144 406.876068,289.067566 409.765472,284.271515 
	C410.141113,283.648010 408.393402,280.903015 407.093689,280.305389 
	C405.026764,279.354950 402.508972,279.385132 400.181885,279.000519 
	C400.146149,278.247223 400.110443,277.493896 400.043396,276.363739 
M480.699951,200.970474 
	C492.138031,202.523605 490.924347,196.433975 488.643951,187.099152 
	C485.405090,184.631256 482.187927,183.412781 481.251617,181.220261 
	C479.021545,175.998520 475.698730,174.177002 470.249634,175.959717 
	C467.655609,176.808365 464.413696,177.447372 461.981873,176.634979 
	C457.568329,175.160599 456.287048,177.341980 456.141876,180.655792 
	C455.846039,187.410294 455.858734,194.192429 456.104431,200.950089 
	C456.213043,203.936874 457.728973,205.903625 460.798920,207.726471 
	C466.162567,210.911316 471.691925,208.918396 477.041779,209.852829 
	C478.155090,210.047287 480.728394,208.289215 480.650055,207.689224 
	C480.422363,205.944092 479.190887,204.329941 478.617310,202.152222 
	C479.002075,201.744049 479.386810,201.335876 480.699951,200.970474 
M544.916138,246.749329 
	C546.100342,240.638474 545.689514,240.215408 539.380005,241.012283 
	C538.739380,241.093201 538.091309,241.114929 537.190796,241.216370 
	C537.190796,241.216370 537.000000,241.038025 537.001892,240.210815 
	C537.283203,238.784317 538.089722,237.195053 537.711060,235.973114 
	C537.253357,234.496368 535.688965,232.168076 534.783936,232.248093 
	C532.046692,232.490097 529.396606,233.718552 525.980713,234.455383 
	C524.141724,233.763351 522.302795,233.071320 521.158691,231.890274 
	C522.323608,226.869308 520.930420,223.307037 517.713013,223.357330 
	C506.862732,223.526901 496.014252,223.811050 485.164001,223.983444 
	C481.996613,224.033783 480.369232,225.348679 479.876617,228.613068 
	C479.674194,229.954361 478.338104,231.991165 477.245483,232.186142 
	C471.597260,233.194031 471.717194,236.149231 473.601288,240.642197 
	C472.784485,241.240128 471.967682,241.838058 471.005157,241.674118 
	C468.927551,238.473816 466.809296,240.132095 465.645599,242.152817 
	C463.766754,245.415436 463.330475,249.796387 458.100006,249.741302 
	C457.755554,249.737656 457.106049,251.097183 457.092072,251.832031 
	C457.006866,256.309692 457.064606,260.790100 457.074951,265.411407 
	C457.781219,265.523987 457.176453,265.430359 456.572632,265.330963 
	C448.522766,264.006470 445.727722,266.978668 447.486969,274.978912 
	C447.699921,275.947174 447.927887,276.923676 448.006836,277.907776 
	C448.285614,281.381226 450.303925,282.548981 453.465759,281.899628 
	C456.303162,281.316925 458.610260,280.266418 457.154510,276.503571 
	C456.811920,275.618073 457.412109,274.367859 457.563477,273.383636 
	C465.097931,272.565613 464.934174,272.562317 465.083527,265.150635 
	C465.149384,261.883057 465.592285,258.464203 470.143707,257.845276 
	C471.232544,257.697205 472.513916,256.229645 473.030609,255.068146 
	C475.722382,249.017487 477.248413,248.079224 484.140564,249.618698 
	C487.171967,250.295822 489.624725,249.470444 489.768524,246.553299 
	C490.030060,241.247940 493.337280,241.878616 496.723511,242.116913 
	C498.166565,242.218475 499.609528,242.484955 501.048187,242.456528 
	C506.102112,242.356750 511.166626,241.913956 516.198547,242.167923 
	C517.537354,242.235504 519.421692,244.102081 519.924194,245.538483 
	C521.012634,248.649857 522.518494,250.378433 526.022339,250.038956 
	C528.168335,249.831024 530.435303,249.649231 532.490723,250.129150 
	C534.052979,250.493942 536.387207,251.737289 536.596924,252.908646 
	C537.177856,256.152405 539.131958,257.221283 541.797852,258.192200 
	C542.864624,258.580719 544.163391,259.892578 544.324280,260.942322 
	C545.083069,265.895477 548.313904,265.305450 552.235352,264.834320 
	C552.993835,265.415680 553.752319,265.997040 553.825012,267.099274 
	C553.381897,270.734406 552.754089,274.361420 552.593445,278.009003 
	C552.535339,279.329498 553.278015,281.497040 554.215332,281.869720 
	C555.843079,282.516937 558.083252,282.529938 559.719727,281.903229 
	C560.672058,281.538513 561.387817,279.433167 561.454224,278.074127 
	C561.729065,272.444336 561.506226,266.786102 561.893005,261.167694 
	C562.099976,258.161774 561.463745,257.010834 558.272156,256.861298 
	C556.086975,256.758911 552.784302,256.657532 553.636292,252.755234 
	C554.450378,249.026245 553.399414,247.661026 549.533997,248.873428 
	C548.302734,249.259598 546.890869,249.069855 545.143127,248.900635 
	C545.036194,248.459579 544.929199,248.018509 544.916138,246.749329 
M548.888306,175.472885 
	C544.052856,175.679443 539.149353,175.466736 534.405212,176.236404 
	C531.109802,176.771027 527.658569,177.987305 527.920288,182.892654 
	C528.252441,189.117554 527.965698,195.373871 528.009338,201.616196 
	C528.058289,208.607101 533.441101,211.977722 540.032532,209.412704 
	C541.447937,208.861893 543.413391,208.808044 544.825500,209.332733 
	C549.519165,211.076767 552.005432,209.919052 553.011353,204.989868 
	C553.553833,202.331436 554.597534,199.816345 557.739990,200.523941 
	C562.207825,201.529938 562.117615,198.870178 561.929810,196.029251 
	C561.756104,193.401550 560.986267,190.778870 561.082520,188.176300 
	C561.205872,184.840149 559.942505,183.645309 556.726929,183.956406 
	C555.644348,184.061157 554.513733,183.669937 553.405090,183.505402 
	C553.690979,183.219055 553.976868,182.932709 554.262756,182.646362 
	C552.706177,180.372131 551.149597,178.097900 548.888306,175.472885 
z"/>
<path fill="#FBFBFB" opacity="1.000000" stroke="none" 
	d="
M468.851746,127.056580 
	C473.467072,111.002335 484.569611,102.332886 500.569824,99.360023 
	C518.852905,95.962990 539.171448,107.478180 544.435913,124.152626 
	C544.728577,125.079506 544.743835,126.093971 544.420166,127.470795 
	C521.200806,127.879539 498.449432,127.908836 475.698273,127.854240 
	C473.415466,127.848770 471.133881,127.334648 468.851746,127.056580 
z"/>
<path fill="#9FB1BA" opacity="1.000000" stroke="none" 
	d="
M468.637634,127.196548 
	C471.133881,127.334648 473.415466,127.848770 475.698273,127.854240 
	C498.449432,127.908836 521.200806,127.879539 544.406616,127.856796 
	C544.861084,127.839676 544.999878,128.258499 545.029785,128.476349 
	C526.309448,128.783203 507.559143,128.882538 488.808777,128.955643 
	C482.169312,128.981522 475.529541,128.943451 468.424988,128.853790 
	C468.114532,128.294174 468.269012,127.815346 468.637634,127.196548 
z"/>
<path fill="#9FB1BA" opacity="1.000000" stroke="none" 
	d="
M408.256317,217.603149 
	C408.105225,219.641739 407.970184,221.280930 407.850861,223.319366 
	C407.286316,223.002182 406.134369,222.217957 406.210144,221.579346 
	C407.766968,208.454117 409.459991,195.345001 411.148590,182.235596 
	C411.207916,181.774887 411.500244,181.344223 411.683990,180.899551 
	C412.202271,180.963242 412.720581,181.026932 413.238861,181.090622 
	C411.583374,193.128342 409.927856,205.166046 408.256317,217.603149 
z"/>
<path fill="#72CAF1" opacity="1.000000" stroke="none" 
	d="
M611.868958,294.149536 
	C611.176880,293.070221 610.170959,292.078125 609.842957,290.897644 
	C607.453125,282.297333 605.373291,273.608124 602.857483,265.046326 
	C599.956787,255.174911 596.622681,245.431595 593.642639,235.582489 
	C591.634277,228.944550 589.944946,222.210571 588.030579,215.543213 
	C587.732605,214.505371 586.994263,213.593994 586.235840,212.308655 
	C586.012085,211.993179 586.062378,212.037643 586.062378,212.037643 
	C586.280945,210.632309 586.999390,209.083252 586.642822,207.843338 
	C581.725586,190.742889 576.719849,173.667160 571.607056,156.623962 
	C568.925415,147.684845 565.992615,138.821091 563.011292,129.412262 
	C573.005310,129.412262 582.528870,129.412262 592.408875,129.412262 
	C592.880615,132.322418 593.497375,135.355545 593.847778,138.419128 
	C595.632080,154.019745 597.226807,169.642975 599.128296,185.228958 
	C600.448181,196.047699 602.266724,206.804855 603.659607,217.615677 
	C604.927124,227.453674 605.738586,237.351944 607.085754,247.177750 
	C608.488098,257.405548 610.518250,267.549469 611.821777,277.787628 
	C612.458191,282.785767 612.067322,287.914703 612.072632,293.495026 
	C612.003845,294.005615 611.868958,294.149536 611.868958,294.149536 
z"/>
<path fill="#FEFEFE" opacity="1.000000" stroke="none" 
	d="
M609.250244,296.478943 
	C601.252441,297.104950 599.257141,294.741913 600.507935,286.840240 
	C600.945129,284.078094 601.260742,281.163300 600.825500,278.447418 
	C600.571899,276.864502 599.004517,274.775452 597.538757,274.230469 
	C591.912231,272.138458 591.735779,271.199005 592.224182,265.314880 
	C592.848145,257.796478 592.375549,250.187103 592.370483,242.617065 
	C585.226196,241.095810 583.018005,237.342224 584.530457,229.766541 
	C584.979614,227.516891 584.821655,225.150467 585.008240,222.842911 
	C585.271912,219.583054 584.156921,217.650909 580.541992,218.001282 
	C577.003784,218.344208 575.732483,216.585312 575.989990,213.242889 
	C576.578552,205.602707 577.109802,197.958130 578.011841,190.061096 
	C580.833069,196.996445 583.306824,204.186050 585.921509,211.706635 
	C586.062378,212.037643 586.012085,211.993179 586.028564,212.021957 
	C586.372131,214.335907 586.440247,216.694733 587.065796,218.895050 
	C594.385925,244.641083 601.789795,270.363281 609.250244,296.478943 
z"/>
<path fill="#FEFEFE" opacity="1.000000" stroke="none" 
	d="
M569.305176,160.378510 
	C560.281860,161.872787 560.083374,161.446564 560.864685,152.044830 
	C561.202209,147.983780 560.264465,143.831467 560.178955,139.714951 
	C560.128418,137.284103 560.611877,134.842163 561.037598,131.992599 
	C563.940735,141.045731 566.661682,150.511490 569.305176,160.378510 
z"/>
<path fill="#FEFEFE" opacity="1.000000" stroke="none" 
	d="
M577.774048,186.575989 
	C567.694458,183.643692 566.263550,181.088669 568.119568,170.153046 
	C568.587280,167.397629 568.748657,164.590195 569.105896,161.348999 
	C570.736938,165.089279 572.413452,169.252975 573.860474,173.494919 
	C575.292664,177.693451 576.493408,181.970917 577.774048,186.575989 
z"/>
<path fill="#72CAF1" opacity="1.000000" stroke="none" 
	d="
M612.355713,299.777466 
	C612.228149,298.860901 612.228149,298.270386 612.228149,297.679901 
	C612.580261,297.640778 612.932373,297.601654 613.284485,297.562531 
	C613.571533,299.381378 613.858521,301.200226 614.145569,303.019073 
	C613.899292,303.069763 613.653076,303.120422 613.406860,303.171112 
	C613.098999,302.148590 612.791077,301.126068 612.355713,299.777466 
z"/>
<path fill="#FFFFFF" opacity="1.000000" stroke="none" 
	d="
M611.524536,263.288849 
	C612.138245,263.399170 612.544983,263.766785 612.885681,264.187805 
	C612.915466,264.224640 612.511963,264.612152 612.309692,264.836792 
	C611.973083,264.411316 611.636475,263.985870 611.524536,263.288849 
z"/>
<path fill="#FEFEFE" opacity="1.000000" stroke="none" 
	d="
M609.385864,301.319580 
	C609.263428,301.105774 609.409180,300.710327 609.824829,300.139709 
	C609.947815,300.355652 609.800964,300.746796 609.385864,301.319580 
z"/>
<path fill="#72CAF1" opacity="1.000000" stroke="none" 
	d="
M612.075806,293.938080 
	C612.244873,294.097046 612.342041,294.323547 612.439209,294.550049 
	C612.313721,294.515228 612.188232,294.480377 611.965820,294.297546 
	C611.868958,294.149536 612.003845,294.005615 612.075806,293.938080 
z"/>
<path fill="#FFFFFF" opacity="1.000000" stroke="none" 
	d="
M449.345520,380.221069 
	C446.539978,384.784882 442.835693,384.931000 438.954468,382.921387 
	C434.708374,380.722870 434.223816,376.607178 435.320251,372.614258 
	C436.454163,368.484619 439.724579,366.571381 444.067169,367.033600 
	C447.597809,367.409332 451.077789,372.441223 450.428162,376.069733 
	C450.197906,377.355835 449.860413,378.622711 449.345520,380.221069 
z"/>
<path fill="#FFFFFF" opacity="1.000000" stroke="none" 
	d="
M769.391541,367.045074 
	C774.547607,366.501373 777.264038,369.246063 778.543701,373.245941 
	C779.866943,377.381927 777.741394,381.060791 774.326355,382.787598 
	C772.179749,383.873016 768.354065,383.635223 766.230835,382.382385 
	C760.596985,379.058167 762.324951,370.487671 769.391541,367.045074 
z"/>
<path fill="#FFFFFF" opacity="1.000000" stroke="none" 
	d="
M515.187012,378.326843 
	C515.046204,377.438568 515.004944,376.941772 515.006653,376.445099 
	C515.025513,370.882446 517.306030,367.662750 521.672363,367.022736 
	C525.635559,366.441803 529.601990,369.290039 530.779663,373.562469 
	C531.621887,376.617981 528.471008,382.562744 525.352966,383.800964 
	C521.878479,385.180725 517.945740,383.191132 515.187012,378.326843 
z"/>
<path fill="#FFFFFF" opacity="1.000000" stroke="none" 
	d="
M234.317444,367.050659 
	C242.420303,367.935852 246.459610,374.523071 242.237259,379.935089 
	C240.646957,381.973450 237.230804,383.867157 234.850616,383.645050 
	C232.528442,383.428314 229.077011,380.717651 228.628052,378.576294 
	C228.014175,375.648407 229.563919,372.151947 230.637100,369.055481 
	C230.957916,368.129822 232.787247,367.726959 234.317444,367.050659 
z"/>
<path fill="#FFFFFF" opacity="1.000000" stroke="none" 
	d="
M397.659668,367.047546 
	C404.227966,369.183929 406.922302,375.589630 402.981049,380.172455 
	C401.228027,382.210846 397.297577,384.149933 395.074249,383.535004 
	C392.622253,382.856812 390.157990,379.484558 389.221283,376.762085 
	C388.060822,373.389343 389.404755,369.838898 393.050293,368.045807 
	C394.318146,367.422211 395.853790,367.343079 397.659668,367.047546 
z"/>
<path fill="#FFFFFF" opacity="1.000000" stroke="none" 
	d="
M679.320129,383.949768 
	C676.970459,381.872986 674.135193,380.151031 673.246704,377.718109 
	C671.572571,373.133759 674.609009,368.215179 678.831238,367.119843 
	C682.148560,366.259247 686.508728,368.723083 687.966736,372.282104 
	C689.803711,376.766205 688.115417,380.968109 683.462036,383.118530 
	C682.322571,383.645142 680.968628,383.707703 679.320129,383.949768 
z"/>
<path fill="#FFFFFF" opacity="1.000000" stroke="none" 
	d="
M487.686432,381.138794 
	C486.942047,378.968597 486.195953,377.109833 486.057068,375.206696 
	C485.748962,370.983887 488.121979,367.646149 491.935272,367.379059 
	C494.674133,367.187225 498.325958,369.041870 500.268280,371.171387 
	C502.853302,374.005463 502.315308,377.882324 499.561859,380.905121 
	C496.874420,383.855438 493.709839,385.156464 489.895294,382.945404 
	C489.193329,382.538574 488.602386,381.940125 487.686432,381.138794 
z"/>
<path fill="#FBFBFB" opacity="1.000000" stroke="none" 
	d="
M384.158356,198.231827 
	C387.749329,194.357666 392.059174,193.271713 396.091583,195.570160 
	C398.621399,197.012115 401.012146,200.126068 401.759766,202.942596 
	C402.978485,207.533554 400.686188,211.257584 396.097839,213.271194 
	C391.582214,215.252899 387.454620,214.449112 384.406769,210.834412 
	C381.264130,207.107300 380.779663,202.772018 384.158356,198.231827 
z"/>
<path fill="#FBFBFB" opacity="1.000000" stroke="none" 
	d="
M630.385315,261.034576 
	C627.310364,264.791504 623.947754,265.007050 620.420410,262.674927 
	C617.402466,260.679626 616.849609,257.288727 618.749146,254.836426 
	C620.278870,252.861511 623.485840,251.199661 625.969299,251.170776 
	C630.150024,251.122116 631.697815,254.945114 630.385315,261.034576 
z"/>
<path fill="#FEFEFE" opacity="1.000000" stroke="none" 
	d="
M400.125122,279.390686 
	C402.508972,279.385132 405.026764,279.354950 407.093689,280.305389 
	C408.393402,280.903015 410.141113,283.648010 409.765472,284.271515 
	C406.876068,289.067566 410.925568,293.710144 409.702576,298.387207 
	C409.221680,300.226318 409.287781,302.208466 409.054718,304.503571 
	C405.274811,305.386017 404.661926,302.630859 404.115784,300.028625 
	C402.702118,293.292908 401.409363,286.531799 400.125122,279.390686 
z"/>
<path fill="#FEFEFE" opacity="1.000000" stroke="none" 
	d="
M425.575562,129.148041 
	C425.586182,131.075821 425.168518,132.954910 424.750122,134.833862 
	C424.577179,135.610458 424.221649,136.395599 424.259399,137.161575 
	C424.437439,140.776199 425.019379,144.395966 424.892548,147.994003 
	C424.745117,152.176575 422.783020,154.905304 417.548645,154.001770 
	C418.194092,145.942673 419.248413,137.882507 420.366608,129.334137 
	C421.985199,129.254608 423.566101,129.176941 425.575562,129.148041 
z"/>
<path fill="#FEFEFE" opacity="1.000000" stroke="none" 
	d="
M551.715271,264.610657 
	C548.313904,265.305450 545.083069,265.895477 544.324280,260.942322 
	C544.163391,259.892578 542.864624,258.580719 541.797852,258.192200 
	C539.131958,257.221283 537.177856,256.152405 536.596924,252.908646 
	C536.387207,251.737289 534.052979,250.493942 532.490723,250.129150 
	C530.435303,249.649231 528.168335,249.831024 526.022339,250.038956 
	C522.518494,250.378433 521.012634,248.649857 519.924194,245.538483 
	C519.421692,244.102081 517.537354,242.235504 516.198547,242.167923 
	C511.166626,241.913956 506.102112,242.356750 501.048187,242.456528 
	C499.609528,242.484955 498.166565,242.218475 496.723511,242.116913 
	C493.337280,241.878616 490.030060,241.247940 489.768524,246.553299 
	C489.624725,249.470444 487.171967,250.295822 484.140564,249.618698 
	C477.248413,248.079224 475.722382,249.017487 473.030609,255.068146 
	C472.513916,256.229645 471.232544,257.697205 470.143707,257.845276 
	C465.592285,258.464203 465.149384,261.883057 465.083527,265.150635 
	C464.934174,272.562317 465.097931,272.565613 457.563477,273.383636 
	C457.412109,274.367859 456.811920,275.618073 457.154510,276.503571 
	C458.610260,280.266418 456.303162,281.316925 453.465759,281.899628 
	C450.303925,282.548981 448.285614,281.381226 448.006836,277.907776 
	C447.927887,276.923676 447.699921,275.947174 447.486969,274.978912 
	C445.727722,266.978668 448.522766,264.006470 456.572632,265.330963 
	C457.176453,265.430359 457.781219,265.523987 457.074951,265.411407 
	C457.064606,260.790100 457.006866,256.309692 457.092072,251.832031 
	C457.106049,251.097183 457.755554,249.737656 458.100006,249.741302 
	C463.330475,249.796387 463.766754,245.415436 465.645599,242.152817 
	C466.809296,240.132095 468.927551,238.473816 470.927368,242.329559 
	C467.110535,247.561920 461.919952,251.280151 461.903412,257.285187 
	C465.983551,253.614883 470.078094,249.064453 474.981201,245.688263 
	C488.191650,236.591919 502.805267,235.713013 517.985840,239.639603 
	C532.600769,243.419907 544.348328,251.051071 551.715271,264.610657 
z"/>
<path fill="#9B9998" opacity="1.000000" stroke="none" 
	d="
M551.975342,264.722473 
	C544.348328,251.051071 532.600769,243.419907 517.985840,239.639603 
	C502.805267,235.713013 488.191650,236.591919 474.981201,245.688263 
	C470.078094,249.064453 465.983551,253.614883 461.903412,257.285187 
	C461.919952,251.280151 467.110535,247.561920 471.000244,242.710510 
	C471.967682,241.838058 472.784485,241.240128 474.131836,240.285278 
	C478.257111,237.921432 481.710846,235.586746 485.472839,233.968781 
	C496.887848,229.059387 508.632660,229.252045 520.463806,232.379303 
	C522.302795,233.071320 524.141724,233.763351 526.542236,234.774109 
	C530.402466,237.074585 533.701233,239.056305 537.000000,241.038025 
	C537.000000,241.038025 537.190796,241.216370 537.514038,241.493469 
	C540.165588,243.706207 542.493958,245.641830 544.822266,247.577454 
	C544.929199,248.018509 545.036194,248.459579 545.558411,249.310333 
	C548.819397,255.339493 551.665100,260.958954 554.510803,266.578400 
	C553.752319,265.997040 552.993835,265.415680 551.975342,264.722473 
z"/>
<path fill="#FEFEFE" opacity="1.000000" stroke="none" 
	d="
M549.240662,175.648270 
	C551.149597,178.097900 552.706177,180.372131 554.262756,182.646362 
	C553.976868,182.932709 553.690979,183.219055 553.405090,183.505402 
	C554.513733,183.669937 555.644348,184.061157 556.726929,183.956406 
	C559.942505,183.645309 561.205872,184.840149 561.082520,188.176300 
	C560.986267,190.778870 561.756104,193.401550 561.929810,196.029251 
	C562.117615,198.870178 562.207825,201.529938 557.739990,200.523941 
	C554.597534,199.816345 553.553833,202.331436 553.011353,204.989868 
	C552.005432,209.919052 549.519165,211.076767 544.825500,209.332733 
	C543.413391,208.808044 541.447937,208.861893 540.032532,209.412704 
	C533.441101,211.977722 528.058289,208.607101 528.009338,201.616196 
	C527.965698,195.373871 528.252441,189.117554 527.920288,182.892654 
	C527.658569,177.987305 531.109802,176.771027 534.405212,176.236404 
	C539.149353,175.466736 544.052856,175.679443 549.240662,175.648270 
M553.695129,191.054810 
	C553.502319,190.419250 553.334290,189.774902 553.112854,189.149460 
	C550.871826,182.820679 543.920044,179.644958 537.826477,182.158844 
	C531.509399,184.764938 528.697754,192.291382 531.795593,198.303040 
	C534.560303,203.668198 538.888367,205.801498 544.460022,204.545288 
	C550.838745,203.107101 553.660278,199.290558 553.695129,191.054810 
z"/>
<path fill="#FEFEFE" opacity="1.000000" stroke="none" 
	d="
M478.353088,202.664429 
	C479.190887,204.329941 480.422363,205.944092 480.650055,207.689224 
	C480.728394,208.289215 478.155090,210.047287 477.041779,209.852829 
	C471.691925,208.918396 466.162567,210.911316 460.798920,207.726471 
	C457.728973,205.903625 456.213043,203.936874 456.104431,200.950089 
	C455.858734,194.192429 455.846039,187.410294 456.141876,180.655792 
	C456.287048,177.341980 457.568329,175.160599 461.981873,176.634979 
	C464.413696,177.447372 467.655609,176.808365 470.249634,175.959717 
	C475.698730,174.177002 479.021545,175.998520 481.251617,181.220261 
	C482.187927,183.412781 485.405090,184.631256 488.643951,187.099152 
	C490.924347,196.433975 492.138031,202.523605 480.388306,200.595963 
	C480.670258,198.861115 481.495789,197.553223 481.817169,196.131363 
	C483.203644,189.997162 480.709442,184.767166 475.470184,182.484116 
	C470.256134,180.212067 464.339661,181.659958 461.199005,185.976578 
	C457.910950,190.495819 458.239349,196.989700 461.962219,201.067596 
	C466.005920,205.496918 470.730469,205.957184 478.353088,202.664429 
z"/>
<path fill="#979392" opacity="1.000000" stroke="none" 
	d="
M478.485199,202.408325 
	C470.730469,205.957184 466.005920,205.496918 461.962219,201.067596 
	C458.239349,196.989700 457.910950,190.495819 461.199005,185.976578 
	C464.339661,181.659958 470.256134,180.212067 475.470184,182.484116 
	C480.709442,184.767166 483.203644,189.997162 481.817169,196.131363 
	C481.495789,197.553223 480.670258,198.861115 479.924133,200.574585 
	C479.386810,201.335876 479.002075,201.744049 478.485199,202.408325 
z"/>
<path fill="#FEFEFE" opacity="1.000000" stroke="none" 
	d="
M520.811279,232.134796 
	C508.632660,229.252045 496.887848,229.059387 485.472839,233.968781 
	C481.710846,235.586746 478.257111,237.921432 474.334625,240.048401 
	C471.717194,236.149231 471.597260,233.194031 477.245483,232.186142 
	C478.338104,231.991165 479.674194,229.954361 479.876617,228.613068 
	C480.369232,225.348679 481.996613,224.033783 485.164001,223.983444 
	C496.014252,223.811050 506.862732,223.526901 517.713013,223.357330 
	C520.930420,223.307037 522.323608,226.869308 520.811279,232.134796 
z"/>
<path fill="#FEFEFE" opacity="1.000000" stroke="none" 
	d="
M554.167908,266.838837 
	C551.665100,260.958954 548.819397,255.339493 545.767700,249.431839 
	C546.890869,249.069855 548.302734,249.259598 549.533997,248.873428 
	C553.399414,247.661026 554.450378,249.026245 553.636292,252.755234 
	C552.784302,256.657532 556.086975,256.758911 558.272156,256.861298 
	C561.463745,257.010834 562.099976,258.161774 561.893005,261.167694 
	C561.506226,266.786102 561.729065,272.444336 561.454224,278.074127 
	C561.387817,279.433167 560.672058,281.538513 559.719727,281.903229 
	C558.083252,282.529938 555.843079,282.516937 554.215332,281.869720 
	C553.278015,281.497040 552.535339,279.329498 552.593445,278.009003 
	C552.754089,274.361420 553.381897,270.734406 554.167908,266.838837 
z"/>
<path fill="#FEFEFE" opacity="1.000000" stroke="none" 
	d="
M537.000977,240.624420 
	C533.701233,239.056305 530.402466,237.074585 526.908142,234.827698 
	C529.396606,233.718552 532.046692,232.490097 534.783936,232.248093 
	C535.688965,232.168076 537.253357,234.496368 537.711060,235.973114 
	C538.089722,237.195053 537.283203,238.784317 537.000977,240.624420 
z"/>
<path fill="#FEFEFE" opacity="1.000000" stroke="none" 
	d="
M544.869202,247.163391 
	C542.493958,245.641830 540.165588,243.706207 537.641968,241.467346 
	C538.091309,241.114929 538.739380,241.093201 539.380005,241.012283 
	C545.689514,240.215408 546.100342,240.638474 544.869202,247.163391 
z"/>
<path fill="#979392" opacity="1.000000" stroke="none" 
	d="
M553.771973,191.450134 
	C553.660278,199.290558 550.838745,203.107101 544.460022,204.545288 
	C538.888367,205.801498 534.560303,203.668198 531.795593,198.303040 
	C528.697754,192.291382 531.509399,184.764938 537.826477,182.158844 
	C543.920044,179.644958 550.871826,182.820679 553.112854,189.149460 
	C553.334290,189.774902 553.502319,190.419250 553.771973,191.450134 
z"/>
</svg>