<svg width="25" height="25" viewBox="0 0 25 25" fill="none" xmlns="http://www.w3.org/2000/svg">
<g clip-path="url(#clip0_740_854)">
<path d="M21.6166 17.0206C20.9627 16.6939 20.5566 16.0366 20.5566 15.3057V10.9863C20.5566 7.22256 17.9621 4.05369 14.4678 3.17326C14.6145 2.87895 14.6973 2.54765 14.6973 2.19727C14.6973 0.985718 13.7115 0 12.5 0C11.2885 0 10.3027 0.985718 10.3027 2.19727C10.3027 2.54765 10.3855 2.87895 10.5322 3.17326C7.03793 4.05369 4.44336 7.22256 4.44336 10.9863V15.3057C4.44336 16.0366 4.03728 16.6939 3.38345 17.0208C2.23007 17.5974 1.51367 18.7565 1.51367 20.0459V22.0703H9.57031C9.57031 23.6858 10.8845 25 12.5 25C14.1155 25 15.4297 23.6858 15.4297 22.0703H23.4863V20.0459C23.4863 18.7565 22.7699 17.5974 21.6166 17.0206ZM12.5 1.46484C12.9038 1.46484 13.2324 1.79348 13.2324 2.19727C13.2324 2.60105 12.9038 2.92969 12.5 2.92969C12.0962 2.92969 11.7676 2.60105 11.7676 2.19727C11.7676 1.79348 12.0962 1.46484 12.5 1.46484ZM12.5 23.5352C11.6922 23.5352 11.0352 22.8781 11.0352 22.0703H13.9648C13.9648 22.8781 13.3078 23.5352 12.5 23.5352ZM22.0215 20.6055H2.97852V20.0459C2.97852 19.315 3.38459 18.6577 4.03843 18.3308C5.1918 17.7542 5.9082 16.5951 5.9082 15.3055V10.9863C5.9082 7.35168 8.86536 4.39453 12.5 4.39453C16.1346 4.39453 19.0918 7.35168 19.0918 10.9863V15.3057C19.0918 16.5951 19.8082 17.7542 20.9616 18.331C21.6154 18.6577 22.0215 19.315 22.0215 20.0459V20.6055Z" fill="black"/>
</g>
<defs>
<clipPath id="clip0_740_854">
<rect width="25" height="25" fill="white"/>
</clipPath>
</defs>
</svg>
