<svg width="15" height="15" viewBox="0 0 15 15" fill="none" xmlns="http://www.w3.org/2000/svg">
<g clip-path="url(#clip0_663_126)">
<path d="M12.2419 10.012C11.8826 9.83246 11.6595 9.47127 11.6595 9.06962V6.696C11.6595 4.6277 10.2337 2.88631 8.3135 2.40249C8.3941 2.24076 8.43959 2.0587 8.43959 1.86615C8.43959 1.20037 7.89791 0.658691 7.23213 0.658691C6.56635 0.658691 6.02467 1.20037 6.02467 1.86615C6.02467 2.0587 6.07016 2.24076 6.15076 2.40249C4.23056 2.88631 2.80477 4.6277 2.80477 6.696V9.06962C2.80477 9.47127 2.58162 9.83246 2.22232 10.0121C1.58851 10.329 1.19482 10.9659 1.19482 11.6745V12.787H5.62218C5.62218 13.6747 6.34435 14.3969 7.23213 14.3969C8.11991 14.3969 8.84208 13.6747 8.84208 12.787H13.2694V11.6745C13.2694 10.9659 12.8758 10.329 12.2419 10.012ZM7.23213 1.46367C7.45402 1.46367 7.63462 1.64426 7.63462 1.86615C7.63462 2.08804 7.45402 2.26864 7.23213 2.26864C7.01024 2.26864 6.82964 2.08804 6.82964 1.86615C6.82964 1.64426 7.01024 1.46367 7.23213 1.46367ZM7.23213 13.5919C6.78824 13.5919 6.42716 13.2309 6.42716 12.787H8.0371C8.0371 13.2309 7.67602 13.5919 7.23213 13.5919ZM12.4645 11.982H1.9998V11.6745C1.9998 11.2728 2.22295 10.9116 2.58225 10.732C3.21606 10.4151 3.60975 9.77817 3.60975 9.06952V6.696C3.60975 4.69865 5.23479 3.07361 7.23213 3.07361C9.22947 3.07361 10.8545 4.69865 10.8545 6.696V9.06962C10.8545 9.77817 11.2482 10.4151 11.882 10.7321C12.2413 10.9116 12.4645 11.2728 12.4645 11.6745V11.982Z" fill="black"/>
</g>
<defs>
<clipPath id="clip0_663_126">
<rect width="13.7382" height="13.7382" fill="white" transform="translate(0.362793 0.658691)"/>
</clipPath>
</defs>
</svg>
