<svg width="74" height="74" viewBox="0 0 74 74" fill="none" xmlns="http://www.w3.org/2000/svg">
<path d="M31.6037 36.3679C30.9523 35.7202 30.0711 35.3567 29.1525 35.3567C28.2339 35.3567 27.3526 35.7202 26.7012 36.3679L19.6173 43.4596C19.2947 43.7811 19.0388 44.1632 18.8641 44.5838C18.6895 45.0044 18.5996 45.4554 18.5996 45.9109C18.5996 46.3663 18.6895 46.8173 18.8641 47.2379C19.0388 47.6585 19.2947 48.0406 19.6173 48.3621L25.6143 54.3592C25.9359 54.6817 26.3179 54.9377 26.7385 55.1123C27.1592 55.2869 27.6101 55.3768 28.0656 55.3768C28.521 55.3768 28.972 55.2869 29.3926 55.1123C29.8133 54.9377 30.1953 54.6817 30.5168 54.3592L37.6008 47.2752C37.9236 46.953 38.1797 46.5704 38.3544 46.1491C38.5292 45.7278 38.6191 45.2762 38.6191 44.8201C38.6191 44.364 38.5292 43.9124 38.3544 43.4912C38.1797 43.0699 37.9236 42.6872 37.6008 42.365L31.6037 36.3679ZM37.0612 46.7279L29.9695 53.8119C29.7189 54.0692 29.4192 54.2737 29.0883 54.4134C28.7573 54.553 28.4017 54.625 28.0425 54.625C27.6832 54.625 27.3276 54.553 26.9967 54.4134C26.6657 54.2737 26.366 54.0692 26.1154 53.8119L20.1954 47.7917C19.9381 47.541 19.7335 47.2414 19.5939 46.9104C19.4542 46.5794 19.3823 46.2238 19.3823 45.8646C19.3823 45.5054 19.4542 45.1498 19.5939 44.8188C19.7335 44.4878 19.9381 44.1882 20.1954 43.9375L27.2793 36.8536C27.5311 36.5981 27.8311 36.3953 28.1619 36.2568C28.4927 36.1184 28.8478 36.0471 29.2064 36.0471C29.5651 36.0471 29.9201 36.1184 30.2509 36.2568C30.5818 36.3953 30.8818 36.5981 31.1335 36.8536L37.1306 42.8506C37.3871 43.1053 37.5899 43.4088 37.7271 43.7432C37.8644 44.0775 37.9333 44.436 37.9297 44.7974C37.9261 45.1588 37.8501 45.5159 37.7062 45.8474C37.5624 46.179 37.3535 46.4784 37.092 46.7279H37.0612Z" fill="#F98B0E"/>
<mask id="path-2-inside-1_4213_26" fill="white">
<path d="M60.9879 13.0194C60.9146 12.9483 60.8164 12.9085 60.7142 12.9085C60.6121 12.9085 60.514 12.9483 60.4406 13.0194L53.9579 19.4713L53.4183 18.9317C53.0365 18.5517 52.5722 18.265 52.0615 18.0938C51.5507 17.9227 51.0074 17.8718 50.4737 17.945L37.7704 19.7642C37.0297 19.8722 36.3433 20.2154 35.8125 20.7431L14.1983 42.3958C13.7324 42.8606 13.3628 43.4126 13.1106 44.0204C12.8583 44.6282 12.7285 45.2798 12.7285 45.9378C12.7285 46.5959 12.8583 47.2474 13.1106 47.8552C13.3628 48.463 13.7324 49.0151 14.1983 49.4798L24.5506 59.809C25.4912 60.7462 26.7648 61.2724 28.0926 61.2724C29.4204 61.2724 30.694 60.7462 31.6346 59.809L53.2564 38.1871C53.7874 37.6576 54.1335 36.971 54.2431 36.2292L56.0546 23.5104C56.1312 22.9773 56.0826 22.4337 55.9127 21.9226C55.7428 21.4115 55.4562 20.947 55.0756 20.5658L54.5283 20.0417L60.9879 13.5898C61.0266 13.5531 61.0574 13.5088 61.0785 13.4598C61.0996 13.4108 61.1105 13.358 61.1105 13.3046C61.1105 13.2512 61.0996 13.1984 61.0785 13.1494C61.0574 13.1003 61.0266 13.0561 60.9879 13.0194ZM54.5283 21.1131C54.8308 21.41 55.0584 21.7744 55.1925 22.1765C55.3265 22.5785 55.363 23.0067 55.2991 23.4256L53.4877 36.1444C53.4046 36.7282 53.1341 37.2693 52.7169 37.686L31.1335 59.3079C30.7398 59.7018 30.2724 60.0143 29.7579 60.2275C29.2434 60.4406 28.6919 60.5504 28.135 60.5504C27.5781 60.5504 27.0266 60.4406 26.5121 60.2275C25.9976 60.0143 25.5301 59.7018 25.1364 59.3079L14.7379 48.9094C13.9461 48.1123 13.5018 47.0344 13.5018 45.9108C13.5018 44.7873 13.9461 43.7094 14.7379 42.9123L36.3598 21.329C36.7788 20.9149 37.3188 20.6449 37.9014 20.5581L50.6202 18.739H50.9979C51.7119 18.7336 52.399 19.0107 52.9096 19.5098L53.4569 20.0571L47.375 26.1313C46.7553 25.6507 45.9757 25.4244 45.195 25.4983C44.4143 25.5722 43.6911 25.9408 43.1726 26.5291C42.6541 27.1173 42.3791 27.8811 42.4038 28.6649C42.4285 29.4487 42.7509 30.1936 43.3054 30.7482C43.8599 31.3027 44.6048 31.625 45.3886 31.6497C46.1724 31.6744 46.9362 31.3995 47.5245 30.8809C48.1127 30.3624 48.4813 29.6392 48.5552 28.8585C48.6291 28.0778 48.4028 27.2983 47.9223 26.6785L53.9579 20.5658L54.5283 21.1131ZM47.1129 30.155C46.6745 30.5635 46.0947 30.7859 45.4956 30.7753C44.8965 30.7647 44.3249 30.522 43.9012 30.0983C43.4775 29.6747 43.2348 29.103 43.2243 28.504C43.2137 27.9049 43.4361 27.325 43.8446 26.8867C44.2782 26.4536 44.8659 26.2104 45.4787 26.2104C46.0915 26.2104 46.6793 26.4536 47.1129 26.8867C47.5459 27.3203 47.7892 27.908 47.7892 28.5208C47.7892 29.1337 47.5459 29.7214 47.1129 30.155Z"/>
</mask>
<path d="M60.9879 13.0194C60.9146 12.9483 60.8164 12.9085 60.7142 12.9085C60.6121 12.9085 60.514 12.9483 60.4406 13.0194L53.9579 19.4713L53.4183 18.9317C53.0365 18.5517 52.5722 18.265 52.0615 18.0938C51.5507 17.9227 51.0074 17.8718 50.4737 17.945L37.7704 19.7642C37.0297 19.8722 36.3433 20.2154 35.8125 20.7431L14.1983 42.3958C13.7324 42.8606 13.3628 43.4126 13.1106 44.0204C12.8583 44.6282 12.7285 45.2798 12.7285 45.9378C12.7285 46.5959 12.8583 47.2474 13.1106 47.8552C13.3628 48.463 13.7324 49.0151 14.1983 49.4798L24.5506 59.809C25.4912 60.7462 26.7648 61.2724 28.0926 61.2724C29.4204 61.2724 30.694 60.7462 31.6346 59.809L53.2564 38.1871C53.7874 37.6576 54.1335 36.971 54.2431 36.2292L56.0546 23.5104C56.1312 22.9773 56.0826 22.4337 55.9127 21.9226C55.7428 21.4115 55.4562 20.947 55.0756 20.5658L54.5283 20.0417L60.9879 13.5898C61.0266 13.5531 61.0574 13.5088 61.0785 13.4598C61.0996 13.4108 61.1105 13.358 61.1105 13.3046C61.1105 13.2512 61.0996 13.1984 61.0785 13.1494C61.0574 13.1003 61.0266 13.0561 60.9879 13.0194ZM54.5283 21.1131C54.8308 21.41 55.0584 21.7744 55.1925 22.1765C55.3265 22.5785 55.363 23.0067 55.2991 23.4256L53.4877 36.1444C53.4046 36.7282 53.1341 37.2693 52.7169 37.686L31.1335 59.3079C30.7398 59.7018 30.2724 60.0143 29.7579 60.2275C29.2434 60.4406 28.6919 60.5504 28.135 60.5504C27.5781 60.5504 27.0266 60.4406 26.5121 60.2275C25.9976 60.0143 25.5301 59.7018 25.1364 59.3079L14.7379 48.9094C13.9461 48.1123 13.5018 47.0344 13.5018 45.9108C13.5018 44.7873 13.9461 43.7094 14.7379 42.9123L36.3598 21.329C36.7788 20.9149 37.3188 20.6449 37.9014 20.5581L50.6202 18.739H50.9979C51.7119 18.7336 52.399 19.0107 52.9096 19.5098L53.4569 20.0571L47.375 26.1313C46.7553 25.6507 45.9757 25.4244 45.195 25.4983C44.4143 25.5722 43.6911 25.9408 43.1726 26.5291C42.6541 27.1173 42.3791 27.8811 42.4038 28.6649C42.4285 29.4487 42.7509 30.1936 43.3054 30.7482C43.8599 31.3027 44.6048 31.625 45.3886 31.6497C46.1724 31.6744 46.9362 31.3995 47.5245 30.8809C48.1127 30.3624 48.4813 29.6392 48.5552 28.8585C48.6291 28.0778 48.4028 27.2983 47.9223 26.6785L53.9579 20.5658L54.5283 21.1131ZM47.1129 30.155C46.6745 30.5635 46.0947 30.7859 45.4956 30.7753C44.8965 30.7647 44.3249 30.522 43.9012 30.0983C43.4775 29.6747 43.2348 29.103 43.2243 28.504C43.2137 27.9049 43.4361 27.325 43.8446 26.8867C44.2782 26.4536 44.8659 26.2104 45.4787 26.2104C46.0915 26.2104 46.6793 26.4536 47.1129 26.8867C47.5459 27.3203 47.7892 27.908 47.7892 28.5208C47.7892 29.1337 47.5459 29.7214 47.1129 30.155Z" fill="#F98B0E"/>
<path d="M60.9879 13.0194L57.5075 16.6092L57.527 16.6281L57.5467 16.6468L60.9879 13.0194ZM60.7142 12.9085V7.90851V12.9085ZM60.4406 13.0194L56.9602 9.42955L56.9367 9.45234L56.9135 9.47543L60.4406 13.0194ZM53.9579 19.4713L50.4224 23.0068L53.9495 26.5339L57.485 23.0152L53.9579 19.4713ZM53.4183 18.9317L56.9539 15.3961L56.9455 15.3878L53.4183 18.9317ZM50.4737 17.945L49.7939 12.9914L49.7794 12.9934L49.7649 12.9955L50.4737 17.945ZM37.7704 19.7642L37.0616 14.8147L37.0488 14.8165L37.7704 19.7642ZM35.8125 20.7431L32.2873 17.1972L32.2805 17.204L32.2738 17.2107L35.8125 20.7431ZM14.1983 42.3958L17.7293 45.9359L17.737 45.9282L14.1983 42.3958ZM12.7285 45.9378H17.7285H12.7285ZM14.1983 49.4798L17.7299 45.9403L17.7293 45.9397L14.1983 49.4798ZM24.5506 59.809L21.019 63.3484L21.0214 63.3508L24.5506 59.809ZM31.6346 59.809L35.1638 63.3508L35.1701 63.3445L31.6346 59.809ZM53.2564 38.1871L49.7261 34.6464L49.7209 34.6516L53.2564 38.1871ZM54.2431 36.2292L59.1894 36.9601L59.1913 36.9472L59.1932 36.9342L54.2431 36.2292ZM56.0546 23.5104L51.1054 22.799L51.1045 22.8054L56.0546 23.5104ZM55.0756 20.5658L58.6136 17.0328L58.5743 16.9934L58.534 16.9548L55.0756 20.5658ZM54.5283 20.0417L50.9949 16.504L47.3779 20.1167L51.0699 23.6527L54.5283 20.0417ZM60.9879 13.5898L57.5467 9.96235L57.5 10.0067L57.4545 10.0522L60.9879 13.5898ZM54.5283 21.1131L58.0302 17.5443L58.0102 17.5246L57.99 17.5052L54.5283 21.1131ZM55.2991 23.4256L50.3563 22.6717L50.3526 22.6961L50.3491 22.7206L55.2991 23.4256ZM53.4877 36.1444L48.5376 35.4394L48.5376 35.4399L53.4877 36.1444ZM52.7169 37.686L49.1832 34.1487L49.1782 34.1537L52.7169 37.686ZM31.1335 59.3079L34.6699 62.8426L34.6722 62.8403L31.1335 59.3079ZM25.1364 59.3079L28.6728 55.7732L28.672 55.7724L25.1364 59.3079ZM14.7379 48.9094L11.1904 52.4329L11.1964 52.4389L11.2024 52.4449L14.7379 48.9094ZM13.5018 45.9108H18.5018H13.5018ZM14.7379 42.9123L11.2055 39.3736L11.198 39.3812L11.1904 39.3887L14.7379 42.9123ZM36.3598 21.329L32.8454 17.7724L32.8364 17.7813L32.8274 17.7903L36.3598 21.329ZM37.9014 20.5581L37.1935 15.6085L37.1791 15.6106L37.1648 15.6127L37.9014 20.5581ZM50.6202 18.739V13.739H50.2644L49.9122 13.7893L50.6202 18.739ZM50.9979 18.739V23.739H51.0167L51.0354 23.7388L50.9979 18.739ZM52.9096 19.5098L56.4451 15.9743L56.4251 15.9542L56.4048 15.9344L52.9096 19.5098ZM53.4569 20.0571L56.9901 23.5949L60.5302 20.0593L56.9924 16.5216L53.4569 20.0571ZM47.375 26.1313L44.3112 30.0826L47.7919 32.7815L50.9083 29.669L47.375 26.1313ZM47.9223 26.6785L44.3644 23.1655L41.2875 26.2817L43.9709 29.7424L47.9223 26.6785ZM53.9579 20.5658L57.4195 16.9579L53.863 13.5456L50.4 17.0528L53.9579 20.5658ZM47.1129 30.155L50.5215 33.8131L50.5872 33.7519L50.6506 33.6883L47.1129 30.155ZM43.8446 26.8867L40.3112 23.3489L40.2477 23.4124L40.1865 23.4781L43.8446 26.8867ZM47.1129 26.8867L50.6506 23.3533L50.6462 23.3489L47.1129 26.8867ZM64.4683 9.42955C63.4621 8.45401 62.1156 7.90851 60.7142 7.90851V17.9085C59.5172 17.9085 58.367 17.4425 57.5075 16.6092L64.4683 9.42955ZM60.7142 7.90851C59.3128 7.90851 57.9664 8.45406 56.9602 9.42955L63.921 16.6092C63.0615 17.4425 61.9114 17.9085 60.7142 17.9085V7.90851ZM56.9135 9.47543L50.4308 15.9273L57.485 23.0152L63.9677 16.5633L56.9135 9.47543ZM57.4934 15.9357L56.9539 15.3961L49.8828 22.4672L50.4224 23.0068L57.4934 15.9357ZM56.9455 15.3878C56.0182 14.4649 54.8905 13.7685 53.65 13.3529L50.4729 22.8348C50.2539 22.7614 50.0548 22.6385 49.8911 22.4755L56.9455 15.3878ZM53.65 13.3529C52.4096 12.9373 51.0899 12.8136 49.7939 12.9914L51.1536 22.8986C50.9248 22.93 50.6918 22.9081 50.4729 22.8348L53.65 13.3529ZM49.7649 12.9955L37.0616 14.8147L38.4792 24.7137L51.1825 22.8945L49.7649 12.9955ZM37.0488 14.8165C35.2475 15.0792 33.5783 15.9138 32.2873 17.1972L39.3376 24.289C39.1084 24.5169 38.8119 24.6652 38.492 24.7118L37.0488 14.8165ZM32.2738 17.2107L10.6596 38.8635L17.737 45.9282L39.3512 24.2755L32.2738 17.2107ZM10.6673 38.8558C9.73576 39.7849 8.99667 40.8888 8.49238 42.104L17.7287 45.9368C17.7289 45.9365 17.7291 45.9362 17.7293 45.9359L10.6673 38.8558ZM8.49238 42.104C7.98809 43.3193 7.72852 44.6221 7.72852 45.9378H17.7285C17.7285 45.9375 17.7286 45.9371 17.7287 45.9368L8.49238 42.104ZM7.72852 45.9378C7.72852 47.2535 7.98809 48.5564 8.49238 49.7716L17.7287 45.9389C17.7286 45.9385 17.7285 45.9382 17.7285 45.9378H7.72852ZM8.49238 49.7716C8.99667 50.9869 9.73576 52.0907 10.6673 53.0199L17.7293 45.9397C17.7291 45.9395 17.7289 45.9392 17.7287 45.9389L8.49238 49.7716ZM10.6667 53.0193L21.019 63.3484L28.0822 56.2695L17.7299 45.9403L10.6667 53.0193ZM21.0214 63.3508C22.8991 65.2218 25.4418 66.2724 28.0926 66.2724V56.2724C28.0878 56.2724 28.0832 56.2705 28.0798 56.2671L21.0214 63.3508ZM28.0926 66.2724C30.7433 66.2724 33.286 65.2218 35.1637 63.3508L28.1054 56.2671C28.102 56.2705 28.0974 56.2724 28.0926 56.2724V66.2724ZM35.1701 63.3445L56.792 41.7226L49.7209 34.6516L28.099 56.2734L35.1701 63.3445ZM56.7868 41.7278C58.0798 40.4386 58.9224 38.7665 59.1894 36.9601L49.2968 35.4982C49.3445 35.1754 49.4951 34.8767 49.7261 34.6464L56.7868 41.7278ZM59.1932 36.9342L61.0046 24.2154L51.1045 22.8054L49.2931 35.5242L59.1932 36.9342ZM61.0037 24.2218C61.1908 22.9202 61.0722 21.593 60.6574 20.3451L51.168 23.5C51.093 23.2744 51.0716 23.0344 51.1054 22.799L61.0037 24.2218ZM60.6574 20.3451C60.2425 19.0973 59.5428 17.9633 58.6136 17.0328L51.5376 24.0989C51.3696 23.9307 51.2431 23.7256 51.168 23.5L60.6574 20.3451ZM58.534 16.9548L57.9867 16.4307L51.0699 23.6527L51.6172 24.1768L58.534 16.9548ZM58.0617 23.5793L64.5213 17.1274L57.4545 10.0522L50.9949 16.504L58.0617 23.5793ZM64.4291 17.2172C64.9602 16.7134 65.3832 16.1066 65.6723 15.4339L56.4847 11.4857C56.7317 10.911 57.0931 10.3927 57.5467 9.96235L64.4291 17.2172ZM65.6723 15.4339C65.9615 14.761 66.1105 14.0365 66.1105 13.3046H56.1105C56.1105 12.6795 56.2377 12.0606 56.4847 11.4857L65.6723 15.4339ZM66.1105 13.3046C66.1105 12.5727 65.9615 11.8482 65.6723 11.1753L56.4847 15.1235C56.2377 14.5486 56.1105 13.9297 56.1105 13.3046H66.1105ZM65.6723 11.1753C65.3832 10.5026 64.9602 9.89581 64.4291 9.39193L57.5467 16.6468C57.093 16.2164 56.7317 15.6981 56.4847 15.1235L65.6723 11.1753ZM51.0264 24.682C50.7635 24.424 50.5656 24.1071 50.4491 23.7576L59.9359 20.5953C59.5513 19.4417 58.8982 18.396 58.0302 17.5443L51.0264 24.682ZM50.4491 23.7576C50.3325 23.4081 50.3008 23.0359 50.3563 22.6717L60.242 24.1796C60.4253 22.9775 60.3204 21.749 59.9359 20.5953L50.4491 23.7576ZM50.3491 22.7206L48.5376 35.4394L58.4377 36.8494L60.2492 24.1306L50.3491 22.7206ZM48.5376 35.4399C48.6072 34.9509 48.8337 34.4977 49.1832 34.1487L56.2505 41.2234C57.4344 40.0408 58.202 38.5056 58.4378 36.8489L48.5376 35.4399ZM49.1782 34.1537L27.5948 55.7755L34.6722 62.8403L56.2555 41.2184L49.1782 34.1537ZM27.5972 55.7732C27.6678 55.7026 27.7516 55.6465 27.8439 55.6083L31.6718 64.8466C32.7931 64.382 33.8119 63.7011 34.6699 62.8426L27.5972 55.7732ZM27.8439 55.6083C27.9362 55.5701 28.0351 55.5504 28.135 55.5504V65.5504C29.3487 65.5504 30.5505 65.3112 31.6718 64.8466L27.8439 55.6083ZM28.135 55.5504C28.2349 55.5504 28.3338 55.5701 28.4261 55.6083L24.5981 64.8466C25.7194 65.3112 26.9213 65.5504 28.135 65.5504V55.5504ZM28.4261 55.6083C28.5183 55.6465 28.6022 55.7026 28.6728 55.7732L21.6001 62.8426C22.4581 63.7011 23.4769 64.382 24.5981 64.8466L28.4261 55.6083ZM28.672 55.7724L18.2734 45.3738L11.2024 52.4449L21.6009 62.8435L28.672 55.7724ZM18.2854 45.3858C18.424 45.5254 18.5018 45.7141 18.5018 45.9108H8.5018C8.5018 48.3546 9.4683 50.6991 11.1904 52.4329L18.2854 45.3858ZM18.5018 45.9108C18.5018 46.1076 18.424 46.2963 18.2854 46.4358L11.1904 39.3887C9.4683 41.1226 8.5018 43.4671 8.5018 45.9108H18.5018ZM18.2703 46.451L39.8921 24.8677L32.8274 17.7903L11.2055 39.3736L18.2703 46.451ZM39.8742 24.8855C39.5382 25.2175 39.1052 25.434 38.638 25.5036L37.1648 15.6127C35.5323 15.8559 34.0195 16.6123 32.8454 17.7724L39.8742 24.8855ZM38.6094 25.5078L51.3281 23.6886L49.9122 13.7893L37.1935 15.6085L38.6094 25.5078ZM50.6202 23.739H50.9979V13.739H50.6202V23.739ZM51.0354 23.7388C50.43 23.7434 49.8473 23.5084 49.4143 23.0852L56.4048 15.9344C54.9508 14.513 52.9938 13.7239 50.9604 13.7391L51.0354 23.7388ZM49.374 23.0453L49.9213 23.5926L56.9924 16.5216L56.4451 15.9743L49.374 23.0453ZM49.9236 16.5193L43.8417 22.5935L50.9083 29.669L56.9901 23.5949L49.9236 16.5193ZM50.4388 22.1799C48.8141 20.9202 46.7705 20.3268 44.7238 20.5206L45.6662 30.476C45.181 30.522 44.6964 30.3813 44.3112 30.0826L50.4388 22.1799ZM44.7238 20.5206C42.6771 20.7143 40.7812 21.6806 39.4217 23.2228L46.9234 29.8353C46.6011 30.201 46.1516 30.4301 45.6662 30.476L44.7238 20.5206ZM39.4217 23.2228C38.0623 24.7651 37.3416 26.7673 37.4063 28.8222L47.4013 28.5076C47.4167 28.9948 47.2458 29.4696 46.9234 29.8353L39.4217 23.2228ZM37.4063 28.8222C37.471 30.877 38.3161 32.83 39.7698 34.2837L46.8409 27.2126C47.1856 27.5573 47.386 28.0204 47.4013 28.5076L37.4063 28.8222ZM39.7698 34.2837C41.2235 35.7374 43.1765 36.5826 45.2314 36.6472L45.5459 26.6522C46.0331 26.6675 46.4962 26.8679 46.8409 27.2126L39.7698 34.2837ZM45.2314 36.6472C47.2862 36.7119 49.2885 35.9912 50.8307 34.6318L44.2182 27.1301C44.5839 26.8078 45.0587 26.6369 45.5459 26.6522L45.2314 36.6472ZM50.8307 34.6318C52.3729 33.2724 53.3392 31.3764 53.533 29.3297L43.5775 28.3873C43.6234 27.902 43.8525 27.4524 44.2182 27.1301L50.8307 34.6318ZM53.533 29.3297C53.7267 27.283 53.1333 25.2394 51.8736 23.6147L43.9709 29.7424C43.6722 29.3571 43.5315 28.8726 43.5775 28.3873L53.533 29.3297ZM51.4802 30.1916L57.5158 24.0789L50.4 17.0528L44.3644 23.1655L51.4802 30.1916ZM50.4962 24.1737L51.0667 24.721L57.99 17.5052L57.4195 16.9579L50.4962 24.1737ZM43.7043 26.497C44.2137 26.0222 44.8876 25.7638 45.5838 25.7761L45.4074 35.7745C47.3019 35.8079 49.1353 35.1047 50.5215 33.8131L43.7043 26.497ZM45.5838 25.7761C46.2801 25.7884 46.9444 26.0704 47.4368 26.5628L40.3657 33.6339C41.7055 34.9736 43.513 35.7411 45.4074 35.7745L45.5838 25.7761ZM47.4368 26.5628C47.9291 27.0552 48.2112 27.7195 48.2235 28.4157L38.225 28.5922C38.2585 30.4866 39.0259 32.2941 40.3657 33.6339L47.4368 26.5628ZM48.2235 28.4157C48.2358 29.112 47.9773 29.7858 47.5026 30.2953L40.1865 23.4781C38.8948 24.8643 38.1916 26.6977 38.225 28.5922L48.2235 28.4157ZM47.3779 30.4244C46.874 30.9277 46.1909 31.2104 45.4787 31.2104V21.2104C43.5409 21.2104 41.6823 21.9796 40.3112 23.3489L47.3779 30.4244ZM45.4787 31.2104C44.7665 31.2104 44.0835 30.9277 43.5796 30.4244L50.6462 23.3489C49.2751 21.9796 47.4166 21.2104 45.4787 21.2104V31.2104ZM43.5752 30.42C43.0719 29.9161 42.7892 29.2331 42.7892 28.5208H52.7892C52.7892 26.583 52.02 24.7244 50.6506 23.3533L43.5752 30.42ZM42.7892 28.5208C42.7892 27.8086 43.0719 27.1256 43.5752 26.6217L50.6506 33.6883C52.02 32.3173 52.7892 30.4587 52.7892 28.5208H42.7892Z" fill="#EF8F21" mask="url(#path-2-inside-1_4213_26)"/>
<path d="M25.5986 42.2725C25.5632 42.2371 25.5211 42.209 25.4748 42.1898C25.4285 42.1706 25.3789 42.1608 25.3288 42.1608C25.2787 42.1608 25.2291 42.1706 25.1828 42.1898C25.1365 42.209 25.0944 42.2371 25.059 42.2725C25.0236 42.3079 24.9955 42.35 24.9763 42.3963C24.9571 42.4426 24.9473 42.4922 24.9473 42.5423C24.9473 42.5924 24.9571 42.642 24.9763 42.6883C24.9955 42.7346 25.0236 42.7767 25.059 42.8121L31.0561 48.8092C31.0907 48.8461 31.1325 48.8754 31.1789 48.8955C31.2253 48.9156 31.2753 48.926 31.3259 48.926C31.3765 48.926 31.4265 48.9156 31.4729 48.8955C31.5193 48.8754 31.5611 48.8461 31.5957 48.8092C31.6318 48.7734 31.6605 48.7307 31.68 48.6838C31.6996 48.6368 31.7097 48.5864 31.7097 48.5355C31.7097 48.4847 31.6996 48.4343 31.68 48.3873C31.6605 48.3403 31.6318 48.2977 31.5957 48.2619L25.5986 42.2725Z" fill="#F98B0E"/>
<path d="M22.3528 45.5408C22.3182 45.504 22.2764 45.4746 22.23 45.4545C22.1836 45.4344 22.1336 45.424 22.083 45.424C22.0325 45.424 21.9824 45.4344 21.936 45.4545C21.8896 45.4746 21.8478 45.504 21.8132 45.5408C21.7771 45.5767 21.7484 45.6193 21.7289 45.6663C21.7093 45.7132 21.6992 45.7636 21.6992 45.8145C21.6992 45.8654 21.7093 45.9157 21.7289 45.9627C21.7484 46.0097 21.7771 46.0523 21.8132 46.0881L27.7486 52.0775C27.8222 52.1513 27.922 52.1929 28.0261 52.1931C28.1278 52.1917 28.2248 52.1501 28.2959 52.0775C28.3328 52.0429 28.3622 52.0011 28.3823 51.9547C28.4024 51.9083 28.4127 51.8583 28.4127 51.8077C28.4127 51.7571 28.4024 51.7071 28.3823 51.6607C28.3622 51.6143 28.3328 51.5725 28.2959 51.5379L22.3528 45.5408Z" fill="#F98B0E"/>
<path d="M23.9641 43.9375C23.9295 43.9006 23.8877 43.8712 23.8413 43.8512C23.7949 43.8311 23.7449 43.8207 23.6943 43.8207C23.6438 43.8207 23.5938 43.8311 23.5473 43.8512C23.5009 43.8712 23.4592 43.9006 23.4246 43.9375C23.3884 43.9733 23.3598 44.016 23.3402 44.0629C23.3206 44.1099 23.3105 44.1603 23.3105 44.2112C23.3105 44.262 23.3206 44.3124 23.3402 44.3594C23.3598 44.4063 23.3884 44.449 23.4246 44.4848L29.4139 50.4742C29.4875 50.548 29.5873 50.5895 29.6914 50.5898C29.7669 50.5887 29.8403 50.5656 29.9027 50.5231C29.9651 50.4807 30.0137 50.4209 30.0424 50.3512C30.0711 50.2814 30.0787 50.2047 30.0643 50.1307C30.0499 50.0566 30.014 49.9885 29.9612 49.9346L23.9641 43.9375Z" fill="#F98B0E"/>
<path d="M28.8755 38.9965C28.8029 38.9239 28.7045 38.8831 28.6018 38.8831C28.4992 38.8831 28.4008 38.9239 28.3282 38.9965C28.2556 39.069 28.2148 39.1675 28.2148 39.2701C28.2148 39.3727 28.2556 39.4712 28.3282 39.5438L34.3253 45.5408C34.3603 45.5771 34.4021 45.6061 34.4485 45.6259C34.4948 45.6458 34.5447 45.6562 34.5951 45.6565C34.6992 45.6562 34.799 45.6146 34.8726 45.5408C34.9437 45.4675 34.9834 45.3693 34.9834 45.2672C34.9834 45.165 34.9437 45.0669 34.8726 44.9935L28.8755 38.9965Z" fill="#F98B0E"/>
<mask id="path-8-inside-2_4213_26" fill="white">
<path d="M27.2403 40.6383C27.2044 40.6022 27.1618 40.5735 27.1148 40.554C27.0679 40.5344 27.0175 40.5243 26.9666 40.5243C26.9157 40.5243 26.8654 40.5344 26.8184 40.554C26.7714 40.5735 26.7288 40.6022 26.693 40.6383C26.6561 40.6729 26.6267 40.7147 26.6066 40.7611C26.5865 40.8075 26.5762 40.8576 26.5762 40.9081C26.5762 40.9587 26.5865 41.0087 26.6066 41.0551C26.6267 41.1015 26.6561 41.1433 26.693 41.1779L32.6901 47.175C32.7247 47.2119 32.7664 47.2412 32.8128 47.2613C32.8593 47.2814 32.9093 47.2918 32.9598 47.2918C33.0104 47.2918 33.0604 47.2814 33.1068 47.2613C33.1532 47.2412 33.195 47.2119 33.2296 47.175C33.2658 47.1392 33.2944 47.0965 33.314 47.0496C33.3336 47.0026 33.3436 46.9522 33.3436 46.9013C33.3436 46.8505 33.3336 46.8001 33.314 46.7531C33.2944 46.7062 33.2658 46.6635 33.2296 46.6277L27.2403 40.6383Z"/>
</mask>
<path d="M27.2403 40.6383C27.2044 40.6022 27.1618 40.5735 27.1148 40.554C27.0679 40.5344 27.0175 40.5243 26.9666 40.5243C26.9157 40.5243 26.8654 40.5344 26.8184 40.554C26.7714 40.5735 26.7288 40.6022 26.693 40.6383C26.6561 40.6729 26.6267 40.7147 26.6066 40.7611C26.5865 40.8075 26.5762 40.8576 26.5762 40.9081C26.5762 40.9587 26.5865 41.0087 26.6066 41.0551C26.6267 41.1015 26.6561 41.1433 26.693 41.1779L32.6901 47.175C32.7247 47.2119 32.7664 47.2412 32.8128 47.2613C32.8593 47.2814 32.9093 47.2918 32.9598 47.2918C33.0104 47.2918 33.0604 47.2814 33.1068 47.2613C33.1532 47.2412 33.195 47.2119 33.2296 47.175C33.2658 47.1392 33.2944 47.0965 33.314 47.0496C33.3336 47.0026 33.3436 46.9522 33.3436 46.9013C33.3436 46.8505 33.3336 46.8001 33.314 46.7531C33.2944 46.7062 33.2658 46.6635 33.2296 46.6277L27.2403 40.6383Z" fill="#F98B0E"/>
<path d="M27.2403 40.6383L26.5303 41.3425L26.5332 41.3454L27.2403 40.6383ZM26.693 40.6383L27.3773 41.3675L27.3904 41.3552L27.403 41.3425L26.693 40.6383ZM26.5762 40.9081H27.5762H26.5762ZM26.693 41.1779L27.4001 40.4708L27.3889 40.4596L27.3773 40.4487L26.693 41.1779ZM32.6901 47.175L33.4192 46.4907L33.4084 46.4791L33.3972 46.4679L32.6901 47.175ZM32.9598 47.2918V46.2918V47.2918ZM33.2296 47.175L32.5254 46.465L32.5127 46.4776L32.5005 46.4907L33.2296 47.175ZM33.2296 46.6277L32.5225 47.3348L32.5254 47.3377L33.2296 46.6277ZM27.9503 39.9341C27.8215 39.8043 27.6682 39.7012 27.4994 39.6309L26.7303 41.4771C26.6554 41.4458 26.5874 41.4001 26.5303 41.3425L27.9503 39.9341ZM27.4994 39.6309C27.3306 39.5605 27.1495 39.5243 26.9666 39.5243V41.5243C26.8855 41.5243 26.8052 41.5083 26.7303 41.4771L27.4994 39.6309ZM26.9666 39.5243C26.7837 39.5243 26.6027 39.5605 26.4338 39.6309L27.203 41.4771C27.1281 41.5083 27.0477 41.5243 26.9666 41.5243V39.5243ZM26.4338 39.6309C26.265 39.7012 26.1118 39.8043 25.983 39.9341L27.403 41.3425C27.3458 41.4001 27.2779 41.4458 27.203 41.4771L26.4338 39.6309ZM26.0086 39.9092C25.8721 40.0373 25.7633 40.192 25.6889 40.3638L27.5243 41.1584C27.4901 41.2374 27.4401 41.3086 27.3773 41.3675L26.0086 39.9092ZM25.6889 40.3638C25.6145 40.5357 25.5762 40.7209 25.5762 40.9081H27.5762C27.5762 40.9942 27.5585 41.0794 27.5243 41.1584L25.6889 40.3638ZM25.5762 40.9081C25.5762 41.0953 25.6145 41.2806 25.6889 41.4524L27.5243 40.6578C27.5585 40.7369 27.5762 40.822 27.5762 40.9081H25.5762ZM25.6889 41.4524C25.7633 41.6242 25.8721 41.779 26.0086 41.9071L27.3773 40.4487C27.4401 40.5076 27.4901 40.5788 27.5243 40.6578L25.6889 41.4524ZM25.9859 41.885L31.9829 47.8821L33.3972 46.4679L27.4001 40.4708L25.9859 41.885ZM31.9609 47.8593C32.089 47.9959 32.2438 48.1047 32.4156 48.179L33.2101 46.3436C33.2891 46.3778 33.3603 46.4279 33.4192 46.4907L31.9609 47.8593ZM32.4156 48.179C32.5873 48.2534 32.7726 48.2918 32.9598 48.2918V46.2918C33.046 46.2918 33.1312 46.3095 33.2101 46.3436L32.4156 48.179ZM32.9598 48.2918C33.1471 48.2918 33.3323 48.2534 33.5041 48.179L32.7096 46.3436C32.7885 46.3094 32.8737 46.2918 32.9598 46.2918V48.2918ZM33.5041 48.179C33.6759 48.1047 33.8307 47.9959 33.9588 47.8593L32.5005 46.4907C32.5594 46.4279 32.6306 46.3778 32.7096 46.3436L33.5041 48.179ZM33.9338 47.885C34.0637 47.7562 34.1668 47.603 34.2371 47.4341L32.3909 46.665C32.4221 46.5901 32.4678 46.5221 32.5254 46.465L33.9338 47.885ZM34.2371 47.4341C34.3074 47.2653 34.3436 47.0843 34.3436 46.9013H32.3436C32.3436 46.8202 32.3597 46.7399 32.3909 46.665L34.2371 47.4341ZM34.3436 46.9013C34.3436 46.7184 34.3074 46.5374 34.2371 46.3685L32.3909 47.1377C32.3597 47.0628 32.3436 46.9825 32.3436 46.9013H34.3436ZM34.2371 46.3685C34.1668 46.1997 34.0637 46.0465 33.9338 45.9177L32.5254 47.3377C32.4678 47.2806 32.4221 47.2126 32.3909 47.1377L34.2371 46.3685ZM33.9367 45.9206L27.9474 39.9312L26.5332 41.3454L32.5225 47.3348L33.9367 45.9206Z" fill="#EF8F21" mask="url(#path-8-inside-2_4213_26)"/>
</svg>
