<svg width="18" height="17" viewBox="0 0 18 17" fill="none" xmlns="http://www.w3.org/2000/svg">
<g clip-path="url(#clip0_747_30)">
<path d="M15.9863 16.4495L14.7123 4.31751C14.6856 4.06354 14.4715 3.87069 14.2161 3.87069H11.8216V3.32475C11.8216 1.623 10.437 0.238403 8.73529 0.238403C7.03342 0.238403 5.64882 1.623 5.64882 3.32475V3.87069H3.25432C2.99894 3.87069 2.78486 4.06354 2.75813 4.31751L1.48415 16.4495C1.46945 16.59 1.5151 16.7303 1.60961 16.8354C1.70424 16.9404 1.83903 17.0004 1.98034 17.0004H15.49C15.6314 17.0004 15.7662 16.9404 15.8607 16.8354C15.9555 16.7303 16.001 16.59 15.9863 16.4495ZM6.64657 3.32475C6.64657 2.17316 7.58357 1.23615 8.73529 1.23615C9.88689 1.23615 10.8239 2.17316 10.8239 3.32475V3.87069H6.64657V3.32475ZM2.53434 16.0026L3.70358 4.86844H5.64882V5.96785C5.64882 6.24332 5.87223 6.46673 6.14769 6.46673C6.42316 6.46673 6.64657 6.24332 6.64657 5.96785V4.86844H10.8239V5.96785C10.8239 6.24332 11.0473 6.46673 11.3228 6.46673C11.5982 6.46673 11.8216 6.24332 11.8216 5.96785V4.86844H13.7669L14.9361 16.0026H2.53434Z" fill="#212E1D"/>
</g>
<defs>
<clipPath id="clip0_747_30">
<rect width="16.762" height="16.762" fill="white" transform="translate(0.335938 0.238403)"/>
</clipPath>
</defs>
</svg>
