<svg width="18" height="18" viewBox="0 0 18 18" fill="none" xmlns="http://www.w3.org/2000/svg">
<g clip-path="url(#clip0_747_25)">
<path d="M2.77424 11.4866C4.12075 11.4866 5.21183 10.3955 5.21183 9.04898C5.21183 7.70245 4.12075 6.61139 2.77424 6.61139C1.42604 6.6097 0.334961 7.70078 0.334961 9.04729C0.334961 10.3938 1.42604 11.4866 2.77424 11.4866ZM2.77424 7.87163C3.42212 7.87163 3.9499 8.39941 3.9499 9.04729C3.9499 9.69519 3.42212 10.2229 2.77424 10.2229C2.12636 10.2229 1.59858 9.69519 1.59858 9.04729C1.59858 8.39941 2.12467 7.87163 2.77424 7.87163Z" fill="black"/>
<path d="M6.2793 9.04727C6.2793 10.3938 7.37038 11.4849 8.71689 11.4849C10.0634 11.4849 11.1545 10.3938 11.1545 9.04727C11.1545 7.70076 10.0634 6.60968 8.71689 6.60968C7.37038 6.60968 6.2793 7.70076 6.2793 9.04727ZM9.89255 9.04727C9.89255 9.69517 9.36477 10.2229 8.71689 10.2229C8.06901 10.2229 7.54123 9.69517 7.54123 9.04727C7.54123 8.39939 8.06901 7.87161 8.71689 7.87161C9.36477 7.87161 9.89255 8.39939 9.89255 9.04727Z" fill="black"/>
<path d="M14.6583 6.60968C13.3118 6.60968 12.2207 7.70076 12.2207 9.04727C12.2207 10.3938 13.3118 11.4849 14.6583 11.4849C16.0048 11.4849 17.0959 10.3938 17.0959 9.04727C17.0976 7.70076 16.0065 6.60968 14.6583 6.60968ZM14.6583 10.2229C14.0104 10.2229 13.4826 9.69517 13.4826 9.04727C13.4826 8.39939 14.0104 7.87161 14.6583 7.87161C15.3062 7.87161 15.834 8.39939 15.834 9.04727C15.834 9.69517 15.3079 10.2229 14.6583 10.2229Z" fill="black"/>
</g>
<defs>
<clipPath id="clip0_747_25">
<rect width="16.762" height="16.762" fill="white" transform="translate(0.335938 0.667236)"/>
</clipPath>
</defs>
</svg>
