<svg width="29" height="28" viewBox="0 0 29 28" fill="none" xmlns="http://www.w3.org/2000/svg">
<g clip-path="url(#clip0_1_146)">
<path d="M14.555 0C7.0091 0 0.889832 6.11927 0.889832 13.6652C0.889832 21.2111 7.0091 27.3304 14.555 27.3304C22.101 27.3304 28.2202 21.2111 28.2202 13.6652C28.2202 6.11927 22.101 0 14.555 0ZM14.8447 21.6215C14.8444 21.6215 14.8449 21.6215 14.8447 21.6215H14.8413C13.4724 21.6209 12.1273 21.2776 10.9327 20.6262L6.59708 21.7633L7.75746 17.5263C7.04163 16.2864 6.66505 14.8798 6.66568 13.4388C6.66756 8.93067 10.3366 5.26311 14.8447 5.26311C17.0324 5.26395 19.086 6.11552 20.6301 7.66082C22.1744 9.20633 23.0243 11.2606 23.0234 13.4452C23.0215 17.9535 19.3521 21.6215 14.8447 21.6215Z" fill="white"/>
<path d="M14.8474 6.64404C11.0976 6.64404 8.04812 9.69231 8.04645 13.4393C8.04603 14.7233 8.40551 15.9738 9.08589 17.0558L9.24749 17.3129L8.56064 19.8207L11.1335 19.1459L11.3818 19.2931C12.4255 19.9124 13.6219 20.24 14.8417 20.2404H14.8444C18.5912 20.2404 21.6408 17.192 21.6424 13.4447C21.643 11.6288 20.9366 9.92147 19.6532 8.63702C18.3698 7.35257 16.6629 6.64467 14.8474 6.64404ZM18.8458 16.361C18.6755 16.8381 17.8591 17.2737 17.4665 17.3325C17.1143 17.385 16.6689 17.4069 16.1793 17.2516C15.8824 17.1573 15.5019 17.0316 15.0142 16.8212C12.9643 15.9363 11.6254 13.8728 11.5232 13.7365C11.421 13.6001 10.6887 12.6286 10.6887 11.6229C10.6887 10.6175 11.2167 10.1231 11.4039 9.91876C11.5914 9.71421 11.8128 9.66312 11.949 9.66312C12.0852 9.66312 12.2215 9.66437 12.3406 9.67021C12.4661 9.67647 12.6346 9.62246 12.8004 10.0209C12.9707 10.43 13.3794 11.4355 13.4305 11.5377C13.4816 11.64 13.5156 11.7593 13.4476 11.8957C13.3794 12.0321 13.153 12.3263 12.9367 12.5944C12.846 12.7068 12.7278 12.8069 12.8471 13.0114C12.9661 13.2158 13.3765 13.8849 13.9839 14.4266C14.7646 15.1227 15.4231 15.3383 15.6274 15.4406C15.8315 15.5428 15.9508 15.5257 16.0701 15.3896C16.1891 15.2532 16.5809 14.793 16.7171 14.5884C16.8533 14.3839 16.9896 14.4181 17.1769 14.4863C17.3643 14.5542 18.369 15.0486 18.5733 15.1508C18.7776 15.2532 18.9138 15.3043 18.9649 15.3896C19.0162 15.4748 19.0162 15.8837 18.8458 16.361Z" fill="white"/>
</g>
<defs>
<clipPath id="clip0_1_146">
<rect width="27.3304" height="27.3304" fill="white" transform="translate(0.889832)"/>
</clipPath>
</defs>
</svg>
