<svg width="29" height="28" viewBox="0 0 29 28" fill="none" xmlns="http://www.w3.org/2000/svg">
<g clip-path="url(#clip0_10_222)">
<path d="M14.5558 0C7.0099 0 0.890625 6.11927 0.890625 13.6652C0.890625 21.2111 7.0099 27.3304 14.5558 27.3304C22.1017 27.3304 28.221 21.2111 28.221 13.6652C28.221 6.11927 22.1017 0 14.5558 0ZM14.8454 21.6215C14.8452 21.6215 14.8457 21.6215 14.8454 21.6215H14.8421C13.4732 21.6209 12.1281 21.2776 10.9335 20.6262L6.59787 21.7633L7.75825 17.5263C7.04242 16.2864 6.66585 14.8798 6.66647 13.4388C6.66835 8.93067 10.3374 5.26311 14.8454 5.26311C17.0332 5.26395 19.0868 6.11552 20.6309 7.66082C22.1751 9.20633 23.0251 11.2606 23.0242 13.4452C23.0223 17.9535 19.3529 21.6215 14.8454 21.6215Z" fill="#EF8F21"/>
<path d="M14.8478 6.64404C11.0981 6.64404 8.04854 9.69231 8.04688 13.4393C8.04646 14.7233 8.40594 15.9738 9.08632 17.0558L9.24792 17.3129L8.56107 19.8207L11.1339 19.1459L11.3823 19.2931C12.4259 19.9124 13.6223 20.24 14.8422 20.2404H14.8449C18.5917 20.2404 21.6412 17.192 21.6428 13.4447C21.6435 11.6288 20.937 9.92147 19.6536 8.63702C18.3702 7.35257 16.6633 6.64467 14.8478 6.64404ZM18.8463 16.361C18.6759 16.8381 17.8596 17.2737 17.4669 17.3325C17.1147 17.385 16.6694 17.4069 16.1798 17.2516C15.8828 17.1573 15.5023 17.0316 15.0146 16.8212C12.9647 15.9363 11.6258 13.8728 11.5236 13.7365C11.4215 13.6001 10.6892 12.6286 10.6892 11.6229C10.6892 10.6175 11.2171 10.1231 11.4044 9.91876C11.5918 9.71421 11.8133 9.66312 11.9494 9.66312C12.0856 9.66312 12.222 9.66437 12.341 9.67021C12.4665 9.67647 12.635 9.62246 12.8008 10.0209C12.9712 10.43 13.3798 11.4355 13.4309 11.5377C13.482 11.64 13.516 11.7593 13.448 11.8957C13.3798 12.0321 13.1534 12.3263 12.9372 12.5944C12.8465 12.7068 12.7282 12.8069 12.8475 13.0114C12.9666 13.2158 13.3769 13.8849 13.9843 14.4266C14.765 15.1227 15.4235 15.3383 15.6278 15.4406C15.832 15.5428 15.9512 15.5257 16.0705 15.3896C16.1896 15.2532 16.5814 14.793 16.7175 14.5884C16.8537 14.3839 16.9901 14.4181 17.1773 14.4863C17.3648 14.5542 18.3694 15.0486 18.5737 15.1508C18.7781 15.2532 18.9142 15.3043 18.9653 15.3896C19.0166 15.4748 19.0166 15.8837 18.8463 16.361Z" fill="#EF8F21"/>
</g>
<defs>
<clipPath id="clip0_10_222">
<rect width="27.3304" height="27.3304" fill="white" transform="translate(0.890625)"/>
</clipPath>
</defs>
</svg>
