<svg width="29" height="28" viewBox="0 0 29 28" fill="none" xmlns="http://www.w3.org/2000/svg">
<g clip-path="url(#clip0_1_149)">
<path d="M12.7428 16.2253L17.1879 13.6651L12.7428 11.105V16.2253Z" fill="white"/>
<path d="M14.4449 0C6.899 0 0.779724 6.11927 0.779724 13.6652C0.779724 21.2111 6.899 27.3304 14.4449 27.3304C21.9908 27.3304 28.1101 21.2111 28.1101 13.6652C28.1101 6.11927 21.9908 0 14.4449 0ZM22.9836 13.6792C22.9836 13.6792 22.9836 16.4505 22.632 17.7869C22.435 18.5184 21.8582 19.0951 21.1268 19.292C19.7904 19.6437 14.4449 19.6437 14.4449 19.6437C14.4449 19.6437 9.11342 19.6437 7.76308 19.278C7.03161 19.0812 6.45486 18.5042 6.25781 17.7727C5.90605 16.4505 5.90605 13.6652 5.90605 13.6652C5.90605 13.6652 5.90605 10.894 6.25781 9.55767C6.45465 8.82621 7.04558 8.23528 7.76308 8.03844C9.09945 7.68667 14.4449 7.68667 14.4449 7.68667C14.4449 7.68667 19.7904 7.68667 21.1268 8.05241C21.8582 8.24925 22.435 8.82621 22.632 9.55767C22.9978 10.894 22.9836 13.6792 22.9836 13.6792Z" fill="white"/>
</g>
<defs>
<clipPath id="clip0_1_149">
<rect width="27.3304" height="27.3304" fill="white" transform="translate(0.779724)"/>
</clipPath>
</defs>
</svg>
