<svg width="29" height="28" viewBox="0 0 29 28" fill="none" xmlns="http://www.w3.org/2000/svg">
<g clip-path="url(#clip0_10_225)">
<path d="M12.7422 16.2253L17.1873 13.6651L12.7422 11.105V16.2253Z" fill="#EF8F21"/>
<path d="M14.4445 0C6.89857 0 0.779297 6.11927 0.779297 13.6652C0.779297 21.2111 6.89857 27.3304 14.4445 27.3304C21.9904 27.3304 28.1097 21.2111 28.1097 13.6652C28.1097 6.11927 21.9904 0 14.4445 0ZM22.9832 13.6792C22.9832 13.6792 22.9832 16.4505 22.6316 17.7869C22.4346 18.5184 21.8578 19.0951 21.1263 19.292C19.79 19.6437 14.4445 19.6437 14.4445 19.6437C14.4445 19.6437 9.11299 19.6437 7.76265 19.278C7.03118 19.0812 6.45443 18.5042 6.25739 17.7727C5.90562 16.4505 5.90562 13.6652 5.90562 13.6652C5.90562 13.6652 5.90562 10.894 6.25739 9.55767C6.45422 8.82621 7.04515 8.23528 7.76265 8.03844C9.09902 7.68667 14.4445 7.68667 14.4445 7.68667C14.4445 7.68667 19.79 7.68667 21.1263 8.05241C21.8578 8.24925 22.4346 8.82621 22.6316 9.55767C22.9973 10.894 22.9832 13.6792 22.9832 13.6792Z" fill="#EF8F21"/>
</g>
<defs>
<clipPath id="clip0_10_225">
<rect width="27.3304" height="27.3304" fill="white" transform="translate(0.779297)"/>
</clipPath>
</defs>
</svg>
