<svg width="16" height="16" viewBox="0 0 16 16" fill="none" xmlns="http://www.w3.org/2000/svg">
<g clip-path="url(#clip0_722_198)">
<path d="M8.03125 0C3.63719 0 0 3.57469 0 7.96875C0 12.3628 3.63719 16 8.03125 16C12.4253 16 16 12.3628 16 7.96875C16 3.57469 12.4253 0 8.03125 0ZM12.25 8.90625H8.96875V12.25C8.96875 12.7669 8.54781 13.1875 8.03125 13.1875C7.51437 13.1875 7.09375 12.7669 7.09375 12.25V8.90625H3.75C3.23312 8.90625 2.8125 8.48563 2.8125 7.96875C2.8125 7.45187 3.23312 7.03125 3.75 7.03125H7.09375V3.75C7.09375 3.23312 7.51437 2.8125 8.03125 2.8125C8.54781 2.8125 8.96875 3.23312 8.96875 3.75V7.03125H12.25C12.7666 7.03125 13.1875 7.45187 13.1875 7.96875C13.1875 8.48563 12.7666 8.90625 12.25 8.90625Z" fill="black"/>
</g>
<defs>
<clipPath id="clip0_722_198">
<rect width="16" height="16" fill="white"/>
</clipPath>
</defs>
</svg>
