<svg width="19" height="19" viewBox="0 0 19 19" fill="none" xmlns="http://www.w3.org/2000/svg">
<g clip-path="url(#clip0_237_212)">
<path d="M17.0694 11.6643V4.74369L8.85303 0L0.636719 4.74369V14.2311L8.85303 18.9748L11.0388 17.7128C11.8151 18.5065 12.8971 19 14.0924 19C16.4487 19 18.3656 17.083 18.3656 14.7267C18.3656 13.5269 17.8684 12.4412 17.0694 11.6643ZM8.85303 1.28718L15.3972 5.06547L12.6825 6.63282L6.13833 2.85453L8.85303 1.28718ZM8.29565 17.3657L1.75148 13.5874V6.0309L8.29565 9.8092V17.3657ZM2.30887 5.06547L5.02357 3.49812L11.5678 7.27641L8.85303 8.84376L2.30887 5.06547ZM9.41041 17.3657V9.80916L15.9546 6.03087V10.8811C15.3914 10.6073 14.7595 10.4535 14.0924 10.4535C11.7361 10.4535 9.81914 12.3705 9.81914 14.7268C9.81914 15.4846 10.0177 16.1968 10.3651 16.8146L9.41041 17.3657ZM14.0924 17.8852C12.3508 17.8852 10.9339 16.4683 10.9339 14.7267C10.9339 12.9852 12.3508 11.5683 14.0924 11.5683C15.834 11.5683 17.2509 12.9852 17.2509 14.7267C17.2509 16.4683 15.834 17.8852 14.0924 17.8852Z" fill="black"/>
<path d="M15.4123 13.1075L13.5871 14.9427L12.7696 14.1334L11.9854 14.9257L13.5933 16.5174L16.2027 13.8935L15.4123 13.1075Z" fill="black"/>
</g>
<defs>
<clipPath id="clip0_237_212">
<rect width="19" height="19" fill="white"/>
</clipPath>
</defs>
</svg>
