<svg width="66" height="58" viewBox="0 0 66 58" fill="none" xmlns="http://www.w3.org/2000/svg">
<g filter="url(#filter0_d_4837_104)">
<rect x="10" y="6" width="46" height="38" rx="10" fill="white"/>
</g>
<g clip-path="url(#clip0_4837_104)">
<path d="M41.2826 23.8482L33.5327 23.8478C33.1905 23.8478 32.9131 24.1252 32.9131 24.4674V26.9432C32.9131 27.2853 33.1905 27.5627 33.5327 27.5627H37.8969C37.4191 28.803 36.5271 29.8416 35.3891 30.5016L37.25 33.723C40.2352 31.9966 42 28.9674 42 25.5764C42 25.0936 41.9644 24.7484 41.8933 24.3598C41.8392 24.0645 41.5828 23.8482 41.2826 23.8482Z" fill="#167EE6"/>
<path d="M32.5 31.2826C30.3642 31.2826 28.4997 30.1157 27.4983 28.3889L24.277 30.2456C25.9163 33.0868 28.9872 35 32.5 35C34.2233 35 35.8493 34.536 37.25 33.7274V33.723L35.3891 30.5016C34.5379 30.9953 33.5528 31.2826 32.5 31.2826Z" fill="#12B347"/>
<path d="M37.25 33.7274V33.723L35.3891 30.5015C34.5379 30.9952 33.5529 31.2826 32.5 31.2826V35C34.2232 35 35.8493 34.536 37.25 33.7274Z" fill="#0F993E"/>
<path d="M26.7174 25.5C26.7174 24.4472 27.0047 23.4623 27.4983 22.6111L24.277 20.7544C23.4639 22.1507 23 23.7723 23 25.5C23 27.2276 23.4639 28.8492 24.277 30.2456L27.4983 28.3888C27.0047 27.5377 26.7174 26.5527 26.7174 25.5Z" fill="#FFD500"/>
<path d="M32.5 19.7174C33.8928 19.7174 35.1721 20.2123 36.1713 21.0355C36.4178 21.2385 36.7761 21.2239 37.0019 20.9981L38.7561 19.2439C39.0123 18.9877 38.994 18.5683 38.7204 18.3309C37.0462 16.8785 34.8678 16 32.5 16C28.9872 16 25.9163 17.9132 24.277 20.7544L27.4983 22.6111C28.4997 20.8843 30.3642 19.7174 32.5 19.7174Z" fill="#FF4B26"/>
<path d="M36.1713 21.0355C36.4178 21.2385 36.7762 21.2239 37.0019 20.9981L38.7561 19.2439C39.0122 18.9877 38.994 18.5683 38.7203 18.3309C37.0462 16.8785 34.8678 16 32.5 16V19.7174C33.8927 19.7174 35.1721 20.2123 36.1713 21.0355Z" fill="#D93F21"/>
</g>
<defs>
<filter id="filter0_d_4837_104" x="0" y="0" width="66" height="58" filterUnits="userSpaceOnUse" color-interpolation-filters="sRGB">
<feFlood flood-opacity="0" result="BackgroundImageFix"/>
<feColorMatrix in="SourceAlpha" type="matrix" values="0 0 0 0 0 0 0 0 0 0 0 0 0 0 0 0 0 0 127 0" result="hardAlpha"/>
<feOffset dy="4"/>
<feGaussianBlur stdDeviation="5"/>
<feComposite in2="hardAlpha" operator="out"/>
<feColorMatrix type="matrix" values="0 0 0 0 0 0 0 0 0 0 0 0 0 0 0 0 0 0 0.25 0"/>
<feBlend mode="normal" in2="BackgroundImageFix" result="effect1_dropShadow_4837_104"/>
<feBlend mode="normal" in="SourceGraphic" in2="effect1_dropShadow_4837_104" result="shape"/>
</filter>
<clipPath id="clip0_4837_104">
<rect width="19" height="19" fill="white" transform="translate(23 16)"/>
</clipPath>
</defs>
</svg>
