<svg width="25" height="21" viewBox="0 0 25 21" fill="none" xmlns="http://www.w3.org/2000/svg">
<path d="M3.125 5.03125H21.875C22.4966 5.03125 23.0927 4.78432 23.5323 4.34478C23.9718 3.90524 24.2188 3.3091 24.2188 2.6875C24.2188 2.0659 23.9718 1.46976 23.5323 1.03022C23.0927 0.59068 22.4966 0.34375 21.875 0.34375H3.125C2.5034 0.34375 1.90726 0.59068 1.46772 1.03022C1.02818 1.46976 0.78125 2.0659 0.78125 2.6875C0.78125 3.3091 1.02818 3.90524 1.46772 4.34478C1.90726 4.78432 2.5034 5.03125 3.125 5.03125Z" fill="white"/>
<path d="M21.875 8.15625H3.125C2.5034 8.15625 1.90726 8.40318 1.46772 8.84272C1.02818 9.28226 0.78125 9.8784 0.78125 10.5C0.78125 11.1216 1.02818 11.7177 1.46772 12.1573C1.90726 12.5968 2.5034 12.8438 3.125 12.8438H21.875C22.4966 12.8438 23.0927 12.5968 23.5323 12.1573C23.9718 11.7177 24.2188 11.1216 24.2188 10.5C24.2188 9.8784 23.9718 9.28226 23.5323 8.84272C23.0927 8.40318 22.4966 8.15625 21.875 8.15625Z" fill="white"/>
<path d="M21.875 15.9688H3.125C2.5034 15.9688 1.90726 16.2157 1.46772 16.6552C1.02818 17.0948 0.78125 17.6909 0.78125 18.3125C0.78125 18.9341 1.02818 19.5302 1.46772 19.9698C1.90726 20.4093 2.5034 20.6562 3.125 20.6562H21.875C22.4966 20.6562 23.0927 20.4093 23.5323 19.9698C23.9718 19.5302 24.2188 18.9341 24.2188 18.3125C24.2188 17.6909 23.9718 17.0948 23.5323 16.6552C23.0927 16.2157 22.4966 15.9688 21.875 15.9688Z" fill="white"/>
</svg>
