<svg width="13" height="11" viewBox="0 0 13 11" fill="none" xmlns="http://www.w3.org/2000/svg">
<path d="M1.72607 2.65625H11.4761C11.7993 2.65625 12.1093 2.52785 12.3379 2.29929C12.5664 2.07073 12.6948 1.76073 12.6948 1.4375C12.6948 1.11427 12.5664 0.804274 12.3379 0.575714C12.1093 0.347154 11.7993 0.21875 11.4761 0.21875H1.72607C1.40284 0.21875 1.09285 0.347154 0.864288 0.575714C0.635728 0.804274 0.507324 1.11427 0.507324 1.4375C0.507324 1.76073 0.635728 2.07073 0.864288 2.29929C1.09285 2.52785 1.40284 2.65625 1.72607 2.65625Z" fill="#272020"/>
<path d="M11.4761 4.28125H1.72607C1.40284 4.28125 1.09285 4.40965 0.864288 4.63821C0.635728 4.86677 0.507324 5.17677 0.507324 5.5C0.507324 5.82323 0.635728 6.13323 0.864288 6.36179C1.09285 6.59035 1.40284 6.71875 1.72607 6.71875H11.4761C11.7993 6.71875 12.1093 6.59035 12.3379 6.36179C12.5664 6.13323 12.6948 5.82323 12.6948 5.5C12.6948 5.17677 12.5664 4.86677 12.3379 4.63821C12.1093 4.40965 11.7993 4.28125 11.4761 4.28125Z" fill="#272020"/>
<path d="M11.4761 8.34375H1.72607C1.40284 8.34375 1.09285 8.47215 0.864288 8.70071C0.635728 8.92927 0.507324 9.23927 0.507324 9.5625C0.507324 9.88573 0.635728 10.1957 0.864288 10.4243C1.09285 10.6528 1.40284 10.7812 1.72607 10.7812H11.4761C11.7993 10.7812 12.1093 10.6528 12.3379 10.4243C12.5664 10.1957 12.6948 9.88573 12.6948 9.5625C12.6948 9.23927 12.5664 8.92927 12.3379 8.70071C12.1093 8.47215 11.7993 8.34375 11.4761 8.34375Z" fill="#272020"/>
</svg>
