<svg width="18" height="18" viewBox="0 0 18 18" fill="none" xmlns="http://www.w3.org/2000/svg">
<g clip-path="url(#clip0_747_23)">
<path d="M17.0768 6.2217C16.962 5.01362 16.3807 3.87413 15.4402 3.01306C14.4998 2.15212 13.3083 1.66332 12.0852 1.6367C10.8584 1.61011 9.69856 2.04489 8.70393 2.89895C7.65079 2.02426 6.46162 1.58401 5.24018 1.62092C4.03477 1.65746 2.86627 2.16204 1.95 3.04168C1.02678 3.92799 0.460018 5.09171 0.354091 6.31843C0.23559 7.69119 0.69895 9.01791 1.69414 10.1552C1.69892 10.1607 1.7038 10.166 1.70881 10.1712C1.7518 10.2162 3.45376 11.9952 5.12462 13.7416L7.5334 16.2594C7.84391 16.584 8.26198 16.7627 8.71054 16.7627C9.1591 16.7627 9.57711 16.584 9.88756 16.2595L13.144 12.856C14.4727 11.4673 15.6319 10.2556 15.7125 10.1714C15.7248 10.1586 15.7362 10.1452 15.7469 10.1314C16.7457 8.92757 17.2055 7.57596 17.0768 6.2217ZM14.9878 9.50805C14.8275 9.67554 13.7088 10.8447 12.4343 12.1769L9.1779 15.5804C9.05449 15.7093 8.88857 15.7804 8.71061 15.7804C8.53265 15.7804 8.36667 15.7093 8.24329 15.5804L5.83451 13.0626C4.21133 11.366 2.55887 9.63883 2.42642 9.50032C0.615453 7.42282 1.26172 5.06417 2.63032 3.75032C4.5424 1.91473 6.89198 2.51185 8.37233 3.91784C8.56516 4.10098 8.86873 4.09744 9.0572 3.90969C11.0011 1.97344 13.3848 2.46312 14.7769 3.73758C16.1929 5.03398 16.8059 7.32003 14.9878 9.50805Z" fill="black"/>
</g>
<defs>
<clipPath id="clip0_747_23">
<rect width="16.762" height="16.762" fill="white" transform="translate(0.335938 0.809692)"/>
</clipPath>
</defs>
</svg>
