<svg width="19" height="19" viewBox="0 0 19 19" fill="none" xmlns="http://www.w3.org/2000/svg">
<g clip-path="url(#clip0_4216_335)">
<path d="M9.03684 18.7521C9.14008 18.907 9.3139 19 9.5 19C9.6861 19 9.85992 18.907 9.96316 18.7521C11.2805 16.7761 13.2208 14.3358 14.573 11.8539C15.6541 9.86942 16.1797 8.1769 16.1797 6.67969C16.1797 2.99651 13.1832 0 9.5 0C5.81682 0 2.82031 2.99651 2.82031 6.67969C2.82031 8.1769 3.34589 9.86942 4.42704 11.8539C5.77815 14.3339 7.7222 16.7802 9.03684 18.7521ZM9.5 1.11328C12.5693 1.11328 15.0664 3.61037 15.0664 6.67969C15.0664 7.98609 14.5852 9.50438 13.5954 11.3213C12.4299 13.4606 10.7667 15.6307 9.5 17.4551C8.23349 15.631 6.57021 13.4607 5.40465 11.3213C4.41479 9.50438 3.93359 7.98609 3.93359 6.67969C3.93359 3.61037 6.43068 1.11328 9.5 1.11328Z" fill="white"/>
<path d="M9.5 10.0195C11.3416 10.0195 12.8398 8.52128 12.8398 6.67969C12.8398 4.8381 11.3416 3.33984 9.5 3.33984C7.65841 3.33984 6.16016 4.8381 6.16016 6.67969C6.16016 8.52128 7.65841 10.0195 9.5 10.0195ZM9.5 4.45312C10.7277 4.45312 11.7266 5.45196 11.7266 6.67969C11.7266 7.90741 10.7277 8.90625 9.5 8.90625C8.27227 8.90625 7.27344 7.90741 7.27344 6.67969C7.27344 5.45196 8.27227 4.45312 9.5 4.45312Z" fill="white"/>
</g>
<defs>
<clipPath id="clip0_4216_335">
<rect width="19" height="19" fill="white"/>
</clipPath>
</defs>
</svg>
