<svg width="19" height="19" viewBox="0 0 19 19" fill="none" xmlns="http://www.w3.org/2000/svg">
<g clip-path="url(#clip0_237_187)">
<path d="M18.2475 4.1923L9.6208 0.027665C9.54432 -0.00922168 9.45526 -0.00922168 9.37881 0.027665L0.752033 4.1923C0.655846 4.23873 0.594727 4.33614 0.594727 4.44294V14.5571C0.594727 14.6639 0.655846 14.7613 0.752033 14.8077L9.37878 18.9723C9.417 18.9908 9.45841 19 9.49979 19C9.54117 19 9.58254 18.9908 9.6208 18.9723L18.2475 14.8077C18.3437 14.7613 18.4049 14.6639 18.4049 14.5571V4.44298C18.4049 4.3361 18.3437 4.23876 18.2475 4.1923ZM9.49979 0.587386L17.4864 4.44294L15.1712 5.5606C15.1566 5.54943 15.1411 5.53911 15.1241 5.53091L7.19177 1.70159L9.49979 0.587386ZM6.56321 2.01628L14.5382 5.86623L12.9048 6.65477L4.93315 2.80638L6.56321 2.01628ZM14.7248 6.39422V9.30902L13.1991 10.0456V7.13077L14.7248 6.39422ZM17.8482 14.3824L9.77811 18.2782V8.78225L11.7031 7.85296C11.8415 7.78612 11.8995 7.61976 11.8327 7.48131C11.7659 7.34293 11.5995 7.28481 11.4611 7.35168L9.49979 8.29853L8.72806 7.92595C8.58961 7.85904 8.42325 7.91716 8.35641 8.05557C8.28958 8.19399 8.34762 8.36039 8.48604 8.42722L9.22147 8.78225V18.2782L1.15137 14.3824V4.88636L7.29668 7.85307C7.33568 7.87192 7.37691 7.88083 7.41747 7.88083C7.52093 7.88083 7.62031 7.82286 7.66829 7.72344C7.73513 7.58503 7.67709 7.41863 7.53867 7.35179L1.51322 4.44294L4.27805 3.10819L12.6386 7.14432C12.6398 7.14602 12.6412 7.14754 12.6424 7.14921V10.489C12.6424 10.5848 12.6917 10.6738 12.7728 10.7248C12.8178 10.7531 12.8692 10.7673 12.9208 10.7673C12.9621 10.7673 13.0034 10.7582 13.0418 10.7397L15.1241 9.7344C15.2203 9.68798 15.2814 9.5906 15.2814 9.48376V6.12555L17.8482 4.8864V14.3824Z" fill="black"/>
<path d="M3.44761 13.3029L2.18163 12.6918C2.04313 12.6249 1.87681 12.683 1.80997 12.8214C1.74314 12.9598 1.80118 13.1262 1.9396 13.1931L3.20558 13.8042C3.24459 13.8231 3.28581 13.832 3.32638 13.832C3.42984 13.832 3.52921 13.774 3.5772 13.6746C3.64407 13.5361 3.58603 13.3698 3.44761 13.3029Z" fill="black"/>
<path d="M4.6139 12.5445L2.18453 11.3717C2.04608 11.3048 1.87972 11.3629 1.81288 11.5013C1.74608 11.6398 1.80412 11.8062 1.94254 11.873L4.37191 13.0458C4.41091 13.0646 4.45214 13.0736 4.4927 13.0736C4.59616 13.0736 4.69554 13.0156 4.74352 12.9162C4.81035 12.7777 4.75232 12.6113 4.6139 12.5445Z" fill="black"/>
</g>
<defs>
<clipPath id="clip0_237_187">
<rect width="19" height="19" fill="white"/>
</clipPath>
</defs>
</svg>
