<svg width="19" height="19" viewBox="0 0 19 19" fill="none" xmlns="http://www.w3.org/2000/svg">
<g clip-path="url(#clip0_237_180)">
<path d="M0 19H8.90625V10.0938H0V19ZM1.48438 11.5781H3.71094V13.8047H5.19531V11.5781H7.42188V17.5156H1.48438V11.5781Z" fill="white"/>
<path d="M7.79765 5.72011L6.74805 4.67051L5.04629 6.37227V3.71094C5.04629 2.48321 6.04512 1.48438 7.27285 1.48438H8.75722V0H7.27285C5.22664 0 3.56191 1.66473 3.56191 3.71094V6.37227L1.86015 4.67051L0.810547 5.72011L4.3041 9.21366L7.79765 5.72011Z" fill="white"/>
<path d="M11.2018 13.2799L12.2514 14.3295L13.9531 12.6277V15.2891C13.9531 16.5168 12.9543 17.5156 11.7266 17.5156H10.2422V19H11.7266C13.7728 19 15.4375 17.3353 15.4375 15.2891V12.6277L17.1393 14.3295L18.1889 13.2799L14.6953 9.78633L11.2018 13.2799Z" fill="white"/>
<path d="M14.5469 8.90625C17.0023 8.90625 19 6.90858 19 4.45312C19 1.99767 17.0023 0 14.5469 0C12.0914 0 10.0938 1.99767 10.0938 4.45312C10.0938 6.90858 12.0914 8.90625 14.5469 8.90625ZM14.5469 1.48438C16.1838 1.48438 17.5156 2.81616 17.5156 4.45312C17.5156 6.09009 16.1838 7.42188 14.5469 7.42188C12.9099 7.42188 11.5781 6.09009 11.5781 4.45312C11.5781 2.81616 12.9099 1.48438 14.5469 1.48438Z" fill="white"/>
<path d="M14.5469 5.19531C14.9568 5.19531 15.2891 4.86302 15.2891 4.45312C15.2891 4.04323 14.9568 3.71094 14.5469 3.71094C14.137 3.71094 13.8047 4.04323 13.8047 4.45312C13.8047 4.86302 14.137 5.19531 14.5469 5.19531Z" fill="white"/>
</g>
<defs>
<clipPath id="clip0_237_180">
<rect width="19" height="19" fill="white"/>
</clipPath>
</defs>
</svg>
