<svg width="60" height="60" viewBox="0 0 60 60" fill="none" xmlns="http://www.w3.org/2000/svg">
<g clip-path="url(#clip0_4213_48)">
<path d="M56.1565 46.9717L59.8503 41.4809C60.05 41.1814 60.05 40.7821 59.8503 40.4826C59.6506 40.1831 59.3511 39.9834 58.9518 39.9834H52.9618V35.9901C52.9618 35.3911 52.5625 34.9918 51.9635 34.9918H50.9652V9.03499C50.9652 8.43598 50.5659 8.03669 49.9669 8.03669H46.9718V3.04497C46.9718 2.44596 46.5726 2.04667 45.9736 2.04667H14.0266C13.4276 2.04667 13.0283 2.44596 13.0283 3.04497V8.03669H10.0333C9.43431 8.03669 9.03502 8.43598 9.03502 9.03499V34.9918H8.03672C7.43772 34.9918 7.03842 35.3911 7.03842 35.9901V39.9834H1.04828C0.648987 39.9834 0.349486 40.1831 0.249574 40.5824C0.0498681 40.8819 0.0498681 41.2812 0.249574 41.5807L3.84359 46.9717L0.14978 52.4626C-0.0499266 52.7621 -0.0499266 53.1614 0.14978 53.4609C0.349486 53.7604 0.648987 53.9601 1.04828 53.9601H10.0333C10.6323 53.9601 11.0316 53.5608 11.0316 52.9618V48.9684H16.9063L29.401 57.7537C29.6007 57.8535 29.8003 57.9534 30 57.9534C30.1997 57.9534 30.3993 57.9534 30.599 57.7537L43.0937 48.9684H48.9683V52.9617C48.9683 53.5607 49.3676 53.96 49.9666 53.96H58.9517C59.351 53.96 59.5507 53.6605 59.7504 53.361C59.9501 53.0615 59.9501 52.6622 59.7504 52.3627L56.1565 46.9717ZM11.0316 10.0333H14.0266C14.6256 10.0333 15.0249 9.63399 15.0249 9.03499V4.04326H44.975V9.03499C44.975 9.63399 45.3743 10.0333 45.9733 10.0333H48.9683V34.9917H46.9716V13.0283C46.9716 12.4293 46.5723 12.03 45.9733 12.03H42.9783V7.03827C42.9783 6.43927 42.579 6.03998 41.98 6.03998H18.0199C17.4209 6.03998 17.0216 6.43927 17.0216 7.03827V12.03H14.0266C13.4276 12.03 13.0283 12.4293 13.0283 13.0283V34.9917H11.0316V10.0333ZM25.0084 22.0133C25.0084 19.218 27.2047 17.0216 30.0001 17.0216C32.7954 17.0216 34.9918 19.2179 34.9918 22.0133C34.9918 24.8087 32.7955 27.005 30.0001 27.005C27.2047 27.005 25.0084 24.8086 25.0084 22.0133ZM30.0999 29.0016C33.5941 29.0016 36.4892 31.5974 36.9884 34.9917H23.1116C23.6107 31.5974 26.6057 29.0016 30.0999 29.0016ZM38.9297 34.9917C38.5844 31.8177 36.6118 29.1602 33.8531 27.8612C35.749 26.6187 36.9884 24.4765 36.9884 22.0133C36.9884 18.1198 33.8936 15.025 30.0001 15.025C26.1066 15.025 23.0118 18.1198 23.0118 22.0133C23.0118 24.4765 24.2513 26.6187 26.1471 27.8612C23.3884 29.1602 21.4158 31.8177 21.0705 34.9917H15.025V14.0266H18.02C18.619 14.0266 19.0183 13.6273 19.0183 13.0283V8.03657H40.9817V13.0283C40.9817 13.6273 41.381 14.0266 41.98 14.0266H44.975V34.9917H38.9297ZM9.03502 36.9884H10.0333H14.0266H22.0134H37.9867H45.9734H49.9667H50.965V40.9817V46.9717H49.9667H42.7787H35.5907H24.3095H17.2213H10.0333H9.03502V40.9817V36.9884ZM32.6956 48.9684L30.0001 50.9651L27.3046 48.9684H32.6956ZM9.03502 51.9634H2.94508L5.94009 47.4709C6.1398 47.1714 6.1398 46.6722 5.94009 46.3727L2.94508 41.98H7.0383V47.97C7.0383 48.569 7.4376 48.9683 8.0366 48.9683H9.0349L9.03502 51.9634ZM30.0001 55.7571L20.4161 48.9684H23.9752L29.4011 53.0616C29.6008 53.1614 29.8004 53.2613 30.0001 53.2613C30.1998 53.2613 30.3994 53.2613 30.4993 53.0616L35.9252 48.9684H39.5842L30.0001 55.7571ZM50.9652 51.9634V49.0682H51.9635C52.5625 49.0682 52.9618 48.6689 52.9618 48.0699V47.9701V42.0799H57.055L54.06 46.4726C53.8603 46.7721 53.8603 47.2713 54.06 47.5708L57.055 51.9635H50.9652V51.9634Z" fill="#EF8F21"/>
<path d="M18.0198 40.9817H22.0131C22.6121 40.9817 23.0114 40.5824 23.0114 39.9834C23.0114 39.3844 22.6121 38.9851 22.0131 38.9851H18.0198C17.4208 38.9851 17.0215 39.3844 17.0215 39.9834C17.0215 40.5824 17.4208 40.9817 18.0198 40.9817Z" fill="#EF8F21"/>
<path d="M26.0061 40.9817H31.9961C32.5951 40.9817 32.9944 40.5824 32.9944 39.9834C32.9944 39.3844 32.5951 38.9851 31.9961 38.9851H26.0061C25.4071 38.9851 25.0078 39.3844 25.0078 39.9834C25.0078 40.5824 25.4071 40.9817 26.0061 40.9817Z" fill="#EF8F21"/>
<path d="M18.0198 44.9751H27.0048C27.6038 44.9751 28.0031 44.5758 28.0031 43.9768C28.0031 43.3778 27.6038 42.9785 27.0048 42.9785H18.0198C17.4208 42.9785 17.0215 43.3778 17.0215 43.9768C17.0215 44.5758 17.4208 44.9751 18.0198 44.9751Z" fill="#EF8F21"/>
<path d="M41.9794 42.9784H39.9827C39.3837 42.9784 38.9844 43.3777 38.9844 43.9767C38.9844 44.5757 39.3837 44.975 39.9827 44.975H41.9794C42.5784 44.975 42.9777 44.5757 42.9777 43.9767C42.9777 43.3777 42.5784 42.9784 41.9794 42.9784Z" fill="#EF8F21"/>
<path d="M30 43.9767C30 44.5757 30.3993 44.975 30.9983 44.975H35.99C36.589 44.975 36.9883 44.5757 36.9883 43.9767C36.9883 43.3777 36.589 42.9784 35.99 42.9784H30.9983C30.3993 42.9784 30 43.3777 30 43.9767Z" fill="#EF8F21"/>
<path d="M36.9885 40.9817H41.9803C42.5793 40.9817 42.9785 40.5824 42.9785 39.9834C42.9785 39.3844 42.5793 38.9851 41.9803 38.9851H36.9885C36.3895 38.9851 35.9902 39.3844 35.9902 39.9834C35.9902 40.5824 36.3895 40.9817 36.9885 40.9817Z" fill="#EF8F21"/>
</g>
<defs>
<clipPath id="clip0_4213_48">
<rect width="60" height="60" fill="white"/>
</clipPath>
</defs>
</svg>
