<svg width="60" height="60" viewBox="0 0 60 60" fill="none" xmlns="http://www.w3.org/2000/svg">
<path d="M30 3.75L5.625 11.775V22.5C5.625 49.8937 29.3062 56.1375 29.55 56.25H30L30.45 56.1375C30.6938 56.1375 54.375 49.8375 54.375 22.3875V11.775L30 3.75ZM50.625 22.5C50.625 45.1875 33.1688 51.4688 30 52.5C26.8312 51.4688 9.375 45.1875 9.375 22.5V14.475L30 7.59375L50.625 14.475V22.5Z" fill="#EF8F21"/>
<path d="M26.3784 32.772L38.2686 20.8636L40.2235 22.8185L28.3151 34.7087L28.3138 34.71C27.7073 35.3201 26.8837 35.6649 26.0235 35.6688C25.5949 35.669 25.1704 35.5845 24.7746 35.42C24.3786 35.2554 24.0191 35.0141 23.7167 34.71L23.7157 34.7089L19.7767 30.77L21.7296 28.8309L25.6711 32.7723L26.0249 33.1261L26.3784 32.772Z" fill="#EF8F21" stroke="#EF8F21"/>
</svg>
