<svg width="25" height="25" viewBox="0 0 25 25" fill="none" xmlns="http://www.w3.org/2000/svg">
<path d="M12.3516 12.082C12.3984 12.1016 12.4492 12.1133 12.5 12.1133C12.5508 12.1133 12.6016 12.1016 12.6484 12.082C12.8438 12 17.3984 10.0703 17.3984 5.67969C17.3984 2.98047 15.1992 0.78125 12.5 0.78125C9.80078 0.78125 7.60156 2.97656 7.60156 5.67969C7.60156 10.0703 12.1563 12.0039 12.3516 12.082ZM12.5 1.5625C14.7695 1.5625 16.6172 3.41016 16.6172 5.67969C16.6172 9.125 13.2539 10.9297 12.5 11.293C11.7422 10.9297 8.38281 9.125 8.38281 5.67969C8.38281 3.41016 10.2305 1.5625 12.5 1.5625Z" fill="black"/>
<path d="M12.5 8.10156C13.8359 8.10156 14.9219 7.01562 14.9219 5.67969C14.9219 4.34375 13.8359 3.25781 12.5 3.25781C11.1641 3.25781 10.0781 4.34375 10.0781 5.67969C10.0781 7.01562 11.1641 8.10156 12.5 8.10156ZM12.5 4.03906C13.4063 4.03906 14.1406 4.77344 14.1406 5.67969C14.1406 6.58594 13.4063 7.32031 12.5 7.32031C11.5938 7.32031 10.8594 6.58594 10.8594 5.67969C10.8594 4.77344 11.5938 4.03906 12.5 4.03906Z" fill="black"/>
<path d="M19.7617 18.4531C19.5469 18.4531 19.3711 18.6289 19.3711 18.8438V22.9062C19.3711 23.1992 19.1328 23.4375 18.8398 23.4375H12.8906V18.1914C12.8906 17.9766 12.7148 17.8008 12.5 17.8008C12.2852 17.8008 12.1094 17.9766 12.1094 18.1914V23.4375H6.16016C5.86719 23.4375 5.62891 23.1992 5.62891 22.9062V18.8438C5.62891 18.6289 5.45312 18.4531 5.23828 18.4531C5.02344 18.4531 4.84766 18.6289 4.84766 18.8438V22.9062C4.84766 23.6289 5.4375 24.2188 6.16016 24.2188H18.8398C19.5625 24.2188 20.1523 23.6289 20.1523 22.9062V18.8438C20.1523 18.6289 19.9766 18.4531 19.7617 18.4531Z" fill="black"/>
<path d="M21.8161 17.0781L19.7536 14.2539C19.6794 14.1523 19.5622 14.0938 19.4372 14.0938H5.56217C5.43717 14.0938 5.31998 14.1523 5.24576 14.2539L3.18326 17.0781C3.09733 17.1953 3.08561 17.3555 3.15201 17.4844C3.21842 17.6172 3.35123 17.6992 3.49967 17.6992H10.4372C10.5622 17.6992 10.6794 17.6406 10.7536 17.5391L12.5036 15.1445L14.2536 17.5391C14.3278 17.6406 14.445 17.6992 14.57 17.6992H21.5075C21.6559 17.6992 21.7887 17.6172 21.8551 17.4844C21.9215 17.3516 21.9098 17.1953 21.8239 17.0781H21.8161ZM10.238 16.918H4.2692L5.76139 14.875H11.7301L10.238 16.918ZM14.7614 16.918L13.2692 14.875H19.238L20.7301 16.918H14.7614Z" fill="black"/>
</svg>
