<svg width="28" height="28" viewBox="0 0 28 28" fill="none" xmlns="http://www.w3.org/2000/svg">
<g clip-path="url(#clip0_10_228)">
<path d="M14.3351 0C6.7883 0 0.669922 6.11838 0.669922 13.6652C0.669922 21.212 6.7883 27.3304 14.3351 27.3304C21.8819 27.3304 28.0003 21.212 28.0003 13.6652C28.0003 6.11838 21.8819 0 14.3351 0Z" fill="#EF8F21"/>
<path d="M15.8305 12.4285L21.6804 5.62842H20.2942L15.2147 11.5328L11.1577 5.62842H6.47852L12.6134 14.5569L6.47852 21.6878H7.86484L13.2289 15.4525L17.5133 21.6878H22.1926L15.8301 12.4285H15.8305ZM8.36434 6.67203H10.4936L20.2948 20.6916H18.1655L8.36434 6.67203Z" fill="white"/>
</g>
<defs>
<clipPath id="clip0_10_228">
<rect width="27.3304" height="27.3304" fill="white" transform="translate(0.669922)"/>
</clipPath>
</defs>
</svg>
