<svg width="16" height="17" viewBox="0 0 16 17" fill="none" xmlns="http://www.w3.org/2000/svg">
<g clip-path="url(#clip0_62_1771)">
<path d="M15.6753 12.5098L10.0169 2.09301C9.58989 1.37408 8.83564 0.944702 7.99939 0.944702C7.16314 0.944702 6.40889 1.37408 5.98183 2.09301C5.97861 2.09851 5.97589 2.10401 5.97267 2.10951L0.333169 12.4934C-0.103049 13.2275 -0.111299 14.109 0.310701 14.8514C0.733669 15.5942 1.49567 16.0373 2.35026 16.0373H13.6173C14.4719 16.0373 15.2652 15.5942 15.6881 14.8514C16.1101 14.1091 16.1019 13.2274 15.6753 12.5098ZM7.06095 5.71436C7.06095 5.19605 7.48111 4.77592 7.99939 4.77592C8.5177 4.77592 8.93782 5.19608 8.93782 5.71436V9.46814C8.93782 9.98639 8.51767 10.4066 7.99939 10.4066C7.48111 10.4066 7.06095 9.98636 7.06095 9.46814V5.71436ZM7.99939 14.1604C7.22317 14.1604 6.5917 13.529 6.5917 12.7527C6.5917 11.9765 7.22314 11.345 7.99939 11.345C8.77561 11.345 9.40704 11.9765 9.40704 12.7527C9.40707 13.5289 8.77564 14.1604 7.99939 14.1604Z" fill="black"/>
</g>
<defs>
<clipPath id="clip0_62_1771">
<rect width="16" height="16" fill="white" transform="translate(0 0.490967)"/>
</clipPath>
</defs>
</svg>
