<svg width="18" height="18" viewBox="0 0 18 18" fill="none" xmlns="http://www.w3.org/2000/svg">
<g clip-path="url(#clip0_63_1926)">
<path d="M9.03516 0C4.09184 0 0 4.02152 0 8.96484C0 13.9082 4.09184 18 9.03516 18C13.9785 18 18 13.9082 18 8.96484C18 4.02152 13.9785 0 9.03516 0ZM13.7812 10.0195H10.0898V13.7812C10.0898 14.3627 9.61629 14.8359 9.03516 14.8359C8.45367 14.8359 7.98047 14.3627 7.98047 13.7812V10.0195H4.21875C3.63727 10.0195 3.16406 9.54633 3.16406 8.96484C3.16406 8.38336 3.63727 7.91016 4.21875 7.91016H7.98047V4.21875C7.98047 3.63727 8.45367 3.16406 9.03516 3.16406C9.61629 3.16406 10.0898 3.63727 10.0898 4.21875V7.91016H13.7812C14.3624 7.91016 14.8359 8.38336 14.8359 8.96484C14.8359 9.54633 14.3624 10.0195 13.7812 10.0195Z" fill="white"/>
</g>
<defs>
<clipPath id="clip0_63_1926">
<rect width="18" height="18" fill="white"/>
</clipPath>
</defs>
</svg>
