<svg width="18px" height="18px" viewBox="0 0 13 13" fill="none" xmlns="http://www.w3.org/2000/svg">
<g clip-path="url(#clip0_877_101)">
<path d="M12.2793 4.18391C12.1989 3.33894 11.7924 2.54196 11.1346 1.9397C10.4769 1.33754 9.6435 0.995665 8.788 0.977046C7.92996 0.958449 7.11875 1.26254 6.42308 1.85989C5.68649 1.24811 4.85476 0.940196 4.00045 0.966007C3.15737 0.991565 2.34009 1.34448 1.69922 1.95972C1.05351 2.57963 0.657097 3.39356 0.583009 4.25156C0.500127 5.2117 0.824212 6.13964 1.52027 6.93509C1.52361 6.93891 1.52703 6.94265 1.53053 6.94631C1.5606 6.97775 2.75099 8.22201 3.91963 9.44351L5.60439 11.2045C5.82157 11.4315 6.11398 11.5565 6.42771 11.5565C6.74144 11.5565 7.03381 11.4315 7.25094 11.2046L9.52856 8.82408C10.4579 7.85277 11.2687 7.00533 11.3251 6.9464C11.3336 6.93745 11.3417 6.92813 11.3491 6.91846C12.0477 6.07645 12.3693 5.13111 12.2793 4.18391ZM10.8181 6.48246C10.706 6.5996 9.92364 7.41736 9.03218 8.34912L6.75459 10.7296C6.66827 10.8198 6.55223 10.8695 6.42776 10.8695C6.30328 10.8695 6.18719 10.8198 6.1009 10.7296L4.41615 8.96857C3.28085 7.78198 2.12509 6.57393 2.03245 6.47705C0.765812 5.02399 1.21783 3.3743 2.17506 2.45536C3.51241 1.17151 5.15576 1.58914 6.19116 2.57253C6.32603 2.70062 6.53835 2.69815 6.67017 2.56683C8.02979 1.21257 9.69698 1.55507 10.6707 2.44645C11.6611 3.35319 12.0898 4.9521 10.8181 6.48246Z" fill="#FAB442"/>
</g>
<defs>
<clipPath id="clip0_877_101">
<rect width="11.7238" height="11.7238" fill="white" transform="translate(0.570312 0.39856)"/>
</clipPath>
</defs>
</svg>
